<svg id="fraud" enable-background="new 0 0 501 501" height="512" viewBox="0 0 501 501" width="512" xmlns="http://www.w3.org/2000/svg"><path d="m53.349 388.001c-4.937 1.134-10.023-1.063-12.644-5.397-22.345-36.948-35.205-80.274-35.205-126.604 0-135.169 109.462-244.771 244.577-245 133.533-.226 243.31 107.571 245.393 241.088.745 47.775-12.187 92.48-35.135 130.452-2.638 4.365-7.744 6.595-12.715 5.453-60.149-13.809-126.874-21.493-197.12-21.493-70.258 0-136.995 7.687-197.151 21.501z" fill="#ec74b6"/><path d="m441.022 123.942c0 7.613-6.172 13.785-13.786 13.785h-49.452c1.849 3.786 2.87 8.233 2.736 12.989-.775 27.418-17.638 34.695-24.565 34.99-10.558 37.691-32.005 72.347-59.608 93.314-27.072 20.564-64.648 20.564-91.72 0-39.117-29.714-65.874-86.919-66.791-141.293h-64.073c-7.614 0-13.785-6.172-13.785-13.785 0-5.555 3.333-10.566 8.456-12.714l101.069-42.364 5.808-40.656c2.313-16.186 16.174-28.208 32.524-28.208 6.848 0 13.524 2.14 19.096 6.12l4.473 3.195c11.423 8.159 26.769 8.159 38.192 0l4.473-3.195c5.572-3.98 12.248-6.12 19.096-6.12 16.35 0 30.212 12.022 32.524 28.208l5.808 40.656 101.069 42.364c5.123 2.147 8.456 7.159 8.456 12.714z" fill="#00429a"/><path d="m148.893 110.397c106.678 3.293 292.129 9.588 292.129 13.545 0 7.613-6.172 13.785-13.785 13.785h-96.737v6.773c0 16.569-13.431 30-30 30h-10c-16.569 0-30-13.431-30-30v-6.773h-20v6.773c0 16.569-13.431 30-30 30h-10c-.592 0-1.179-.017-1.763-.051-3.421-.198-6.051 2.917-5.211 6.239 10.009 39.616 32.12 76.437 60.944 98.331 6.474 4.918 13.55 8.659 20.939 11.225-23.506 8.162-50.184 4.421-70.781-11.225-27.603-20.967-49.051-55.624-59.608-93.315-6.943-.312-23.766-7.604-24.54-34.989-.134-4.756.887-9.203 2.736-12.989h-37.8-11.653c-7.613 0-13.785-6.172-13.785-13.785 0-5.555 3.334-10.566 8.456-12.714l101.069-42.364 5.808-40.656c2.313-16.185 16.174-28.207 32.524-28.207 1.707 0 3.404.133 5.075.394-4.81 6.182-7.758 13.866-8.047 22.197l-.552 22.285c-.07 2.809 2.189 5.124 4.998 5.124h119.493l2.695 18.864 2.711 1.136h-127.263c-3.439 0-6.821.887-9.817 2.575l-50.529 28.468c-4.41 2.485-2.766 9.198 2.294 9.354z" fill="#012d4e"/><path d="m460.5 382.265c-42.871 71.149-120.878 118.735-210 118.735s-167.129-47.586-210-118.735v-157.265c0-8.284 6.716-15 15-15h390c8.284 0 15 6.716 15 15z" fill="#81bdfd"/><path d="m89.5 210h356c8.284 0 15 6.716 15 15v157.265c-40.122 66.587-111.019 112.535-193 118.154-1.281-.088-2.559-.185-3.835-.293-107.24-9.031-189.165-99.759-189.165-207.379v-67.747c0-8.284 6.716-15 15-15z" fill="#98e5fb"/><path d="m265.5 300.5h-30c-22.091 0-40 17.909-40 40v10c0 12.632 5.855 23.896 15 31.226v18.774c0 5.523 4.477 10 10 10s10-4.477 10-10v-10.31c1.638.204 3.307.31 5 .31h5v10c0 5.523 4.477 10 10 10s10-4.477 10-10v-10h5c1.693 0 3.362-.106 5-.31v10.31c0 5.523 4.477 10 10 10s10-4.477 10-10v-18.774c9.145-7.331 15-18.594 15-31.226v-10c0-22.091-17.909-40-40-40zm-32 60h-10c-5.523 0-10-4.477-10-10v-10c0-5.523 4.477-10 10-10h10c5.523 0 10 4.477 10 10v10c0 5.523-4.477 10-10 10zm22 20h-10c-2.761 0-5-2.239-5-5s2.239-5 5-5h10c2.761 0 5 2.239 5 5s-2.239 5-5 5zm32-30c0 5.523-4.477 10-10 10h-10c-5.523 0-10-4.477-10-10v-10c0-5.523 4.477-10 10-10h10c5.523 0 10 4.477 10 10z" fill="#fff5f5"/></svg>