<svg id="Layer_1" enable-background="new 0 0 512 512" height="512" viewBox="0 0 512 512" width="512" xmlns="http://www.w3.org/2000/svg"><path d="m11.053 262.971 489.945 4.031c0-135.309-109.689-244.998-244.998-244.998-133.961 0-242.792 107.52-244.947 240.967z" fill="#2d3c6b"/><path d="m280.832 78.869 26.342-26.342c-5.41-.853-10.61-3.358-14.779-7.527s-6.674-9.369-7.527-14.779l-26.342 26.342z" fill="#ffb332"/><path d="m274.002 41.086-15.477 15.476 22.307 22.306 15.226-15.227c-26.253.002-22.056-22.555-22.056-22.555z" fill="#ff9100"/><path d="m238.698 76.391-36.863 36.863h44.613l14.556-14.557z" fill="#ff9100"/><path d="m500.998 267.002c0-1.348-.029-2.688-.051-4.03l-36.743-62.844c-2.865 1.674-6.12 2.559-9.416 2.559-6.626 0-12.817-3.55-16.158-9.263-15.64-26.75-44.605-43.368-75.592-43.368h-214.077c-30.987 0-59.951 16.617-75.591 43.368-2.521 4.311-6.569 7.382-11.398 8.649-4.83 1.268-9.864.576-14.175-1.945h-.001l-36.743 62.844c-.022 1.342-.051 2.683-.051 4.031 0 135.308 109.689 244.997 244.998 244.997s244.998-109.689 244.998-244.998z" fill="#ff4155"/><path d="m255.312 440.646s0 0-13.481-80.31c-10.749-64.03 25.13-94.894 40.118-104.775 2.443-1.611 2.425-5.207-.043-6.779-11.817-7.528-9.527-18.695-7.172-24.59.839-2.101-.189-4.506-2.313-5.284-18.308-6.705-17.729-22.394-16.85-28.109.208-1.356-.314-2.714-1.34-3.625-15.909-14.117-7.96-27.059-3.095-32.565 1.143-1.293 1.287-3.097.528-4.55h-102.704c-30.987 0-59.951 16.617-75.591 43.367-2.521 4.311-6.568 7.382-11.398 8.649-4.83 1.268-9.863.576-14.175-1.945l-36.743 62.844c-.022 1.343-.051 2.683-.051 4.031 0 135.306 109.689 244.995 244.998 244.995 19.126 0 37.738-2.195 55.603-6.34-48.651-17.063-56.291-65.014-56.291-65.014z" fill="#e80054"/><path d="m363.039 150.057h-214.078c-12.108 0-23.903 2.547-34.718 7.235 27.087 10.542 48.601 32.221 58.929 59.412 8.013 21.096 28.043 35.188 50.609 35.188h64.439c22.566 0 42.597-14.093 50.609-35.189 10.328-27.191 31.841-48.87 58.929-59.411-10.817-4.687-22.611-7.235-34.719-7.235z" fill="#e80054"/><path d="m173.171 216.704c8.013 21.096 28.043 35.188 50.609 35.188h59.971c-.085-1.206-.696-2.378-1.846-3.111-11.817-7.528-9.527-18.695-7.172-24.59.839-2.101-.189-4.506-2.313-5.284-18.308-6.705-17.729-22.394-16.85-28.109.208-1.356-.314-2.714-1.34-3.625-15.909-14.117-7.96-27.059-3.095-32.565 1.143-1.293 1.287-3.097.528-4.55h-102.702c-12.108 0-23.903 2.547-34.719 7.235 27.088 10.541 48.602 32.22 58.929 59.411z" fill="#cc0053"/><path d="m317.696 113.254-83.033-83.033c-.853 5.41-3.358 10.61-7.527 14.779s-9.369 6.674-14.779 7.527l60.726 60.726h44.613z" fill="#ffc839"/><path d="m234.663 30.221c-.853 5.41-3.358 10.61-7.527 14.779s-9.369 6.674-14.779 7.527l36.912 36.912c-5.793-23.707 21.181-23.431 21.181-23.431z" fill="#ffb332"/><path d="m454.788 204.44c-7.027 0-13.868-3.626-17.67-10.131-15.327-26.214-43.712-42.499-74.079-42.499h-214.079c-30.367 0-58.752 16.285-74.078 42.499-5.699 9.75-18.222 13.032-27.971 7.332-9.748-5.699-13.031-18.223-7.332-27.97 22.63-38.708 64.542-62.754 109.38-62.754h214.079c44.838 0 86.751 24.046 109.381 62.753 5.7 9.749 2.417 22.272-7.331 27.971-3.244 1.896-6.795 2.799-10.3 2.799z" fill="#ffdd40"/><path d="m148.96 151.81h103.18c-.034-1.018-.447-2.025-1.229-2.797-16.895-16.661-6.152-30.122-.164-35.531.768-.694 1.196-1.614 1.306-2.565h-103.093c-44.838 0-86.75 24.046-109.38 62.754-5.699 9.747-2.417 22.271 7.332 27.97 9.749 5.701 22.271 2.418 27.971-7.332 15.326-26.214 43.711-42.499 74.077-42.499z" fill="#ffb332"/><path d="m276.695 220.213h-41.39c-8.711 0-15.773-7.062-15.773-15.773s7.062-15.773 15.773-15.773h41.39c8.711 0 15.773 7.062 15.773 15.773s-7.062 15.773-15.773 15.773z" fill="#ff4155"/><circle cx="208.98" cy="26.844" fill="#ffdd40" r="26.844"/><circle cx="310.551" cy="26.844" fill="#ffc839" r="26.844"/><circle cx="317.696" cy="19.241" fill="#ffdd40" r="10.923"/><g fill="#e80054"><circle cx="246.645" cy="384.481" r="29.501"/><circle cx="286.416" cy="342.016" r="12.771"/><circle cx="246.645" cy="295.972" r="12.771"/><circle cx="251.666" cy="428.341" r="18.345"/></g></svg>