<?xml version="1.0" encoding="UTF-8"?>
<svg width="512px" height="512px" viewBox="0 0 512 512" version="1.1" xmlns="http://www.w3.org/2000/svg" xmlns:xlink="http://www.w3.org/1999/xlink">
    <title>icon</title>
    <g id="icon" stroke="none" stroke-width="1" fill="none" fill-rule="evenodd">
        <g transform="translate(0.000000, 75.304993)" fill-rule="nonzero">
            <path d="M320.112,281.981018 L191.889008,281.981018 L191.889008,297.244995 C226.917999,322.605011 256.182007,341.64801 256.182007,341.64801 C256.182007,341.64801 285.253998,322.740997 320.112,297.490997 L320.112,281.981018 L320.112,281.981018 Z" id="heart-bottom" fill="#FFCCC3"></path>
            <path d="M93.283997,168.121002 C111.436996,168.121002 126.152,182.899994 126.152,201.131012 L126.152,187.216003 C126.152,168.984985 140.867996,154.205993 159.020004,154.205993 C177.173004,154.205993 191.888,168.984985 191.888,187.216003 L191.888,223.615997 L320.110992,223.615997 L320.110992,187.216003 C320.110992,168.984985 334.826996,154.205993 352.979004,154.205993 C371.131989,154.205993 385.846985,168.984985 385.846985,187.216003 L385.846985,201.131012 C385.846985,182.899994 400.562988,168.121002 418.714996,168.121002 C428.093994,168.121002 436.549011,172.072998 442.536987,178.402008 C451.187012,159.28302 456.459015,138.030029 455.217987,112.072021 C452.281006,50.691009 407.42099,-2.84217094e-14 352.475006,-2.84217094e-14 C298.414001,-2.84217094e-14 256,45.051025 256,45.051025 C256,45.051025 216.009995,-2.84217094e-14 159.520996,-2.84217094e-14 C104.578003,-2.84217094e-14 59.715,50.691009 56.778,112.072021 C55.539001,138.012024 60.82,159.312988 69.454002,178.407013 C75.445,172.075012 83.902,168.121002 93.283997,168.121002 Z" id="heart-top" fill="#FFCCC3"></path>
            <path d="M472.942993,213.615997 L461.584015,213.615997 L461.584015,201.131012 C461.584015,177.415008 442.352997,158.121002 418.716003,158.121002 C408.317993,158.121002 398.774994,161.856994 391.345001,168.058014 C384.30899,153.933014 369.76001,144.205993 352.980011,144.205993 C329.34201,144.205993 310.112,163.5 310.112,187.216003 L310.112,213.615997 L201.889008,213.615997 L201.889008,187.216003 C201.889008,163.5 182.658997,144.205993 159.020996,144.205993 C142.242004,144.205993 127.692001,153.934021 120.655998,168.058014 C113.224998,161.856994 103.681999,158.121002 93.285004,158.121002 C69.647003,158.121002 50.417,177.415008 50.417,201.131012 L50.417,213.615997 L39.056999,213.615997 C17.521,213.615997 0,231.192993 0,252.798004 C0,274.403015 17.521,291.981018 39.056999,291.981018 L50.416,291.981018 L50.416,304.466003 C50.416,328.182007 69.646004,347.476013 93.283997,347.476013 C103.681999,347.476013 113.224998,343.74002 120.655998,337.539001 C127.691002,351.664001 142.240997,361.391021 159.020996,361.391021 C182.658997,361.391021 201.889008,342.097015 201.889008,318.381012 L201.889008,291.981018 L310.112,291.981018 L310.112,318.381012 C310.112,342.097015 329.34201,361.391021 352.980011,361.391021 C369.759003,361.391021 384.30899,351.664001 391.345001,337.539001 C398.776001,343.74002 408.319,347.476013 418.71701,347.476013 C442.355011,347.476013 461.584991,328.182007 461.584991,304.466003 L461.584991,291.981018 L472.944,291.981018 C494.480011,291.981018 512.000977,274.404022 512.000977,252.798004 C512.000977,231.192993 494.479004,213.615997 472.942993,213.615997 Z M39.056999,271.981018 C28.549,271.981018 20,263.375 20,252.798004 C20,242.221008 28.549,233.61502 39.056999,233.61502 L50.416,233.61502 L50.416,271.980011 L39.056999,271.980011 L39.056999,271.981018 Z M93.283997,327.476013 C80.675003,327.476013 70.416,317.154022 70.416,304.466003 L70.416,201.131012 C70.416,188.442993 80.675003,178.121002 93.283997,178.121002 C105.892998,178.121002 116.152,188.442993 116.152,201.131012 L116.152,304.466003 C116.152,317.154022 105.893997,327.476013 93.283997,327.476013 Z M181.889008,318.381012 C181.889008,331.069 171.630005,341.391021 159.020996,341.391021 C146.412003,341.391021 136.153,331.069 136.153,318.381012 L136.153,187.214996 C136.153,174.527008 146.412003,164.205017 159.020996,164.205017 C171.630005,164.205017 181.889008,174.527008 181.889008,187.214996 L181.889008,318.381012 Z M201.889008,271.981018 L201.889008,233.615997 L310.112,233.615997 L310.112,271.981018 L201.889008,271.981018 Z M375.847992,318.381012 C375.847992,331.069 365.588989,341.391021 352.980011,341.391021 C340.371002,341.391021 330.112,331.069 330.112,318.381012 L330.112,187.214996 C330.112,174.527008 340.371002,164.205017 352.980011,164.205017 C365.588989,164.205017 375.847992,174.527008 375.847992,187.214996 L375.847992,318.381012 Z M441.584015,304.466003 C441.584015,317.154022 431.325012,327.476013 418.716003,327.476013 C406.106995,327.476013 395.847992,317.154022 395.847992,304.466003 L395.847992,201.131012 C395.847992,188.442993 406.106995,178.121002 418.716003,178.121002 C431.325012,178.121002 441.584015,188.442993 441.584015,201.131012 L441.584015,304.466003 Z M472.942993,271.981018 L461.584015,271.981018 L461.584015,233.615997 L472.942993,233.615997 C483.450989,233.615997 492,242.221008 492,252.799011 C492,263.375 483.450989,271.981018 472.942993,271.981018 Z" id="halter" fill="#0062C6"></path>
        </g>
    </g>
</svg>