<?xml version="1.0" encoding="UTF-8"?>
<svg width="1000px" height="800px" viewBox="0 0 1000 800" version="1.1" xmlns="http://www.w3.org/2000/svg" xmlns:xlink="http://www.w3.org/1999/xlink">
    <title>is-locked</title>
    <defs>
        <path d="M15.2616279,366.380838 C-63.3131932,79.9662844 178.96787,-23.4435582 328.488372,4.36167665 C477.558745,32.1604802 472.050367,119.61461 752.180233,119.946108 C1031.73311,119.61461 1062.95309,429.80909 904.796512,537.94012 C747.355427,646.459807 93.9514399,652.724681 15.2616279,366.380838 Z" id="path-1"></path>
        <linearGradient x1="50%" y1="0%" x2="50%" y2="100%" id="linearGradient-3">
            <stop stop-color="#393E41" stop-opacity="0" offset="0%"></stop>
            <stop stop-color="#000000" stop-opacity="0.2" offset="100%"></stop>
        </linearGradient>
        <path d="M231.784035,118.805756 C231.784035,75.5961368 196.698448,40.5678192 153.418182,40.5678192 C110.137916,40.5678192 75.0523282,75.5961368 75.0523282,118.805756 L75.0523282,206.393016 L231.784035,210.042741 L231.784035,118.805756 Z M272.418182,118.805756 L272.418182,211 L34.4181818,205.457825 L34.4181818,118.805756 C34.4181818,53.1911489 87.6962966,0 153.418182,0 C219.140067,0 272.418182,53.1911489 272.418182,118.805756 Z" id="path-4"></path>
        <linearGradient x1="50%" y1="0%" x2="50%" y2="100%" id="linearGradient-5">
            <stop stop-color="#FFC62C" stop-opacity="0" offset="0%"></stop>
            <stop stop-color="#FF6663" stop-opacity="0.3" offset="100%"></stop>
        </linearGradient>
        <circle id="path-6" cx="154.418182" cy="293" r="154"></circle>
        <linearGradient x1="50%" y1="0%" x2="50%" y2="100%" id="linearGradient-7">
            <stop stop-color="#393E41" stop-opacity="0" offset="0%"></stop>
            <stop stop-color="#000000" stop-opacity="0.2" offset="100%"></stop>
        </linearGradient>
        <path d="M127.736932,280.149172 C121.350595,273.55288 117.418182,264.551235 117.418182,254.627907 C117.418182,234.398873 133.759788,218 153.918182,218 C174.076575,218 190.418182,234.398873 190.418182,254.627907 C190.418182,264.551235 186.485769,273.55288 180.099431,280.149172 L188.556307,326.259217 C192.077186,345.456363 179.423405,363.882963 160.293297,367.41618 C158.190325,367.804586 156.056475,368 153.918182,368 C134.466765,368 118.698275,352.176253 118.698275,332.656672 C118.698275,330.510886 118.893006,328.369558 119.280056,326.259217 L127.736932,280.149172 L127.736932,280.149172 Z" id="path-8"></path>
    </defs>
    <g id="is-locked" stroke="none" stroke-width="1" fill="none" fill-rule="evenodd">
        <g id="Tropic" transform="translate(0.000000, 129.000000)">
            <mask id="mask-2" fill="white">
                <use xlink:href="#path-1"></use>
            </mask>
            <use id="Bg" fill="#EDF1F6" xlink:href="#path-1"></use>
            <path d="M1081.84615,559 C963.355286,545.577672 946.33726,516.395479 943.811966,482.776151 C941.10776,448.967356 954.269205,442.472525 946.717949,421.07113 C939.653676,400.248555 872.725491,412.918726 864.623932,379.692469 C857.387141,346.895069 926.38165,342.516603 903.128205,320.891213 C878.68829,299.671331 840.96286,328.319079 789.794872,302.742678 C738.990691,276.806902 783.834632,186.114571 856.632479,219.259414 C929.666092,252.44724 927.89132,303.003031 951.076923,283.868201 C975.201855,265.134928 985.902103,229.197397 1014.28205,250.474895 C1042.80971,271.442146 1001.20767,349.053949 1025.17949,370.981172 C1049.20348,392.170931 1156.92906,378.274887 1081.84615,559 Z" id="Flower" fill="#D3E0F1" mask="url(#mask-2)"></path>
            <path d="M636.198113,-80.5094851 C659.125972,-72.6141293 847.35042,-53.8856917 794.556604,29.1598916 C742.18929,111.887505 703.761238,6.33180016 674.698113,-0.617886179 C646.354036,-7.96761438 778.390734,77.8055228 721.915094,149.723577 C664.957031,221.547648 684.503421,143.226991 636.924528,100.336043 C589.049999,56.8591703 720.812673,193.428485 639.830189,242.688347 C558.90868,291.764347 626.522678,185.306346 587.528302,175.869919 C549.23633,166.055285 624.313663,264.742735 539.584906,307.327913 C455.373064,349.615913 520.408295,250.216044 491.641509,242.688347 C462.722314,235.847189 499.898481,352.216328 437.160377,348 C374.006894,343.547282 347.529461,274.541855 401.566038,220.899729 C455.562983,166.676127 361.267312,222.898938 345.632075,182.406504 C329.973565,141.463287 365.900032,138.979232 437.160377,115.588076 C507.74041,91.6885796 343.715287,133.45329 375.415094,63.295393 C406.818238,-6.67146577 476.370775,53.6770334 503.264151,13.1815718 C530.528474,-26.9733778 413.589154,38.0389184 403.018868,-11.5121951 C392.519188,-61.3497618 484.353253,-129.151587 526.509434,-79.0569106 C568.739476,-29.2379529 573.919691,-78.1933884 524.330189,-108.108401 C474.791124,-138.156439 509.394415,-199.071073 560.650943,-186.547425 C612.317786,-173.434151 613.933156,-87.8533447 636.198113,-80.5094851 Z" id="Flowers" fill="#E2EAF5" mask="url(#mask-2)"></path>
            <path d="M-120.739814,360.204322 C-118.460504,332.190412 -150.70051,111.606973 -40.8044355,148.080699 C69.0916394,184.554425 -40.8028303,258.620189 -40.8023241,293.483715 C-40.8018178,328.347242 19.7451022,152.883228 118.208803,197.230393 C216.672503,241.577557 121.425697,241.576174 85.5949049,308.476133 C49.764113,375.376092 168.547499,185.729731 247.929616,264.269121 C327.311733,342.808512 186.140304,295.870284 186.140985,342.806463 C186.141667,389.742641 277.719818,275.72759 350.39843,360.211162 C423.077042,444.694733 290.722196,398.691205 290.722705,433.724036 C290.723214,468.756866 413.355407,393.036833 426.345214,466.253712 C439.33502,539.470591 367.879841,589.440203 290.724293,543.061631 C213.568744,496.683059 304.833942,588.467993 262.677276,617.980186 C220.52061,647.492379 207.430066,607.118528 160.130805,532.767354 C112.831545,458.41618 207.430457,634.064222 118.214913,617.978089 C28.9993685,601.891956 78.2576273,505.135416 24.3648295,485.677738 C-29.5279683,466.22006 78.2587346,581.390263 24.3666002,607.618521 C-29.5255341,633.84678 -133.345882,548.18105 -88.1823349,485.676104 C-43.0187876,423.171158 -100.547002,431.217871 -120.737836,496.451573 C-140.92867,561.685274 -220.541949,539.49883 -220.541949,476.993228 C-220.541949,414.487627 -123.019125,388.218231 -120.739814,360.204322 Z" id="Flowers" fill="#E2EAF5" mask="url(#mask-2)" transform="translate(103.669897, 385.858884) rotate(-93.000000) translate(-103.669897, -385.858884) "></path>
            <path d="M997.60464,712.697429 C887.840437,766.356944 852.888113,745.613638 827.081538,711.961681 C800.990109,678.214124 807.560131,663.917813 786.100226,645.890123 C765.460103,628.188527 717.718602,679.637507 687.467879,649.580495 C658.251195,619.47728 713.579571,575.503665 678.668463,566.209745 C643.038373,558.016719 631.268508,609.466367 569.943299,611.990229 C508.673083,613.931179 482.788913,493.649722 567.754336,486.673411 C652.94962,479.607321 687.039345,533.394506 693.197038,500.178855 C700.432672,466.845922 684.190811,423.220901 723.197105,429.2239 C762.110034,434.81868 781.529856,539.594324 817.261639,548.793051 C852.518403,557.192167 933.936029,481.163964 997.60464,712.697429 Z" id="Flowers" fill="#E2EAF5" mask="url(#mask-2)" transform="translate(755.558948, 587.109274) rotate(135.000000) translate(-755.558948, -587.109274) "></path>
            <path d="M929.166667,563.093333 C929.949454,563.049421 930.23383,563.465713 930.622807,563.82 C952.749996,596.496504 944.367539,640.651167 912.421053,662.646667 C911.485337,663.026972 911.046321,663.318628 910.964912,663.373333 C877.670303,684.960936 833.639344,675.622607 811.947368,643.026667 C811.974024,642.310702 811.694677,641.870651 811.219298,641.573333 C800.800292,624.322965 791.03975,608.158089 782.096491,592.16 L804.666667,566 L771.175439,573.266667 C753.966525,543.952421 739.83815,517.229895 728.219298,494.06 L742.052632,470.08 L718.026316,471.533333 C690.00184,405.669046 686.509224,366.188583 707.833333,352.36 C732.956739,336.070209 776.555676,365.220774 838.157895,440.286667 L819.22807,464.993333 L851.991228,455.546667 C872.731814,482.323969 895.85858,513.709171 920.429825,550.013333 L905.868421,568.906667 L929.166667,563.093333 Z" id="Flowers" fill="#D3E0F1" mask="url(#mask-2)"></path>
            <path d="M1100,307.149937 C990.26928,360.809073 955.322365,340.055161 929.517237,306.390292 C903.427309,272.629757 909.993788,258.330398 888.536468,240.29473 C867.898782,222.585361 820.175748,274.041966 789.928025,243.97242 C760.71409,213.856803 816.023238,169.878689 781.119118,160.577342 C745.49634,152.377096 733.736411,203.839367 672.426096,206.355408 C611.170681,208.288383 585.275946,87.9699948 670.220249,81.0035554 C755.394348,73.947344 789.483458,127.754173 795.635077,94.5301719 C802.864367,61.1890066 786.6203,17.5496386 825.618177,23.5597202 C864.522654,29.1614577 883.952421,133.968837 919.677007,143.175078 C954.926576,151.58142 1036.31434,75.5434595 1100,307.149937 Z" id="Flowers" fill="#B6C5D9" mask="url(#mask-2)"></path>
            <path d="M696.005803,685.800423 C586.2416,739.459938 551.289276,718.716632 525.482701,685.064675 C499.391272,651.317118 505.961294,637.020807 484.501389,618.993117 C463.861266,601.291521 416.119765,652.740501 385.869041,622.683489 C356.652358,592.580274 411.980734,548.606659 377.069626,539.312739 C341.439535,531.119713 329.669671,582.569361 268.344462,585.093223 C207.074246,587.034173 181.190076,466.752716 266.155498,459.776405 C351.350783,452.710315 385.440508,506.4975 391.5982,473.281849 C398.833835,439.948916 382.591974,396.323895 421.598268,402.326894 C460.511197,407.921674 479.931019,512.697318 515.662802,521.896045 C550.919566,530.295161 632.337192,454.266958 696.005803,685.800423 Z" id="Flowers" fill="#B6C5D9" mask="url(#mask-2)" transform="translate(453.960111, 560.212268) rotate(135.000000) translate(-453.960111, -560.212268) "></path>
            <path d="M225.66989,574.531918 C225.633664,574.939168 225.644101,575.39725 225.670068,575.855914 C226.435951,611.720247 198.195407,641.24316 162.784938,642.047255 C162.082605,642.041836 161.603965,642.047255 161.460852,642.047255 C125.47829,642.042227 96.5767769,613.144131 96.5717488,577.82451 C96.5717488,577.027601 96.5770618,576.55389 96.5717488,575.838515 C96.9690749,557.785132 97.5398296,540.631586 98.5509173,524.202925 L129.003631,514.939055 L99.2102832,504.34307 C101.097298,473.337286 103.568918,445.973016 106.481689,422.256278 L128.989622,411.005343 L109.788868,399.748786 C120.851489,336.256894 137.73666,304.42792 160.753305,304.42792 C188.010715,304.431594 206.775459,348.223244 217.044598,435.511142 L189.902187,445.437456 L219.033313,454.709357 C222.031492,485.084901 224.102872,520.455101 225.005973,560.629867 L204.483632,567.909081 L225.66989,574.531918 L225.66989,574.531918 Z" id="Flowers" fill="#D3E0F1" mask="url(#mask-2)" transform="translate(161.128517, 473.237587) rotate(52.000000) translate(-161.128517, -473.237587) "></path>
            <path d="M-1.59057898,207.763885 C-0.370601985,192.762731 -17.6219339,74.643006 41.1880079,94.1734257 C99.9979497,113.703845 41.1880079,153.366091 41.1880079,172.035122 C41.1880079,190.704152 73.5906925,96.7446556 126.282607,120.491303 C178.974521,144.23795 128.003763,144.23795 108.82861,180.062412 C89.653457,215.886873 153.221147,114.332435 195.701401,156.388787 C238.181654,198.445139 162.634975,173.311338 162.634975,198.445139 C162.634975,223.57894 211.643359,162.524438 250.536226,207.763885 C289.429093,253.003332 218.600549,228.369984 218.600549,247.129674 C218.600549,265.889364 284.22702,225.341177 291.177868,264.547899 C298.128716,303.754621 259.889517,330.513348 218.600549,305.678739 C177.31158,280.84413 226.15089,329.99323 203.590774,345.797009 C181.030657,361.600787 174.025645,339.981141 148.714307,300.167283 C123.402969,260.353425 174.025645,354.41026 126.282607,345.797009 C78.5395683,337.183757 104.900582,285.371325 76.0603257,274.952374 C47.2200694,264.533423 104.900582,326.204946 76.0603257,340.250305 C47.2200694,354.295665 -8.33810135,308.423427 15.8313858,274.952374 C40.000873,241.48132 9.21493157,245.790692 -1.59057898,280.72277 C-12.3960895,315.654848 -55,303.774873 -55,270.30382 C-55,236.832766 -2.81055598,222.765039 -1.59057898,207.763885 Z" id="Flowers" fill="#B6C5D9" mask="url(#mask-2)"></path>
            <circle id="Detail" fill="#D3E0F1" mask="url(#mask-2)" cx="333.5" cy="263.5" r="15.5"></circle>
            <circle id="Detail" fill="#B6C5D9" mask="url(#mask-2)" cx="302.5" cy="472.5" r="15.5"></circle>
            <circle id="Detail" fill="#D3E0F1" mask="url(#mask-2)" cx="693.5" cy="206.5" r="15.5"></circle>
            <circle id="Detail" fill="#E2EAF5" mask="url(#mask-2)" cx="913.5" cy="276.5" r="15.5"></circle>
            <circle id="Detail" fill="#B6C5D9" mask="url(#mask-2)" cx="453.5" cy="319.5" r="15.5"></circle>
            <circle id="Detail" fill="#B6C5D9" mask="url(#mask-2)" cx="647.5" cy="559.5" r="15.5"></circle>
            <circle id="Detail" fill="#B6C5D9" mask="url(#mask-2)" cx="795.5" cy="385.5" r="15.5"></circle>
        </g>
        <g id="Books" transform="translate(346.000000, 209.000000)">
            <g id="Detail" fill-rule="nonzero">
                <use fill="#393E41" xlink:href="#path-4"></use>
                <use fill="url(#linearGradient-3)" xlink:href="#path-4"></use>
            </g>
            <g id="Detail">
                <use fill="#FFC62C" xlink:href="#path-6"></use>
                <use fill="url(#linearGradient-5)" xlink:href="#path-6"></use>
            </g>
            <g id="Detail">
                <use fill="#393E41" xlink:href="#path-8"></use>
                <use fill="url(#linearGradient-7)" xlink:href="#path-8"></use>
            </g>
        </g>
    </g>
</svg>