<?xml version="1.0" encoding="UTF-8"?>
<svg width="1000px" height="800px" viewBox="0 0 1000 800" version="1.1" xmlns="http://www.w3.org/2000/svg" xmlns:xlink="http://www.w3.org/1999/xlink">
    <title>no-activities</title>
    <defs>
        <linearGradient x1="50%" y1="0%" x2="50%" y2="100%" id="linearGradient-1">
            <stop stop-color="#FFC62C" stop-opacity="0" offset="0%"></stop>
            <stop stop-color="#FF6663" stop-opacity="0.3" offset="100%"></stop>
        </linearGradient>
        <path d="M175.416012,65.7827637 C175.416012,47.9057763 156.929809,17.4771185 160.691964,14.8335099 C168.671511,9.22640502 181.028614,34.4385078 183.894762,41.7989883 C186.76091,49.1594688 174.202942,0 180.014761,0 C189.760438,0 193.489453,29.6172831 193.489453,33.6106775 C193.489453,37.6040719 205.463381,23.5647978 218.272486,36.3390861 C231.081592,49.1133744 175.416012,68.2524866 175.416012,65.7827637 Z" id="path-2"></path>
        <linearGradient x1="50%" y1="0%" x2="50%" y2="100%" id="linearGradient-3">
            <stop stop-color="#A7A7EE" stop-opacity="0" offset="0%"></stop>
            <stop stop-color="#4C55A0" stop-opacity="0.2" offset="100%"></stop>
        </linearGradient>
        <path d="M105.829715,265.647132 C110.639865,269.122323 123.472362,267.269636 131.173091,270.541147 C140.671266,273.997964 150.080975,293.379032 135.396987,295.990025 C120.008575,297.059693 97.3410196,293.379032 88.0893516,289.138404 C78.7201414,285.257908 80.3300126,273.542346 81.331118,264.668329 C84.1762972,266.529476 88.4433363,267.45143 94.0028061,267.604738 C99.0274804,267.45143 102.995285,266.797863 105.829715,265.647132 Z" id="path-4"></path>
        <linearGradient x1="50%" y1="0%" x2="50%" y2="100%" id="linearGradient-5">
            <stop stop-color="#A7A7EE" stop-opacity="0" offset="0%"></stop>
            <stop stop-color="#4C55A0" stop-opacity="0.2" offset="100%"></stop>
        </linearGradient>
        <path d="M39.2310328,264.668329 C38.4408009,268.1534 38.4623589,272.780628 40.1433824,278.574189 C41.9855846,289.188034 30.635842,315.660242 14.5975936,313.338837 C-2.09787335,310.313052 -3.50093331,289.188034 5.47409761,281.181537 C13.094061,274.752864 14.1723894,270.782864 14.5975936,265.537445 C17.2767967,266.167674 20.9375679,266.554176 25.5457888,266.406562 C31.0542964,266.554176 35.5061522,265.923312 39.2310328,264.668329 Z" id="path-6"></path>
        <linearGradient x1="50%" y1="0%" x2="50%" y2="100%" id="linearGradient-7">
            <stop stop-color="#403F9F" stop-opacity="0" offset="0%"></stop>
            <stop stop-color="#000000" stop-opacity="0.2" offset="100%"></stop>
        </linearGradient>
        <path d="M10.9398907,20.3591022 C22.410036,-14.2185655 86.3127386,1.66914633 96.8961749,20.3591022 C104.682614,33.5913541 109.129492,110.444594 121.901639,257.620948 C119.919453,265.403994 112.514657,269.835872 100.021858,270.932668 C86.8598471,272.694337 78.6834626,270.723642 75.0163934,265.451372 L58.6065574,95.5311721 L48.4480874,263.102244 C47.6883122,268.586804 39.8977221,271.265104 25.7868852,270.932668 C10.8961939,271.265104 3.10560381,268.586804 2.3442623,263.102244 C2.02518762,134.373663 -4.03653046,63.5996144 10.9398907,20.3591022 Z" id="path-8"></path>
        <linearGradient x1="50%" y1="0%" x2="50%" y2="100%" id="linearGradient-10">
            <stop stop-color="#A7A7EE" stop-opacity="0" offset="0%"></stop>
            <stop stop-color="#4C55A0" stop-opacity="0.2" offset="100%"></stop>
        </linearGradient>
        <path d="M50.028169,0.785714286 C6.41230161,6.26368748 0,92.1214723 0,109.214286 C0,126.579825 86.7676056,122.910384 86.7676056,109.214286 C86.7676056,100.596775 94.8450704,69.4301083 111,15.7142857 C99.4499759,2.65074181 79.1260323,-2.32544866 50.028169,0.785714286 Z" id="path-11"></path>
        <linearGradient x1="46.6349958%" y1="0%" x2="53.3650042%" y2="100%" id="linearGradient-13">
            <stop stop-color="#464D89" stop-opacity="0.3" offset="0%"></stop>
            <stop stop-color="#A7A7EE" stop-opacity="0" offset="100%"></stop>
        </linearGradient>
        <linearGradient x1="37.7543431%" y1="0%" x2="62.2456569%" y2="100%" id="linearGradient-14">
            <stop stop-color="#464D89" stop-opacity="0.3" offset="0%"></stop>
            <stop stop-color="#A7A7EE" stop-opacity="0" offset="100%"></stop>
        </linearGradient>
        <linearGradient x1="50%" y1="0%" x2="50%" y2="100%" id="linearGradient-15">
            <stop stop-color="#403F9F" stop-opacity="0" offset="0%"></stop>
            <stop stop-color="#000000" stop-opacity="0.1" offset="100%"></stop>
        </linearGradient>
        <path d="M234.032288,567.018062 C242.518584,571.082518 258.620517,593.559278 253.03561,606.387876 C246.868467,620.553873 221.903617,612.235054 215.879749,603.306714 C209.85588,594.378374 213.05078,570.412825 212.900648,566 C218.552145,569.400626 228.077967,573.16216 234.032288,567.018062 Z" id="path-16"></path>
        <linearGradient x1="50%" y1="0%" x2="50%" y2="100%" id="linearGradient-17">
            <stop stop-color="#403F9F" stop-opacity="0" offset="0%"></stop>
            <stop stop-color="#000000" stop-opacity="0.1" offset="100%"></stop>
        </linearGradient>
        <path d="M308.974933,566.027802 C317.443098,570.131142 340.913884,585.363721 335.340909,598.31505 C329.186942,612.616574 300.573802,604.218169 294.562803,595.204411 C288.551805,586.190653 284.336624,569.455042 284.186813,565 C289.826236,568.43316 303.033333,572.230681 308.974933,566.027802 Z" id="path-18"></path>
        <linearGradient x1="50%" y1="0%" x2="50%" y2="100%" id="linearGradient-19">
            <stop stop-color="#1F1845" stop-opacity="0" offset="0%"></stop>
            <stop stop-color="#000000" stop-opacity="0.2" offset="100%"></stop>
        </linearGradient>
        <path d="M231.809484,39 C140.872355,39 156.153747,136.814206 156.153747,172.156444 C156.153747,207.244823 162.592097,284.607066 212.191524,289.109296 C261.55398,294.10548 288.641573,278.342053 295.965042,235.260564 C303.990988,192.503663 322.746613,39 231.809484,39 Z" id="path-20"></path>
        <linearGradient x1="50%" y1="0%" x2="50%" y2="100%" id="linearGradient-21">
            <stop stop-color="#FF6663" stop-opacity="0" offset="0%"></stop>
            <stop stop-color="#000000" stop-opacity="0.05" offset="100%"></stop>
        </linearGradient>
        <path d="M383.122467,96.3392317 C382.497063,101.09115 382.024018,105.477337 381.703332,109.497792 C364.375079,112.65979 357.416028,110.83002 360.82618,104.008481 C365.868668,95.2489043 366.354767,97.1759303 364.56637,93.5983228 C365.837482,93.2597372 367.040437,92.5876066 368.040532,91.5813867 L373.701842,85.8854032 C375.766136,76.4501062 382.565453,67.7447573 379.114348,64.6610013 C375.071515,61.0485023 372.38939,69.5451876 364.476904,64.6610013 C356.564419,59.776815 353.418052,40.734913 359.03698,36.5178429 C364.655907,32.3007728 378.655928,37.9135811 382.997098,40.734913 C387.338269,43.5562448 386.210409,61.0335747 389.423719,69.8259792 C392.637029,78.6183838 384.757319,82.2389804 383.249787,95.3824211 C383.211778,95.7138089 383.169253,96.032665 383.122467,96.3392317 L383.122467,96.3392317 Z" id="path-22"></path>
        <linearGradient x1="50%" y1="0%" x2="50%" y2="100%" id="linearGradient-23">
            <stop stop-color="#1F1845" stop-opacity="0" offset="0%"></stop>
            <stop stop-color="#000000" stop-opacity="0.2" offset="100%"></stop>
        </linearGradient>
        <path d="M295.09336,312.434169 C311.863769,356.050176 315.030564,537.995194 314.016391,558.211124 C313.828057,577.480482 282.479783,572.544004 278.240584,566.338929 C274.576604,559.155728 257.047787,378.541378 252.806721,378.573236 C248.770305,378.541378 245.569284,555.303903 241.719448,566.338929 C236.702449,576.395829 211.869365,573.961894 208.179628,566.338929 C202.989315,557.737838 176.918977,375.653035 204.996265,312.434169 C208.062568,305.530077 291.207739,302.328555 295.09336,312.434169 Z" id="path-24"></path>
        <linearGradient x1="50%" y1="0%" x2="50%" y2="100%" id="linearGradient-25">
            <stop stop-color="#403F9F" stop-opacity="0" offset="0%"></stop>
            <stop stop-color="#000000" stop-opacity="0.1" offset="100%"></stop>
        </linearGradient>
        <path d="M110.513514,90.0508475 C120.573306,80.601607 171.66949,75.5782563 184.189189,60.2949153 C187.286032,48.1559135 203.757127,12.7210403 210.837838,3.91525424 C216.926633,-4.09822966 232,1.48790344 232,9.39661017 C232,17.3142858 218.155437,78.5103183 207.702703,88.4847458 C198.201525,96.8842045 168.976687,112.364921 152.837838,122.155932 C153.081084,126.683023 152.665742,132.220909 152.054054,138.6 C145.51405,183.334944 139.733484,183.334944 145.783784,212.20678 C151.79414,242.043223 45.0046804,229.864446 55.6486486,212.20678 C66.2926169,194.549114 67.7241981,182.192791 64.2702703,170.705085 C63.1514853,164.698852 57.5539209,154.351815 54.0810811,143.298305 C32.8814705,135.704079 3.34871431,130.889103 0.783783784,126.854237 C-1.00297913,122.215284 12.4232637,101.717483 21.1621622,101.013559 C29.9974082,99.9147495 64.7021226,95.8277032 87,93.1830508 C89.6231378,92.1521855 110.067128,91.0121972 110.513514,90.0508475 Z" id="path-26"></path>
        <linearGradient x1="0%" y1="33.4452802%" x2="100%" y2="66.5547198%" id="linearGradient-28">
            <stop stop-color="#000000" stop-opacity="0.288581295" offset="0%"></stop>
            <stop stop-color="#3E3D9C" stop-opacity="0" offset="100%"></stop>
        </linearGradient>
        <path d="M21.1621622,120.589831 C14.0852945,123.307385 7.25574357,124.499181 0.791880381,124.42266 C2.30005242,117.372454 13.5223343,101.628952 21.1621622,101.013559 C25.318652,100.496631 35.2005128,99.3183524 46.8225072,97.9400313 C42.3993759,106.829613 34.4947918,115.582409 21.1621622,120.589831 Z" id="path-29"></path>
        <linearGradient x1="50%" y1="0%" x2="50%" y2="100%" id="linearGradient-31">
            <stop stop-color="#FFC62C" stop-opacity="0" offset="0%"></stop>
            <stop stop-color="#FF6663" stop-opacity="0.3" offset="100%"></stop>
        </linearGradient>
        <path d="M25.9465649,106.696133 C25.5538209,112.652627 18.6477925,118.891733 15.7251908,119.248619 C12.6652705,118.891733 15.5407082,106.960893 10.221374,106.696133 C4.16988786,106.960893 -3.20579413,122.14394 1.57251908,131.801105 C6.19939814,141.437449 20.4875826,144.451466 31.4503817,139.646409 C42.6732718,135.469343 44.8167939,112.43453 44.8167939,106.696133 C44.8167939,101.487257 25.5538209,101.26916 25.9465649,106.696133 Z" id="path-32"></path>
        <linearGradient x1="50%" y1="0%" x2="50%" y2="100%" id="linearGradient-33">
            <stop stop-color="#A7A7EE" stop-opacity="0" offset="0%"></stop>
            <stop stop-color="#4C55A0" stop-opacity="0.2" offset="100%"></stop>
        </linearGradient>
        <path d="M94.351145,0 C70.7969633,0 3.14503817,18.5525041 3.14503817,34.519337 C3.14503817,50.7668426 26.2963486,99.7507873 25.9465649,106.696133 C26.2963486,113.465747 44.8362944,110.142261 44.8167939,106.696133 C44.8362944,103.074274 38.7718719,57.6077943 34.5954198,53.3480663 C30.2396864,49.1970884 58.7712765,57.1838996 71.5496183,49.4254144 C84.2730311,41.7776225 118.912531,0 94.351145,0 Z" id="path-34"></path>
        <linearGradient x1="50%" y1="0%" x2="50%" y2="100%" id="linearGradient-35">
            <stop stop-color="#FF6663" stop-opacity="0" offset="0%"></stop>
            <stop stop-color="#000000" stop-opacity="0.05" offset="100%"></stop>
        </linearGradient>
        <path d="M0.0247203182,0.276290522 L31.9525819,0.276290522 L31.9525819,28.2701582 C31.9525819,37.0867937 24.8052867,44.234089 15.9886511,44.234089 C7.1720156,44.234089 0.0247203182,37.0867937 0.0247203182,28.2701582 L0.0247203182,0.276290522 L0.0247203182,0.276290522 Z" id="path-36"></path>
        <linearGradient x1="100%" y1="15.4469306%" x2="0%" y2="84.5530694%" id="linearGradient-37">
            <stop stop-color="#000000" stop-opacity="0.3" offset="0%"></stop>
            <stop stop-color="#FF6663" stop-opacity="0" offset="100%"></stop>
        </linearGradient>
        <linearGradient x1="50%" y1="0%" x2="50%" y2="100%" id="linearGradient-38">
            <stop stop-color="#FF6663" stop-opacity="0" offset="0%"></stop>
            <stop stop-color="#000000" stop-opacity="0.05" offset="100%"></stop>
        </linearGradient>
        <path d="M6.72732508,53.0656919 C6.79140737,43.9639418 0,41.1450639 0,35.3771279 C0,29.2911492 6.18771307,26.8086407 9.51457972,30.7050218 C9.58069396,30.5405489 9.64825786,30.3781801 9.71724734,30.2179634 C12.7341708,23.7808629 12.9259835,27.2816806 35.3398109,21.0426806 C58.303484,12.8568658 65.6902538,-5.42829904 84.3512041,2.56621665 C84.451022,5.94377104 87.9447198,16.6444791 89.8036556,24.4859367 C90.6148815,27.907891 97.2468932,32.3502098 98.6955445,47.8192799 C100.144196,63.28835 88.6943785,84.4863161 64.7964202,89.2734771 C50.7316446,92.090887 24.3452412,87.0730398 12.1845697,62.4927856 C9.44372498,62.2738056 6.77493567,59.6272663 6.72732508,53.0656919 Z" id="path-39"></path>
        <linearGradient x1="87.6734232%" y1="41.1230768%" x2="0%" y2="61.556523%" id="linearGradient-41">
            <stop stop-color="#000000" stop-opacity="0.2" offset="0%"></stop>
            <stop stop-color="#FF6663" stop-opacity="0" offset="100%"></stop>
        </linearGradient>
        <linearGradient x1="50%" y1="0%" x2="50%" y2="100%" id="linearGradient-42">
            <stop stop-color="#FFC62C" stop-opacity="0" offset="0%"></stop>
            <stop stop-color="#FF6663" stop-opacity="0.3" offset="100%"></stop>
        </linearGradient>
        <path d="M0,0.0431719 L28.3344721,0.0431719 L28.3344721,21.5342353 C28.3344721,29.3585837 21.9915845,35.7014713 14.1672361,35.7014713 C6.34288763,35.7014713 -8.18150515e-16,29.3585837 0,21.5342353 L0,0.0431719 L0,0.0431719 Z" id="path-43"></path>
        <linearGradient x1="60.7367065%" y1="0%" x2="39.2632935%" y2="100%" id="linearGradient-45">
            <stop stop-color="#000000" stop-opacity="0.2" offset="0%"></stop>
            <stop stop-color="#FFC42C" stop-opacity="0" offset="100%"></stop>
        </linearGradient>
        <linearGradient x1="50%" y1="0%" x2="50%" y2="100%" id="linearGradient-46">
            <stop stop-color="#403F9F" stop-opacity="0" offset="0%"></stop>
            <stop stop-color="#000000" stop-opacity="0.1" offset="100%"></stop>
        </linearGradient>
        <path d="M7.50517495,0 C-12.5405387,12.7098694 12.378327,38.8052258 26.3105637,59.207006 C27.227695,60.5500144 43.2449771,56.7227496 42.5209271,53.3284814 C40.841693,45.4564124 41.1274845,36.6484702 35.3778302,24.8180816 C27.1490478,7.8866819 26.2655407,6.30807355 7.50517495,0 Z" id="path-47"></path>
        <linearGradient x1="50%" y1="0%" x2="50%" y2="100%" id="linearGradient-48">
            <stop stop-color="#FF6663" stop-opacity="0" offset="0%"></stop>
            <stop stop-color="#000000" stop-opacity="0.05" offset="100%"></stop>
        </linearGradient>
        <path d="M42.5209271,53.3284814 C43.2449771,56.7227496 44.3343548,59.943025 46.430399,63.1565725 C53.3876396,73.8230575 61.263133,93.1610143 53.462693,106.232947 C45.662253,119.30488 30.8987988,116.736789 27.7646414,106.232947 C24.630484,95.7291053 41.9524511,84.0143052 28.9031713,63.1565725 C28.0972176,61.8683507 27.227695,60.5500144 26.3105637,59.207006 C27.227695,60.5500144 43.2449771,56.7227496 42.5209271,53.3284814 L42.5209271,53.3284814 Z" id="path-49"></path>
        <linearGradient x1="50%" y1="0%" x2="50%" y2="100%" id="linearGradient-50">
            <stop stop-color="#FFC62C" stop-opacity="0" offset="0%"></stop>
            <stop stop-color="#FF6663" stop-opacity="0.3" offset="100%"></stop>
        </linearGradient>
        <path d="M0.783216783,86.2745098 C-3.0731171,75.3751909 5.97895581,69.1967742 10.1818182,69.0196078 C1.62425728,50.8979955 -1.5626029,26.8763609 28.979021,7.84313725 C59.3382363,-11.167388 85.2925912,7.20888492 95.5524476,32.9411765 C104.481319,55.1913237 112.439581,62.2521263 112,74.5098039 C111.522645,86.8864717 104.855397,107.269075 81.4545455,116.078431 C57.5103996,125.294605 36.3994994,116.990918 22.7132867,101.176471 C13.4862212,104.966844 5.10891703,96.5159404 0.783216783,86.2745098 Z" id="path-51"></path>
        <linearGradient x1="100%" y1="10.7998498%" x2="0%" y2="89.2001502%" id="linearGradient-53">
            <stop stop-color="#000000" stop-opacity="0.3" offset="0%"></stop>
            <stop stop-color="#FFC42C" stop-opacity="0" offset="100%"></stop>
        </linearGradient>
        <linearGradient x1="50%" y1="0%" x2="50%" y2="100%" id="linearGradient-54">
            <stop stop-color="#403F9F" stop-opacity="0" offset="0%"></stop>
            <stop stop-color="#000000" stop-opacity="0.3" offset="100%"></stop>
        </linearGradient>
        <path d="M177.521673,109.150125 C181.540747,112.016392 184.186813,116.715773 184.186813,121.961832 C184.186813,126.76232 182.226767,130.935511 178.786701,133.844957 C178.234646,132.561268 177.676929,131.22277 177.115385,129.824427 C175.420179,125.575757 173.297875,121.527125 170.799075,117.813039 C166.894653,120.917527 161.975184,122.772783 156.686813,122.772783 C154.162007,122.772783 151.740342,122.39877 149.474798,121.705598 C144.864107,126.840837 138.389125,130.367351 131.082959,131.224036 C127.311538,141.653731 118.63043,149.846095 107.915358,152.921952 C107.953205,153.35595 107.972527,153.795263 107.972527,154.239095 C107.972527,162.493818 101.288778,169.185593 93.043956,169.185593 C90.8148642,169.185593 88.6998805,168.696452 86.8002413,167.819526 C84.1261543,169.611088 81.5755957,172.719672 81.1638856,177 C70.3932961,171.023266 63.1868132,159.654457 63.1868132,146.372517 C63.1868132,141.638768 64.160684,137.116074 65.9269447,132.992906 C64.1601682,128.868708 63.1868132,124.349008 63.1868132,119.626152 C63.1868132,99.8993931 78.8408571,84.2265513 98.543956,84.2265513 C100.721343,84.2265513 102.855496,84.4341845 104.927524,84.8317337 C110.255481,78.199261 118.438917,74 127.615385,74 C134.2651,74 140.393358,76.205098 145.291454,79.943269 C148.652701,78.1604457 152.529968,77.1466312 156.686813,77.1466312 C169.095128,77.1466312 179.472527,87.3603932 179.472527,99.9597072 C179.472527,103.229454 178.773615,106.338535 177.521673,109.150125 L177.521673,109.150125 Z" id="path-55"></path>
    </defs>
    <g id="no-activities" stroke="none" stroke-width="1" fill="none" fill-rule="evenodd">
        <rect fill="#F4F5F8" x="0" y="0" width="1000" height="800"></rect>
        <g id="Park" transform="translate(1.000000, 168.000000)">
            <path d="M218.926531,18.2210031 C429.249103,-67.6540021 579.744622,177.154556 795.549388,177.10815 C1011.78646,177.154556 1011.78646,350.959509 958.840816,403.048589 C923.099075,438.213011 882.033225,458.863481 835.643265,465 L154.047347,465 C57.4991865,224.493362 79.1255811,75.5670293 218.926531,18.2210031 Z" id="Bg" fill="#EDF1F6"></path>
            <path d="M330.242924,49.2492252 C331.469419,50.8105827 331.174515,53.052502 329.584237,54.2566922 C327.993959,55.4608824 325.710514,55.1713411 324.484019,53.6099837 C315.562367,42.2525054 305.96036,42.2525054 293.52109,54.0024415 C292.090239,55.3540012 289.819688,55.3288211 288.420295,53.9458744 C276.58413,42.2488092 266.973753,42.2488092 257.452237,53.6887278 C256.181447,55.215557 253.890603,55.4418526 252.335493,54.1941733 C250.780384,52.9464939 250.549896,50.6973103 251.820686,49.1704811 C263.474951,35.1681049 277.14897,34.3684503 291.051417,46.5559584 C305.499098,34.3629299 319.168008,35.1505899 330.242924,49.2492252 Z" id="Detail" fill="#B6C5D9" fill-rule="nonzero"></path>
            <path d="M264.242924,85.2492252 C265.469419,86.8105827 265.174515,89.052502 263.584237,90.2566922 C261.993959,91.4608824 259.710514,91.1713411 258.484019,89.6099837 C249.562367,78.2525054 239.96036,78.2525054 227.52109,90.0024415 C226.090239,91.3540012 223.819688,91.3288211 222.420295,89.9458744 C210.58413,78.2488092 200.973753,78.2488092 191.452237,89.6887278 C190.181447,91.215557 187.890603,91.4418526 186.335493,90.1941733 C184.780384,88.9464939 184.549896,86.6973103 185.820686,85.1704811 C197.474951,71.1681049 211.14897,70.3684503 225.051417,82.5559584 C239.499098,70.3629299 253.168008,71.1505899 264.242924,85.2492252 Z" id="Detail" fill="#B6C5D9" fill-rule="nonzero"></path>
            <path d="M59.4597435,465 C-63.1868927,365.33524 40.6850155,332.64945 48.3152028,312.075501 C56.2308304,291.193353 7.69079047,243.602433 23.549557,215.906486 C39.2861476,189.717074 81.1075422,228.532586 81.3360639,197.513505 C81.1075422,166.421298 43.2868645,157.882856 30.56649,104.497572 C19.0393835,51.1079599 98.2495159,24.4950697 118.071772,98.7169208 C137.362265,172.433773 105.823945,203.971416 130.041834,208.023779 C154.42817,213.418995 181.975032,197.788928 184.939016,231.671898 C187.344171,266.137476 117.80589,286.591853 118.071772,318.381666 C117.80589,349.097031 206.57377,423.374858 59.4597435,465 Z" id="Flower" fill="#E2EAF5" transform="translate(92.500000, 259.000000) scale(-1, 1) translate(-92.500000, -259.000000) "></path>
            <g id="Tree" transform="translate(613.000000, 38.000000)">
                <path d="M260.452757,235.532743 L270.917577,406.061867 C271.106819,409.145661 268.769031,411.799518 265.695981,411.989423 C265.619926,411.994123 226.587411,411.997648 148.598436,412 C145.519565,412 143.023646,409.495355 143.023646,406.405719 C143.023646,406.329253 144.770971,377.798418 148.26562,320.813215 L137.291036,320.813215 C97.3076513,320.813215 64.8867799,288.321041 64.8188679,248.213815 C69.9014126,249.94542 75.3497219,250.884698 81.0170718,250.884698 C87.0775015,250.884698 92.887452,249.810608 98.2675032,247.842124 L98.2675032,248.087558 C98.2675032,269.715011 115.738934,287.247527 137.291036,287.247527 L150.325438,287.247527 L153.412616,236.94052 C167.580596,249.119829 185.9998,256.478979 206.135166,256.478979 C227.034922,256.478979 246.085744,248.550478 260.452757,235.532743 L260.452757,235.532743 Z" id="Detail" fill="#D3E0F1"></path>
                <path d="M346.592772,87.2296045 C370.203842,101.441287 386,127.335151 386,156.922054 C386,201.802484 349.653177,238.185261 304.817099,238.185261 C291.284537,238.185261 278.525321,234.870893 267.305403,229.008866 C252.426485,245.972003 230.601386,256.679646 206.277854,256.679646 C182.144522,256.679646 160.470703,246.138807 145.600618,229.405651 C134.568218,235.020232 122.082546,238.185261 108.858373,238.185261 C64.0222945,238.185261 27.6754717,201.802484 27.6754717,156.922054 C27.6754717,127.335151 43.47163,101.441287 67.0827001,87.2296045 C66.9398746,85.2594537 66.867217,83.2698236 66.867217,81.2632067 C66.867217,36.3827769 103.21404,0 148.050118,0 C171.180121,0 192.050867,9.68259999 206.837742,25.2194044 C221.624611,9.68259718 242.495354,0 265.625354,0 C310.461432,0 346.808255,36.3827769 346.808255,81.2632067 C346.808255,83.2698236 346.735597,85.2594537 346.592772,87.2296045 L346.592772,87.2296045 Z" id="Detail" fill="#E2EAF5"></path>
                <path d="M45.2476372,167.460104 C54.3928239,158.167222 67.1249686,152.40354 81.2056604,152.40354 C95.2863522,152.40354 108.018497,158.167222 117.163684,167.460104 C119.995318,166.754516 122.95823,166.379941 126.008783,166.379941 C146.11335,166.379941 162.411321,182.649306 162.411321,202.718584 C162.411321,222.787862 146.11335,239.057227 126.008783,239.057227 C122.95823,239.057227 119.995318,238.682653 117.163684,237.977065 C108.018497,247.269946 95.2863522,253.033628 81.2056604,253.033628 C67.1249686,253.033628 54.3928239,247.269946 45.2476372,237.977065 C42.4160028,238.682653 39.4530903,239.057227 36.4025374,239.057227 C16.2979711,239.057227 0,222.787862 0,202.718584 C0,182.649306 16.2979711,166.379941 36.4025374,166.379941 C39.4530903,166.379941 42.4160028,166.754516 45.2476372,167.460104 L45.2476372,167.460104 Z" id="Detail" fill="#D3E0F1"></path>
            </g>
            <path d="M61.9338061,443 L965.066194,443 C971.104768,443 976,447.924868 976,454 C976,460.075132 971.104768,465 965.066194,465 L61.9338061,465 C55.8952318,465 51,460.075132 51,454 C51,447.924868 55.8952318,443 61.9338061,443 Z" id="Detail" fill="#D3E0F1"></path>
            <path d="M975.978431,465 L876.995445,465 C873.194971,458.886005 871,451.66963 871,443.940476 C871,421.88196 888.877945,404 910.931507,404 C928.703267,404 943.763436,415.612307 948.941516,431.664811 C949.576001,431.618697 950.216768,431.595238 950.863014,431.595238 C965.298073,431.595238 977,443.299794 977,457.738095 C977,460.257889 976.643586,462.694419 975.978431,465 Z" id="Detail" fill="#D3E0F1"></path>
            <path d="M263.964112,465 L54.4129186,465 C50.3274254,457.672369 48,449.233432 48,440.251701 C48,412.111478 70.8460305,389.29932 99.0280374,389.29932 C101.895926,389.29932 104.708556,389.535556 107.447476,389.989604 C110.110648,371.892273 125.724951,358 144.588785,358 C163.357939,358 178.910098,371.753167 181.689015,389.717422 C183.862763,389.441525 186.078301,389.29932 188.327103,389.29932 C198.495692,389.29932 207.984164,392.206928 216.004135,397.23493 C222.863517,392.244063 231.311656,389.29932 240.448598,389.29932 C263.396804,389.29932 282,407.874934 282,430.789116 C282,444.987571 274.857322,457.520238 263.964112,465 L263.964112,465 Z" id="Detail" fill="#D3E0F1"></path>
        </g>
        <g id="Selfie" transform="translate(245.000000, 80.000000)">
            <g id="Hand-R">
                <use fill="#FFC62C" xlink:href="#path-2"></use>
                <use fill="url(#linearGradient-1)" xlink:href="#path-2"></use>
            </g>
            <path d="M0.784252175,611.521561 C16.9341389,569.477315 162.168287,545 262.06004,545 C362.146623,545 431.523438,588.609962 341.520203,617.415877 C252.038649,646.233324 -14.0661304,653.448043 0.784252175,611.521561 Z" id="Sh" fill="#F0F0F6"></path>
            <g id="Legs" transform="translate(56.186813, 309.000000)">
                <g id="Leg-L">
                    <use fill="#A7A7EE" xlink:href="#path-4"></use>
                    <use fill="url(#linearGradient-3)" xlink:href="#path-4"></use>
                </g>
                <g id="Leg-R">
                    <use fill="#A7A7EE" xlink:href="#path-6"></use>
                    <use fill="url(#linearGradient-5)" xlink:href="#path-6"></use>
                </g>
                <mask id="mask-9" fill="white">
                    <use xlink:href="#path-8"></use>
                </mask>
                <g>
                    <use fill="#464D89" xlink:href="#path-8"></use>
                    <use fill="url(#linearGradient-7)" xlink:href="#path-8"></use>
                </g>
                <path d="M59.7458174,117.336985 C59.7458174,117.769447 59.3959634,118.120027 58.9643966,118.120027 C58.5328299,118.120027 58.1829759,117.769447 58.1829759,117.336985 C58.1829759,115.738834 58.1693844,115.072823 58.0526605,110.20483 C57.9072759,104.14154 57.8741879,100.432271 57.9866426,96.3790959 C58.3579229,82.997137 60.3687634,74.3106364 65.0939458,70.9039491 C65.4442649,70.6513816 65.932577,70.7312142 66.1846215,71.0822603 C66.4366659,71.4333064 66.3569986,71.9226319 66.0066795,72.1751994 C61.84431,75.1761188 59.9060553,83.5490606 59.5488804,96.42262 C59.437379,100.441437 59.4702767,104.129369 59.6150511,110.167212 C59.732219,115.053722 59.7458174,115.720073 59.7458174,117.336985 Z" id="Line" fill="#FFFFFF" fill-rule="nonzero" mask="url(#mask-9)"></path>
            </g>
            <g id="Group-7" transform="translate(67.186813, 220.000000)">
                <mask id="mask-12" fill="white">
                    <use xlink:href="#path-11"></use>
                </mask>
                <g id="Body">
                    <use fill="#A7A7EE" xlink:href="#path-11"></use>
                    <use fill="url(#linearGradient-10)" xlink:href="#path-11"></use>
                </g>
                <path d="M7.75651321,53.8336992 C13.6977863,49.3986756 16.6913884,117.248277 11.923963,124.409607 C8.7456794,129.183827 3.20023351,126.963813 -4.71237466,117.749563 C-0.360631479,78.0956694 3.79566448,56.7903815 7.75651321,53.8336992 Z" id="Sh" fill="url(#linearGradient-13)" mask="url(#mask-12)"></path>
                <path d="M56.7504247,-11.7857143 C35.3886408,1.69631309 65.0977739,30.3117025 78.1449166,51.0701127 C91.1920593,71.8285228 73.8729291,83.4875382 77.0065732,93.9413617 C80.1402173,104.395185 94.9012536,106.951047 102.700416,93.9413617 C110.499579,80.9316761 102.625375,61.6858048 95.6692738,51.0701127 C88.7131726,40.4544205 92.84595,29.76496 84.6185152,12.914186 C76.3910804,-3.93658801 75.507718,-5.50767918 56.7504247,-11.7857143 Z" id="Sh" fill="url(#linearGradient-14)" mask="url(#mask-12)"></path>
            </g>
            <g id="Leg-L">
                <use fill="#403F9F" xlink:href="#path-16"></use>
                <use fill="url(#linearGradient-15)" xlink:href="#path-16"></use>
            </g>
            <g id="Leg-R">
                <use fill="#403F9F" xlink:href="#path-18"></use>
                <use fill="url(#linearGradient-17)" xlink:href="#path-18"></use>
            </g>
            <g id="Hair">
                <use fill="#1F1845" xlink:href="#path-20"></use>
                <use fill="url(#linearGradient-19)" xlink:href="#path-20"></use>
            </g>
            <g id="Phone" transform="translate(335.186813, 3.000000)">
                <path d="M10.1665175,17.8787265 L25.0639696,3.06730944 C28.1402665,0.00877863386 33.1081369,0.0286140667 36.1600187,3.11161312 C37.2424385,4.20506933 37.9805856,5.59303626 38.2828284,7.10321526 L50.2773765,67.0348912 C50.795762,69.6250443 49.9817018,72.3029776 48.1103595,74.1635126 L33.2129074,88.9749297 C30.1366105,92.0334605 25.1687401,92.0136251 22.1168583,88.930626 C21.0344385,87.8371698 20.2962914,86.4492029 19.9940486,84.9390239 L7.99950055,25.0073479 C7.48111499,22.4171948 8.29517518,19.7392616 10.1665175,17.8787265 Z" id="Detail" fill="#1F1744"></path>
                <path d="M31.3744347,0.825512118 C29.1242488,0.600175553 26.7947356,1.34653887 25.0639696,3.06730944 L10.1665175,17.8787265 C8.29517518,19.7392616 7.48111499,22.4171948 7.99950055,25.0073479 L19.9940486,84.9390239 C20.2962914,86.4492029 21.0344385,87.8371698 22.1168583,88.930626 C23.6377213,90.4669959 25.6343988,91.242663 27.6356812,91.255746 C20.702848,91.7029766 16.2478558,90.9279366 14.2707044,88.930626 C13.1882846,87.8371698 12.4501375,86.4492029 12.1478948,84.9390239 L0.153346703,25.0073479 C-0.365038854,22.4171948 0.449021338,19.7392616 2.3203637,17.8787265 L17.2178158,3.06730944 C19.2686804,1.0282889 23.9909469,0.267960685 31.3846154,0.786324786 C31.3812132,0.79940554 31.3778196,0.812467984 31.3744347,0.825512118 L31.3744347,0.825512118 Z" id="Detail" fill="#50467F"></path>
            </g>
            <g id="Hand-R">
                <use fill="#FF6663" xlink:href="#path-22"></use>
                <use fill="url(#linearGradient-21)" xlink:href="#path-22"></use>
            </g>
            <g id="Legs">
                <use fill="#1F1845" xlink:href="#path-24"></use>
                <use fill="url(#linearGradient-23)" xlink:href="#path-24"></use>
            </g>
            <g id="Body" transform="translate(150.186813, 100.000000)">
                <mask id="mask-27" fill="white">
                    <use xlink:href="#path-26"></use>
                </mask>
                <g>
                    <use fill="#403F9F" xlink:href="#path-26"></use>
                    <use fill="url(#linearGradient-25)" xlink:href="#path-26"></use>
                </g>
                <path d="M119.135135,114.325424 C111.500557,116.994222 103.001019,111.784352 99.5405405,102.579661 C96.7900143,93.8895954 100.254538,84.5928984 107.378378,82.220339 C115.012957,79.5515412 123.512495,84.7614107 126.972973,93.9661017 C129.723499,102.656167 126.258975,111.952864 119.135135,114.325424 Z" id="Detail" fill="#FFFFFF" mask="url(#mask-27)"></path>
                <path d="M94.0540541,118.240678 C86.8690354,120.842848 78.4417131,115.496177 75.2432432,106.494915 C72.5319237,97.5287511 76.1684152,88.3099448 83.8648649,86.1355932 C91.0498836,83.5334233 99.4772058,88.8800939 102.675676,97.8813559 C105.386995,106.84752 101.750504,116.066326 94.0540541,118.240678 Z" id="Detail" fill="#FFFFFF" mask="url(#mask-27)"></path>
                <mask id="mask-30" fill="white">
                    <use xlink:href="#path-29"></use>
                </mask>
                <use id="Sh" fill="url(#linearGradient-28)" xlink:href="#path-29"></use>
            </g>
            <g id="Leg-L" transform="translate(26.186813, 221.000000)">
                <g>
                    <use fill="#FFC62C" xlink:href="#path-32"></use>
                    <use fill="url(#linearGradient-31)" xlink:href="#path-32"></use>
                </g>
                <g>
                    <use fill="#A7A7EE" xlink:href="#path-34"></use>
                    <use fill="url(#linearGradient-33)" xlink:href="#path-34"></use>
                </g>
            </g>
            <g id="Neck" transform="translate(233.186813, 161.000000)">
                <g>
                    <use fill="#FF6663" xlink:href="#path-36"></use>
                    <use fill="url(#linearGradient-35)" xlink:href="#path-36"></use>
                </g>
                <path d="M31.9525819,21.3476884 C28.1732737,23.4865133 23.8868912,25.134838 19.0971092,26.1092093 C13.9581616,27.1546104 7.16325588,27.1306462 0.0247203182,25.4486017 L0.0247203182,0.276290522 L31.9525819,0.276290522 L31.9525819,21.3476884 L31.9525819,21.3476884 Z" id="Sh" fill="url(#linearGradient-37)"></path>
            </g>
            <g id="Face" transform="translate(188.186813, 90.000000)">
                <mask id="mask-40" fill="white">
                    <use xlink:href="#path-39"></use>
                </mask>
                <g>
                    <use fill="#FF6663" xlink:href="#path-39"></use>
                    <use fill="url(#linearGradient-38)" xlink:href="#path-39"></use>
                </g>
                <path d="M9.42857143,29.7391304 C27.7890086,31.7852275 42.4456339,30.2441024 53.3984473,25.1157552 C69.8276675,17.4232345 77.3098907,12.5481723 96.5436233,17.3691727 C109.366112,20.5831729 105.732523,9.83692697 85.6428571,-14.8695652 L13.3571429,-3.91304348 L9.42857143,29.7391304 Z" id="Sh" fill="url(#linearGradient-41)" mask="url(#mask-40)"></path>
            </g>
            <g id="Neck" transform="translate(128.186813, 208.000000)">
                <mask id="mask-44" fill="white">
                    <use xlink:href="#path-43"></use>
                </mask>
                <g>
                    <use fill="#FFC62C" xlink:href="#path-43"></use>
                    <use fill="url(#linearGradient-42)" xlink:href="#path-43"></use>
                </g>
                <path d="M1.0125234e-13,1.94860769 L9.9475983e-14,-7.78291506 L28.3344721,-7.78291506 L28.3344721,11.594939 C24.7817249,12.4885168 21.3049152,13.0004214 17.920199,13.1657697 C19.9121472,16.0881772 21.8146297,19.9339025 24.4938022,25.3848809 C32.7432729,42.1690511 28.5994266,52.8162607 35.5741587,63.3899936 C42.5488907,73.9637266 50.4441843,93.1335272 42.6241328,106.091791 C34.8040814,119.050055 20.0035098,116.504295 16.8614727,106.091791 C13.7194356,95.679287 31.0849526,84.0663547 18.002865,63.3899936 C4.92077746,42.7136326 -24.8679272,14.2113474 -3.44892895,0.782608696 C-2.22580617,1.18927857 -1.07848146,1.57611969 1.0125234e-13,1.94860769 Z" id="Sh" fill="url(#linearGradient-45)" mask="url(#mask-44)"></path>
            </g>
            <g id="Hand-L" transform="translate(109.186813, 208.000000)">
                <g>
                    <use fill="#403F9F" xlink:href="#path-47"></use>
                    <use fill="url(#linearGradient-46)" xlink:href="#path-47"></use>
                </g>
                <g>
                    <use fill="#FF6663" xlink:href="#path-49"></use>
                    <use fill="url(#linearGradient-48)" xlink:href="#path-49"></use>
                </g>
            </g>
            <g id="Face" transform="translate(81.186813, 97.000000)">
                <mask id="mask-52" fill="white">
                    <use xlink:href="#path-51"></use>
                </mask>
                <g>
                    <use fill="#FFC62C" xlink:href="#path-51"></use>
                    <use fill="url(#linearGradient-50)" xlink:href="#path-51"></use>
                </g>
                <path d="M5.46101139,70.9628879 C0.778601859,41.5718699 8.61793839,20.531953 28.979021,7.84313725 C58.3927589,-10.575343 83.6717253,6.10056085 94.5485543,30.5593438 C91.1515631,32.5859977 87.2019271,33.7501208 83.020979,33.7501208 C80.5041984,33.7501208 78.0902308,33.3770332 75.8318885,32.685577 C71.235853,37.8081068 64.7814528,41.3258932 57.4985104,42.1804587 C53.739077,52.5843423 45.0855632,60.7564319 34.4045505,63.8246771 C34.4422779,64.257601 34.4615385,64.6958272 34.4615385,65.1385605 C34.4615385,73.3728549 27.79877,80.0480694 19.5804196,80.0480694 C12.1001188,80.0480694 7.39364936,77.0196756 5.46101139,70.9628879 Z" id="Sh" fill="url(#linearGradient-53)" mask="url(#mask-52)"></path>
            </g>
            <g id="Hair">
                <use fill="#464D89" xlink:href="#path-55"></use>
                <use fill="url(#linearGradient-54)" xlink:href="#path-55"></use>
            </g>
        </g>
    </g>
</svg>