<?xml version="1.0" encoding="UTF-8"?>
<svg width="1000px" height="800px" viewBox="0 0 1000 800" version="1.1" xmlns="http://www.w3.org/2000/svg" xmlns:xlink="http://www.w3.org/1999/xlink">
    <title>no-challenges</title>
    <defs>
        <path d="M923.416789,454.772343 C766.264363,623.323582 239.497432,567.850908 94.2562592,454.772343 C-51.888705,341.495325 -14.1645688,166.327693 112.665685,123.907337 C239.297031,81.4764125 311.754622,168.794575 402.061856,168.757927 C492.540301,168.794575 601.233308,-65.7845858 824.005891,18.7657902 C971.730437,74.5331086 1079.69559,285.53655 923.416789,454.772343 Z" id="path-1"></path>
        <path d="M892.083947,431.156354 C746.5608,569.061912 258.774622,523.67518 124.281296,431.156354 C-11.0489408,338.475157 23.8836093,195.156185 141.328424,160.448621 C258.58905,125.73241 325.68478,197.174543 409.309278,197.144558 C493.092319,197.174543 593.742043,5.24613906 800.029455,74.4237195 C936.822385,120.051525 1036.79811,292.690705 892.083947,431.156354 Z" id="path-3"></path>
        <path d="M855.210604,409.879814 C722.259651,521.345962 276.614827,484.660826 153.740795,409.879814 C30.1021556,334.967561 62.0167748,219.125865 169.315169,191.072474 C276.445288,163.012095 337.74441,220.757261 414.14433,220.733025 C490.689095,220.757261 582.643378,65.625588 771.108984,121.540364 C896.08395,158.420356 987.422466,297.960956 855.210604,409.879814 Z" id="path-5"></path>
        <linearGradient x1="50%" y1="0%" x2="50%" y2="100%" id="linearGradient-7">
            <stop stop-color="#403F9F" stop-opacity="0" offset="0%"></stop>
            <stop stop-color="#000000" stop-opacity="0.2" offset="100%"></stop>
        </linearGradient>
        <path d="M60.1104972,252 C19.4307214,219.373587 -15.8922448,146.107428 7.51381215,76.5 C30.6281828,7.3964733 111.968406,-22.4400227 175.071823,18.75 C237.203237,60.3581826 237.479925,101.663596 323.845304,120 C409.631315,138.687656 442.113157,252.314581 362.917127,295.5 C283.082539,339.406166 100.775301,284.545029 60.1104972,252 Z" id="path-8"></path>
        <linearGradient x1="0%" y1="32.1165683%" x2="100%" y2="67.8834317%" id="linearGradient-10">
            <stop stop-color="#000000" stop-opacity="0.3" offset="0%"></stop>
            <stop stop-color="#1F1845" stop-opacity="0" offset="100%"></stop>
        </linearGradient>
        <path d="M356.179839,298.866081 C291.953254,327.971288 173.305134,302.858697 104.703108,275.345247 C87.2661492,259.557281 70.2293576,240.858765 54.0994475,219 C25.3216657,180.547677 21.5647596,143.047677 42.8287293,106.5 L171.314917,106.5 C196.760357,128.109003 217.548571,143.609003 233.679558,153 C258.354764,166.694391 331.663955,179.34666 358.40884,209.25 C380.787909,234.6138 374.256991,270.848271 356.179839,298.866081 L356.179839,298.866081 Z" id="path-11"></path>
        <linearGradient x1="50%" y1="0%" x2="50%" y2="100%" id="linearGradient-13">
            <stop stop-color="#FFC62C" stop-opacity="0" offset="0%"></stop>
            <stop stop-color="#FF6663" stop-opacity="0.3" offset="100%"></stop>
        </linearGradient>
        <path d="M47.3838358,267 C27.2297611,265.02232 15.9254133,259.77232 13.4707923,251.25 C9.95676206,238.269688 -2.72313307,223.727237 1.4128213,218.25 C6.0907905,213.242831 12.6398017,229.910023 16.4852851,231.75 C21.5704022,233.780321 19.4204729,176.927757 38.3403575,191.25 C57.2635735,206.043198 52.8578047,218.664424 50.3983285,235.5 C48.9269321,247.203775 47.9221012,257.703775 47.3838358,267 Z" id="path-14"></path>
        <linearGradient x1="50%" y1="0%" x2="50%" y2="100%" id="linearGradient-15">
            <stop stop-color="#A7A7EE" stop-opacity="0" offset="0%"></stop>
            <stop stop-color="#4C55A0" stop-opacity="0.2" offset="100%"></stop>
        </linearGradient>
        <path d="M213.123765,210 C175.569461,210 49.3265151,237.869314 42.4269146,239.25 C35.2101566,240.910663 31.8599563,259.293003 42.4269146,265.5 C52.6767153,272.168863 181.941938,269.367332 189.812741,269.25 C198.218343,269.367332 251.000351,210 213.123765,210 Z" id="path-16"></path>
        <linearGradient x1="50%" y1="0%" x2="50%" y2="100%" id="linearGradient-17">
            <stop stop-color="#A7A7EE" stop-opacity="0" offset="0%"></stop>
            <stop stop-color="#4C55A0" stop-opacity="0.2" offset="100%"></stop>
        </linearGradient>
        <path d="M316.16508,583.415094 C320.84973,595.603513 364.026845,622.242876 364.353316,630.207547 C364.026845,637.492028 378.659198,642.337568 378.659198,626.433962 C378.659198,609.91448 364.026845,598.853799 364.353316,587.188679 C364.026845,574.946797 358.423334,553.515122 341.76508,557.754717 C324.323056,560.817605 310.435044,570.62974 316.16508,583.415094 Z" id="path-18"></path>
        <linearGradient x1="50%" y1="0%" x2="50%" y2="100%" id="linearGradient-19">
            <stop stop-color="#A7A7EE" stop-opacity="0" offset="0%"></stop>
            <stop stop-color="#4C55A0" stop-opacity="0.2" offset="100%"></stop>
        </linearGradient>
        <path d="M212.912592,210 L425.177838,210 C445.834653,210 440.256192,241.972477 425.177838,242.348624 C415.228367,242.281481 294.668464,260.337528 294.668464,266.422018 C294.668464,270.478345 299.668823,301.071618 309.669542,358.201835 L212.912592,374 C186.474314,334.999171 165.659198,303.238763 165.659198,275.449541 C165.659198,247.66032 176.59776,210 212.912592,210 Z" id="path-20"></path>
        <linearGradient x1="50%" y1="0%" x2="50%" y2="100%" id="linearGradient-21">
            <stop stop-color="#403F9F" stop-opacity="0" offset="0%"></stop>
            <stop stop-color="#000000" stop-opacity="0.2" offset="100%"></stop>
        </linearGradient>
        <path d="M219.65683,382.112598 C208.998597,410.227443 206.391966,456.552097 219.65683,474.585764 C232.815759,492.721707 304.902222,578.305885 315.658678,583.598844 C326.41071,589.245898 342.659198,576.781698 342.659198,564.803486 C342.659198,552.578986 305.497426,482.05497 276.657927,453.534962 C247.807612,425.955472 230.209128,354.860003 219.65683,382.112598 Z" id="path-22"></path>
        <linearGradient x1="50%" y1="0%" x2="50%" y2="100%" id="linearGradient-23">
            <stop stop-color="#FFC62C" stop-opacity="0" offset="0%"></stop>
            <stop stop-color="#FF6663" stop-opacity="0.3" offset="100%"></stop>
        </linearGradient>
        <rect id="path-24" x="0" y="-2.12346105e-14" width="44" height="65" rx="22"></rect>
        <linearGradient x1="99.8176372%" y1="50%" x2="0.18236275%" y2="100%" id="linearGradient-25">
            <stop stop-color="#000000" stop-opacity="0.2" offset="0%"></stop>
            <stop stop-color="#FFC42C" stop-opacity="0" offset="100%"></stop>
        </linearGradient>
        <linearGradient x1="50%" y1="0%" x2="50%" y2="100%" id="linearGradient-26">
            <stop stop-color="#403F9F" stop-opacity="0" offset="0%"></stop>
            <stop stop-color="#000000" stop-opacity="0.2" offset="100%"></stop>
        </linearGradient>
        <path d="M119.659198,406 C125.300199,436.503089 171.10606,455.503089 257.076781,463 C262.920838,462.300732 267.176027,458.800732 269.842348,452.5 C274.531561,442.712553 274.609901,435.479234 274.347843,435.25 C321.500991,435.479234 340.785521,375.580919 308.889967,339.25 C277.404886,303.354615 112.252848,359.994018 119.659198,406 Z" id="path-27"></path>
        <linearGradient x1="50%" y1="0%" x2="50%" y2="100%" id="linearGradient-28">
            <stop stop-color="#FFC62C" stop-opacity="0" offset="0%"></stop>
            <stop stop-color="#FF6663" stop-opacity="0.3" offset="100%"></stop>
        </linearGradient>
        <path d="M283.909198,106.25 C300.693173,106.545608 307.693173,113.795608 304.909198,128 C302.257068,143.988077 296.432812,158.89386 283.159198,157.25 C268.750482,183.737068 251.232126,200 217.159198,200 C183.450429,200 167.185825,167.913451 164.659198,150.5 C158.082769,132.840517 164.356829,69.8673972 166.909198,63.5 C171.754538,48.3668129 202.651686,75.790297 236.659198,86 C258.75724,93.4012452 274.50724,100.151245 283.909198,106.25 Z" id="path-29"></path>
        <linearGradient x1="100%" y1="38.3708063%" x2="0%" y2="61.6291937%" id="linearGradient-30">
            <stop stop-color="#000000" stop-opacity="0.15" offset="0%"></stop>
            <stop stop-color="#FFC42C" stop-opacity="0" offset="100%"></stop>
        </linearGradient>
        <linearGradient x1="50%" y1="0%" x2="50%" y2="100%" id="linearGradient-31">
            <stop stop-color="#FFC62C" stop-opacity="0" offset="0%"></stop>
            <stop stop-color="#FF6663" stop-opacity="0.3" offset="100%"></stop>
        </linearGradient>
        <path d="M425.838992,243 C407.938734,243 405.092731,187.80476 412.401779,187.431699 C419.863048,187.80476 415.022857,209.704089 422.106433,209.959389 C429.264952,209.704089 425.308969,157.86876 444.501788,161.149395 C463.355144,164.758866 465.594679,203.034108 456.445977,220.472311 C447.427389,237.746036 443.077227,243 425.838992,243 Z" id="path-32"></path>
        <linearGradient x1="50%" y1="0%" x2="50%" y2="100%" id="linearGradient-33">
            <stop stop-color="#A7A7EE" stop-opacity="0" offset="0%"></stop>
            <stop stop-color="#4C55A0" stop-opacity="0.2" offset="100%"></stop>
        </linearGradient>
        <path d="M256.659198,463.689655 C305.569407,471.613142 333.73315,470.601648 341.150426,460.655172 C351.673377,445.334455 307.174196,441.265064 296.641654,432.586207 C286.017857,424.496255 278.016607,422.595296 272.501303,428.034483 C266.939401,433.820225 273.051375,440.119983 270.238145,450.034483 C268.206206,457.244784 263.67989,461.796508 256.659198,463.689655 Z" id="path-34"></path>
    </defs>
    <g id="no-challenges" stroke="none" stroke-width="1" fill="none" fill-rule="evenodd">
        <g id="Space" transform="translate(0.000000, 119.615599)">
            <mask id="mask-2" fill="white">
                <use xlink:href="#path-1"></use>
            </mask>
            <use id="Details" fill="#EDF1F6" xlink:href="#path-1"></use>
            <mask id="mask-4" fill="white">
                <use xlink:href="#path-3"></use>
            </mask>
            <use id="Details" fill="#E2EAF5" xlink:href="#path-3"></use>
            <mask id="mask-6" fill="white">
                <use xlink:href="#path-5"></use>
            </mask>
            <use id="Details" fill="#B6C5D9" xlink:href="#path-5"></use>
            <circle id="Details" fill="#FFFFFF" mask="url(#mask-6)" cx="162.5" cy="253.884401" r="9.5"></circle>
            <circle id="Details" fill="#FFFFFF" mask="url(#mask-6)" cx="412.5" cy="291.884401" r="9.5"></circle>
            <circle id="Details" fill="#FFFFFF" mask="url(#mask-6)" cx="724.5" cy="215.884401" r="5.5"></circle>
            <circle id="Details" fill="#FFFFFF" mask="url(#mask-6)" cx="650.5" cy="289.884401" r="5.5"></circle>
            <circle id="Details" fill="#FFFFFF" mask="url(#mask-6)" cx="555.5" cy="413.884401" r="5.5"></circle>
            <circle id="Details" fill="#FFFFFF" mask="url(#mask-6)" cx="320.5" cy="413.884401" r="5.5"></circle>
            <circle id="Details" fill="#FFFFFF" mask="url(#mask-6)" cx="238.5" cy="325.884401" r="5.5"></circle>
            <circle id="Details" fill="#FFFFFF" mask="url(#mask-6)" cx="194.5" cy="391.884401" r="5.5"></circle>
            <circle id="Details" fill="#FFFFFF" mask="url(#mask-6)" cx="224.5" cy="207.884401" r="5.5"></circle>
            <circle id="Details" fill="#FFFFFF" mask="url(#mask-6)" cx="820.5" cy="361.884401" r="5.5"></circle>
            <circle id="Details" fill="#FFFFFF" mask="url(#mask-6)" cx="740.5" cy="421.884401" r="5.5"></circle>
            <circle id="Details" fill="#FFFFFF" mask="url(#mask-6)" cx="828.5" cy="163.884401" r="5.5"></circle>
            <circle id="Details" fill="#FFFFFF" mask="url(#mask-6)" cx="784.5" cy="229.884401" r="5.5"></circle>
            <circle id="Details" fill="#FFFFFF" mask="url(#mask-6)" cx="446.5" cy="349.884401" r="9.5"></circle>
            <circle id="Details" fill="#FFFFFF" mask="url(#mask-6)" cx="469.5" cy="371.884401" r="9.5"></circle>
            <circle id="Details" fill="#FFFFFF" mask="url(#mask-6)" cx="491.5" cy="253.884401" r="9.5"></circle>
            <circle id="Details" fill="#FFFFFF" mask="url(#mask-6)" cx="601.5" cy="209.884401" r="9.5"></circle>
            <circle id="Details" fill="#FFFFFF" mask="url(#mask-6)" cx="601.5" cy="342.884401" r="9.5"></circle>
            <circle id="Details" fill="#FFFFFF" mask="url(#mask-6)" cx="697.5" cy="331.884401" r="9.5"></circle>
            <polygon id="Details" fill="#FFFFFF" fill-rule="nonzero" mask="url(#mask-6)" points="486.366132 253.467867 409.401537 294.384401 163 253.573058 163.484759 250.68658 408.895976 291.333896 485.156302 250.791771 603.982722 207.384401 605 210.130836"></polygon>
            <polygon id="Details" fill="#FFFFFF" fill-rule="nonzero" mask="url(#mask-6)" points="163.112537 249.384401 166 250.06762 128.887463 403.384401 126 402.701182"></polygon>
            <polygon id="Details" fill="#FFFFFF" fill-rule="nonzero" mask="url(#mask-6)" points="409.173025 290.384401 412 290.659875 394.826975 481.384401 392 481.108927"></polygon>
            <polygon id="Details" fill="#FFFFFF" fill-rule="nonzero" mask="url(#mask-6)" points="469.181388 375.384401 446.84923 351.128563 411 289.881608 413.532565 288.384401 449.221114 349.356839 470.187604 372.129371 602.411911 342.169492 698.63274 329.980065 699 332.909825 602.988989 345.065773"></polygon>
        </g>
        <g id="Girl-in-VR" transform="translate(447.000000, 82.000000)">
            <g id="Hair" transform="translate(114.659198, 0.000000)">
                <mask id="mask-9" fill="white">
                    <use xlink:href="#path-8"></use>
                </mask>
                <g>
                    <use fill="#464D89" xlink:href="#path-8"></use>
                    <use fill="url(#linearGradient-7)" xlink:href="#path-8"></use>
                </g>
                <mask id="mask-12" fill="white">
                    <use xlink:href="#path-11"></use>
                </mask>
                <use id="Combined-Shape" fill="url(#linearGradient-10)" xlink:href="#path-11"></use>
            </g>
            <g id="Hand-L">
                <use fill="#FFC62C" xlink:href="#path-14"></use>
                <use fill="url(#linearGradient-13)" xlink:href="#path-14"></use>
            </g>
            <g id="Hand-L">
                <use fill="#A7A7EE" xlink:href="#path-16"></use>
                <use fill="url(#linearGradient-15)" xlink:href="#path-16"></use>
            </g>
            <g id="Leg-L">
                <use fill="#A7A7EE" xlink:href="#path-18"></use>
                <use fill="url(#linearGradient-17)" xlink:href="#path-18"></use>
            </g>
            <g id="Body">
                <use fill="#A7A7EE" xlink:href="#path-20"></use>
                <use fill="url(#linearGradient-19)" xlink:href="#path-20"></use>
            </g>
            <g id="Leg-R">
                <use fill="#464D89" xlink:href="#path-22"></use>
                <use fill="url(#linearGradient-21)" xlink:href="#path-22"></use>
            </g>
            <g id="Neck" transform="translate(204.659198, 171.000000)">
                <g>
                    <use fill="#FFC62C" xlink:href="#path-24"></use>
                    <use fill="url(#linearGradient-23)" xlink:href="#path-24"></use>
                </g>
                <path d="M44,37.826887 C35.1877467,41.8966989 24.7913992,44.0804598 12.137931,44.0804598 C7.81025226,44.0804598 3.7668304,43.5655238 0,42.6308986 L0,21.6666667 C0,9.70049709 9.8497355,0 22,0 C34.1502645,0 44,9.70049709 44,21.6666667 L44,37.826887 L44,37.826887 Z" id="Sh" fill="url(#linearGradient-25)"></path>
            </g>
            <g id="Hand-R">
                <use fill="#464D89" xlink:href="#path-27"></use>
                <use fill="url(#linearGradient-26)" xlink:href="#path-27"></use>
            </g>
            <g id="Face">
                <use fill="#FFC62C" xlink:href="#path-29"></use>
                <use fill="url(#linearGradient-28)" xlink:href="#path-29"></use>
            </g>
            <path d="M169.002933,90 C192.039141,90 207.757896,90 216.159198,90 C225.252047,90 240.970802,90 263.315463,90 C275.583976,90 286.659198,105.222319 286.659198,124 C286.659198,142.777681 275.583976,158 263.315463,158 C240.076964,158 224.358209,158 216.159198,158 C206.864057,158 191.145302,158 169.002933,158 C156.73442,158 145.659198,142.777681 145.659198,124 C145.659198,105.222319 156.73442,90 169.002933,90 Z" id="Sh" fill="url(#linearGradient-30)"></path>
            <g id="Glasses" transform="translate(142.659198, 82.000000)">
                <path d="M27.140529,0 C50.2165227,0 65.9624258,0 74.3782383,0 C83.4867919,0 99.232695,0 121.615948,0 C133.90565,0 145,15.2223185 145,34 C145,52.7776815 133.90565,68 121.615948,68 C98.3373126,68 82.5914095,68 74.3782383,68 C65.0670435,68 49.3211404,68 27.140529,68 C14.8508266,68 3.75647668,52.7776815 3.75647668,34 C3.75647668,15.2223185 14.8508266,0 27.140529,0 Z" id="Detail" fill="#D6DFEA"></path>
                <path d="M15.6583262,8.96703297 C40.6733296,8.96703297 57.7423159,8.96703297 66.865285,8.96703297 C76.7392041,8.96703297 93.8081904,8.96703297 118.072244,8.96703297 C131.394615,8.96703297 133.73057,20.1746741 133.73057,34 C133.73057,47.8253259 131.394615,59.032967 118.072244,59.032967 C92.8375717,59.032967 75.7685854,59.032967 66.865285,59.032967 C56.7716971,59.032967 39.7027109,59.032967 15.6583262,59.032967 C2.33595535,59.032967 0,47.8253259 0,34 C0,20.1746741 2.33595535,8.96703297 15.6583262,8.96703297 Z" id="Detail" fill="#1F1845"></path>
                <path d="M129.222798,16.4395604 L141.397713,17.0450307 C142.994674,17.124449 144.248705,18.442394 144.248705,20.0413278 L144.248705,24.6593407 L144.248705,24.6593407 L129.222798,36.6153846 L129.222798,16.4395604 Z" id="Detail" fill="#1F1845"></path>
                <path d="M51.7463987,17.1868132 L73.7199226,17.1868132 C83.2119374,17.1868132 90.9067358,24.8816116 90.9067358,34.3736264 C90.9067358,43.8656412 83.2119374,51.5604396 73.7199226,51.5604396 L51.7463987,51.5604396 C42.2543839,51.5604396 34.5595855,43.8656412 34.5595855,34.3736264 C34.5595855,24.8816116 42.2543839,17.1868132 51.7463987,17.1868132 Z" id="Detail" fill="#7BC1EB" opacity="0.300000012"></path>
                <path d="M51.8070375,28.3956044 L73.6592837,28.3956044 C76.9608541,28.3956044 79.6373057,31.072056 79.6373057,34.3736264 C79.6373057,37.6751967 76.9608541,40.3516484 73.6592837,40.3516484 L51.8070375,40.3516484 C48.5054671,40.3516484 45.8290155,37.6751967 45.8290155,34.3736264 C45.8290155,31.072056 48.5054671,28.3956044 51.8070375,28.3956044 Z" id="Detail" fill="#7BC1EB"></path>
            </g>
            <path d="M180.492502,386.211129 C179.891245,386.048693 179.535852,385.430856 179.698709,384.831152 C179.861565,384.231448 180.481002,383.876972 181.082258,384.039409 C192.848523,387.218199 203.171584,392.639319 217.147331,402.142957 C220.261568,404.260667 231.163187,411.897962 231.410115,412.069186 C248.652564,424.025428 260.77411,430.80737 275.886082,435.806925 C276.477329,436.002529 276.79765,436.639161 276.601539,437.22888 C276.405428,437.8186 275.767149,438.138094 275.175902,437.942489 C259.816018,432.860917 247.527375,425.985485 230.122454,413.916582 C229.864099,413.737434 218.975445,406.109221 215.876618,404.00199 C202.090714,394.627448 191.967321,389.311182 180.492502,386.211129 Z" id="Line" fill="#FFFFFF" fill-rule="nonzero"></path>
            <g id="Hend-R">
                <use fill="#FFC62C" xlink:href="#path-32"></use>
                <use fill="url(#linearGradient-31)" xlink:href="#path-32"></use>
            </g>
            <g id="Leg-R">
                <use fill="#A7A7EE" xlink:href="#path-34"></use>
                <use fill="url(#linearGradient-33)" xlink:href="#path-34"></use>
            </g>
        </g>
    </g>
</svg>