<?xml version="1.0" encoding="UTF-8"?>
<svg width="1000px" height="800px" viewBox="0 0 1000 800" version="1.1" xmlns="http://www.w3.org/2000/svg" xmlns:xlink="http://www.w3.org/1999/xlink">
    <title>no-news</title>
    <defs>
        <linearGradient x1="50%" y1="0%" x2="50%" y2="100%" id="linearGradient-1">
            <stop stop-color="#393E41" stop-opacity="0" offset="0%"></stop>
            <stop stop-color="#000000" stop-opacity="0.3" offset="100%"></stop>
        </linearGradient>
        <path d="M52.6525655,0 L288.722434,0 C317.421948,0 340.6875,23.318098 340.6875,52.0824295 L340.6875,633.91757 C340.6875,662.681902 317.421948,686 288.722434,686 L52.6525655,686 C23.9530523,686 0.6875,662.681902 0.6875,633.91757 L0.6875,52.0824295 C0.6875,23.318098 23.9530523,0 52.6525655,0 Z" id="path-2"></path>
        <path d="M82.4735697,21 C85.4387438,21 86.9213308,22.4872979 86.9213308,25.4618938 C86.9213308,39.0264566 95.7742567,44.7967667 109.160137,44.7967667 C131.056794,44.7967667 216.30011,44.7967667 232.214863,44.7967667 C246.533804,44.7967667 254.453669,39.0264566 254.453669,25.4618938 C254.453669,22.4872979 255.936256,21 258.90143,21 L290.035759,21 C306.411963,21 319.6875,34.3177192 319.6875,50.7459584 L319.6875,635.254042 C319.6875,651.682281 306.411963,665 290.035759,665 L51.3392413,665 C34.9630368,665 21.6875,651.682281 21.6875,635.254042 L21.6875,50.7459584 C21.6875,34.3177192 34.9630368,21 51.3392413,21 L82.4735697,21 Z" id="path-3"></path>
        <circle id="path-5" cx="22" cy="22" r="22"></circle>
        <linearGradient x1="50%" y1="0%" x2="50%" y2="100%" id="linearGradient-7">
            <stop stop-color="#403F9F" stop-opacity="0" offset="0%"></stop>
            <stop stop-color="#000000" stop-opacity="0.2" offset="100%"></stop>
        </linearGradient>
        <path d="M11.3917187,10.0608766 C15.0211923,-0.127357547 30.0841089,-3.07247257 38.0085597,4.73750839 C46.0033551,12.679325 49.7389667,7.63914497 53.9786643,11.1699116 C58.2472059,14.8082629 53.9930863,21.458041 49.7643312,25.1437532 C45.5753715,28.8843668 55.2485675,35.7421226 52.6478223,44.66277 C50.0793794,53.5647294 38.105809,50.1616095 34.2378406,55.5313134 C30.2997595,60.964795 23.1830695,50.7512554 10.9481046,49.5425242 C-1.14728723,48.2352171 -3.11025806,33.8798926 5.84654344,27.1400163 C14.9580769,20.3608766 7.90175738,20.3608766 11.3917187,10.0608766 Z" id="path-8"></path>
        <linearGradient x1="0%" y1="10.3446197%" x2="100%" y2="89.6553803%" id="linearGradient-10">
            <stop stop-color="#000000" stop-opacity="0.3" offset="0%"></stop>
            <stop stop-color="#1F1845" stop-opacity="0" offset="100%"></stop>
        </linearGradient>
        <path d="M44.4583086,51.2884298 C41.3497709,52.0946646 38.0624169,52.5191248 35.8153898,54.0293096 C35.1997705,54.4381184 34.6649627,54.9284686 34.2378406,55.5313134 C33.2719866,56.8529573 32.0085133,57.2259965 30.4884818,57.0296852 C26.8239185,56.3665576 21.648635,51.9134784 14.453024,50.1472049 C7.08742224,41.8764295 12.9788759,23.6529652 17.1587009,31.1325424 C20.4044695,36.8753002 28.4606321,34.6562562 41.3356648,24.4783322 C47.2337008,34.0267229 48.9427353,41.664433 46.437226,47.3244541 C45.7265786,48.9525231 45.1019043,50.2268999 44.4583086,51.2884298 L44.4583086,51.2884298 Z" id="path-11"></path>
        <linearGradient x1="50%" y1="0%" x2="50%" y2="100%" id="linearGradient-13">
            <stop stop-color="#FFC62C" stop-opacity="0" offset="0%"></stop>
            <stop stop-color="#FF6663" stop-opacity="0.1" offset="100%"></stop>
        </linearGradient>
        <path d="M3.77071915,0 C5.85322983,0 7.5414383,1.91841871 7.5414383,4.28490812 L7.5414383,6.80544231 C7.5414383,9.17193172 5.85322983,11.0903504 3.77071915,11.0903504 C1.68820847,11.0903504 0,9.17193172 0,6.80544231 L0,4.28490812 C0,1.91841871 1.68820847,0 3.77071915,0 Z" id="path-14"></path>
        <linearGradient x1="100%" y1="11.0726644%" x2="0%" y2="92.4881805%" id="linearGradient-15">
            <stop stop-color="#000000" stop-opacity="0.35" offset="0%"></stop>
            <stop stop-color="#FFC62C" stop-opacity="0" offset="100%"></stop>
        </linearGradient>
        <linearGradient x1="50%" y1="0%" x2="50%" y2="100%" id="linearGradient-16">
            <stop stop-color="#FFC62C" stop-opacity="0" offset="0%"></stop>
            <stop stop-color="#FF6663" stop-opacity="0.1" offset="100%"></stop>
        </linearGradient>
        <path d="M0.966789245,11.3917187 C-1.08038344,7.937235 2.01782012,5.84302694 2.96305232,7.3991925 C3.43484206,8.06949378 3.58791384,8.70704255 3.62847335,9.39545558 C5.44271864,12.4762793 12.3128661,5.90615953 14.4970168,3.40666634 C16.8807393,0.770742981 17.222753,-2.00561289 18.933157,3.40666634 C20.1385809,6.98854655 24.4734897,5.57144904 27.8054373,2.74124531 C27.8412527,3.78960639 27.8053902,4.90975056 27.8054373,6.06835045 C27.8053902,7.11446325 29.1362794,8.49791401 29.1362794,13.3879817 C29.1362794,18.2327269 24.0232876,24.9219462 18.2677359,24.9219462 C13.8825549,24.9219462 7.16767999,21.9732759 4.07208737,16.9368939 C1.49293616,16.9339056 3.10433105,14.8360754 0.966789245,11.3917187 Z" id="path-17"></path>
        <linearGradient x1="100%" y1="38.6587044%" x2="0%" y2="61.3412956%" id="linearGradient-18">
            <stop stop-color="#000000" stop-opacity="0.2" offset="0%"></stop>
            <stop stop-color="#FFC62C" stop-opacity="0" offset="100%"></stop>
        </linearGradient>
        <circle id="path-19" cx="22" cy="22" r="22"></circle>
        <linearGradient x1="50%" y1="0%" x2="50%" y2="100%" id="linearGradient-21">
            <stop stop-color="#FFC62C" stop-opacity="0" offset="0%"></stop>
            <stop stop-color="#FF6663" stop-opacity="0.1" offset="100%"></stop>
        </linearGradient>
        <path d="M12.1129412,27.28 L22.88,27.28 L22.2070588,41.008 C22.1419349,44.1615586 19.6472404,46.64 16.6552941,46.64 C13.7575841,46.64 11.44,44.2304793 11.44,41.184 C11.44,41.1766948 11.4417802,41.0952152 11.44,41.008 L12.1129412,27.28 Z" id="path-22"></path>
        <linearGradient x1="0%" y1="84.0596594%" x2="100%" y2="0%" id="linearGradient-23">
            <stop stop-color="#000000" stop-opacity="0.1" offset="0%"></stop>
            <stop stop-color="#FF6663" stop-opacity="0" offset="100%"></stop>
        </linearGradient>
        <linearGradient x1="50%" y1="0%" x2="50%" y2="100%" id="linearGradient-24">
            <stop stop-color="#FFC62C" stop-opacity="0" offset="0%"></stop>
            <stop stop-color="#FF6663" stop-opacity="0.1" offset="100%"></stop>
        </linearGradient>
        <path d="M12.9368091,7.83675696 C18.9151131,7.83675696 23.761486,12.5276502 23.761486,18.3141603 L23.761486,27.173103 C23.761486,32.959613 16.6719929,37.6505063 12.9368091,37.6505063 C9.2016252,37.6505063 2.11213209,32.959613 2.11213209,27.173103 C2.46415411,24.5004751 2.64016511,23.0629741 2.64016511,22.8605999 C2.64016511,22.6582256 2.46415411,21.1427458 2.11213209,18.3141603 C2.11213209,12.5276502 6.95850505,7.83675696 12.9368091,7.83675696 Z" id="path-25"></path>
        <linearGradient x1="50%" y1="0%" x2="50%" y2="100%" id="linearGradient-26">
            <stop stop-color="#1F1845" stop-opacity="0" offset="0%"></stop>
            <stop stop-color="#000000" stop-opacity="0.2" offset="100%"></stop>
        </linearGradient>
        <path d="M20.6812934,0 C24.9344124,0 28.4131716,3.20906371 28.6740864,7.26209753 C31.7872396,7.81573218 34.1461355,10.4558002 34.1461355,13.6291425 C34.1461355,15.4084839 33.4044949,17.020163 32.2040951,18.1903739 C32.3228673,18.6384007 32.3860254,19.1080075 32.3860254,19.5918924 C32.3860254,21.4582622 31.4464319,23.1122187 30.0001164,24.1347776 C30.0643625,24.4851103 30.0978823,24.8457231 30.0978823,25.2139137 C30.0978823,28.6011391 27.0168475,32.7691835 22.5013554,32.7691835 L22.5013554,27.4286494 L23.761486,24.5100762 C21.9769447,23.5507036 20.7692989,21.7078039 20.7692989,19.5918924 C20.7692989,19.1198487 20.8294037,18.6613929 20.9426098,18.2233037 C20.8559919,18.2270732 20.7688725,18.2289782 20.6812934,18.2289782 C17.7354399,18.2289782 15.3096758,16.073649 14.9953908,13.3033259 C14.1104271,13.7299356 13.1125393,13.9698711 12.056754,13.9698711 C10.4874524,13.9698711 9.04606546,13.439773 7.91329685,12.5544829 C7.41518312,12.8056854 6.84891953,12.9476854 6.24839077,12.9476854 C5.44353545,12.9476854 4.70022911,12.6926171 4.10004647,12.2614382 C3.21341137,13.4719693 2.58560794,14.8726182 2.29469184,16.3878332 C0.890659911,15.2316194 0,13.5088708 0,11.5847712 C0,8.30812428 2.58295048,5.61540356 5.88556708,5.3101161 C6.83165665,2.90299011 9.23783735,1.19254997 12.056754,1.19254997 C13.2340944,1.19254997 14.3394383,1.49091472 15.2964804,2.01378714 C16.7186963,0.762588485 18.607987,0 20.6812934,0 Z" id="path-27"></path>
        <linearGradient x1="50%" y1="0%" x2="50%" y2="100%" id="linearGradient-28">
            <stop stop-color="#FFC62C" stop-opacity="0" offset="0%"></stop>
            <stop stop-color="#FF6663" stop-opacity="0.1" offset="100%"></stop>
        </linearGradient>
        <path d="M1.58409907,7.66639268 C-0.595837387,7.63005943 -0.457769779,-0.0356356447 1.58409907,-8.71866327e-14 C3.79819046,0.0363590074 5.49235171,1.7815649 5.45634123,3.7480142 C5.41609907,6.01521138 3.66012286,7.70205408 1.58409907,7.66639268 Z" id="path-29"></path>
        <linearGradient x1="100%" y1="3.15670459%" x2="0%" y2="96.8432954%" id="linearGradient-30">
            <stop stop-color="#000000" stop-opacity="0.2" offset="0%"></stop>
            <stop stop-color="#FF6663" stop-opacity="0" offset="100%"></stop>
        </linearGradient>
        <linearGradient x1="64.0162101%" y1="43.4758676%" x2="0%" y2="62.0664468%" id="linearGradient-31">
            <stop stop-color="#000000" stop-opacity="0.1" offset="0%"></stop>
            <stop stop-color="#FF6663" stop-opacity="0" offset="100%"></stop>
        </linearGradient>
        <circle id="path-32" cx="22" cy="22" r="22"></circle>
        <linearGradient x1="50%" y1="0%" x2="50%" y2="100%" id="linearGradient-34">
            <stop stop-color="#1F1845" stop-opacity="0" offset="0%"></stop>
            <stop stop-color="#000000" stop-opacity="0.2" offset="100%"></stop>
        </linearGradient>
        <path d="M52.2971429,45.0895238 C48.3199865,60.5871855 22.9899624,62.8445491 11.2304762,52.4647619 C-0.687259905,42.2083574 -2.42832002,28.3035638 2.84952381,16.9295238 C7.98849682,5.59529739 18.4994529,0 30.1714286,0 C41.9762083,0 49.7428224,12.0694065 41.2342857,18.2704762 C32.6087111,24.4423831 56.3559425,29.6979003 52.2971429,45.0895238 Z" id="path-35"></path>
        <linearGradient x1="16.126432%" y1="2.16831614%" x2="64.0182%" y2="98.2149724%" id="linearGradient-36">
            <stop stop-color="#000000" stop-opacity="0.64600317" offset="0%"></stop>
            <stop stop-color="#1F1845" stop-opacity="0" offset="100%"></stop>
        </linearGradient>
        <linearGradient x1="50%" y1="0%" x2="50%" y2="100%" id="linearGradient-37">
            <stop stop-color="#403F9F" stop-opacity="0" offset="0%"></stop>
            <stop stop-color="#000000" stop-opacity="0.1" offset="100%"></stop>
        </linearGradient>
        <path d="M7.04,28.16 C7.79114776,30.5602928 8.07695283,30.6899037 8.04571429,31.0095238 C8.07695283,31.308344 7.67554059,32.0688431 6.87238095,32.5180952 C6.15676664,33.1199006 5.02656033,33.3260587 4.86095238,33.0209524 C4.55164681,32.6544215 0,24.1415097 0,21.287619 C0,19.0776948 0.276476897,13.0475015 1.50857143,8.71619048 C2.71399133,4.31495661 5.102369,1.87245557 8.88380952,0.67047619 C9.01882216,0.555977752 11.2752728,0 12.2361905,0 C18.512805,0 23.6342857,5.1232078 23.6342857,11.3980952 C23.6342857,12.1868697 23.561777,12.9289622 23.4666667,13.5771429 L21.12,25.4780952 C19.3761006,26.9498793 16.8608812,27.6767433 13.5771429,27.6571429 C10.2140622,27.6767433 7.74452998,27.0436712 6.20190476,25.8133333 C6.41403736,26.5148752 6.70604018,27.3336664 7.04,28.16 Z" id="path-38"></path>
        <linearGradient x1="35.3643212%" y1="0%" x2="69.8124226%" y2="100%" id="linearGradient-39">
            <stop stop-color="#000000" stop-opacity="0.155089447" offset="0%"></stop>
            <stop stop-color="#000000" stop-opacity="0" offset="100%"></stop>
        </linearGradient>
        <path d="M5.86666745,0.069655511 L5.86666745,1.92761905 C5.86666745,3.54765431 4.5533686,4.86095238 2.93333333,4.86095238 C1.31329807,4.86095238 0,3.54765431 0,1.92761905 L0,0.228622431 C0.839658876,0.407604165 1.73400383,0.502857143 2.68190476,0.502857143 C3.85269606,0.502857143 4.91231386,0.34417602 5.86666745,0.069655511 L5.86666745,0.069655511 Z" id="path-40"></path>
        <linearGradient x1="0%" y1="38.7737294%" x2="100%" y2="61.2262706%" id="linearGradient-42">
            <stop stop-color="#000000" stop-opacity="0.2" offset="0%"></stop>
            <stop stop-color="#FF6663" stop-opacity="0" offset="100%"></stop>
        </linearGradient>
        <path d="M5.82923763,2.39747633 C5.23267474,2.68709185 4.56292542,2.84952381 3.8552381,2.84952381 C2.22541915,2.84952381 0.796819912,1.98799982 0,0.695511446 L0,0.228622431 C0.839658876,0.407604165 1.73400383,0.502857143 2.68190476,0.502857143 C3.85269606,0.502857143 4.91231386,0.34417602 5.86666745,0.069655511 L5.86666745,1.92761905 C5.86666745,2.08755035 5.85386751,2.24449225 5.82923763,2.39747633 L5.82923763,2.39747633 Z" id="path-43"></path>
        <linearGradient x1="0%" y1="45.2439278%" x2="100%" y2="54.7560722%" id="linearGradient-45">
            <stop stop-color="#000000" stop-opacity="0.2" offset="0%"></stop>
            <stop stop-color="#FF6663" stop-opacity="0" offset="100%"></stop>
        </linearGradient>
        <linearGradient x1="50%" y1="-277.697167%" x2="50%" y2="77.0167791%" id="linearGradient-46">
            <stop stop-color="#000000" offset="0%"></stop>
            <stop stop-color="#000000" stop-opacity="0" offset="100%"></stop>
        </linearGradient>
        <path d="M10,0 L253,0 C258.522847,-1.01453063e-15 263,4.4771525 263,10 L263,196 C263,201.522847 258.522847,206 253,206 L10,206 C4.4771525,206 6.76353751e-16,201.522847 0,196 L0,10 C-6.76353751e-16,4.4771525 4.4771525,1.01453063e-15 10,0 Z" id="path-47"></path>
        <linearGradient x1="50%" y1="0%" x2="50%" y2="100%" id="linearGradient-49">
            <stop stop-color="#52C883" stop-opacity="0" offset="0%"></stop>
            <stop stop-color="#000000" stop-opacity="0.05" offset="100%"></stop>
        </linearGradient>
        <path d="M263,161.293617 L263,204.246809 C263,205.338199 262.343406,206 261.258278,206 L1.74172185,206 C0.656593555,206 0,205.338199 0,204.246809 L0,142.008511 C0.143660679,142.009239 0.287777739,142.008511 0.870860927,142.008511 C52.4380146,142.008511 78.4686693,180.206997 133.241722,180.578723 C181.703891,180.206997 220.067911,165.404842 263,161.293617 L263,161.293617 Z" id="path-50"></path>
        <linearGradient x1="50%" y1="0%" x2="50%" y2="100%" id="linearGradient-51">
            <stop stop-color="#52C883" stop-opacity="0" offset="0%"></stop>
            <stop stop-color="#000000" stop-opacity="0.05" offset="100%"></stop>
        </linearGradient>
        <path d="M24.4297441,91.2357657 C28.6609482,86.8644147 34.5517305,84.1531915 41.0664452,84.1531915 C47.5811598,84.1531915 53.4719421,86.8644147 57.7031463,91.2357657 C59.0132588,90.9038586 60.3841097,90.7276596 61.7955092,90.7276596 C71.0972903,90.7276596 78.6378738,98.3807326 78.6378738,107.821277 C78.6378738,117.261821 71.0972903,124.914894 61.7955092,124.914894 C60.3841097,124.914894 59.0132588,124.738695 57.7031463,124.406788 C53.4719421,128.778139 47.5811598,131.489362 41.0664452,131.489362 C34.5517305,131.489362 28.6609482,128.778139 24.4297441,124.406788 C23.1196316,124.738695 21.7487807,124.914894 20.3373811,124.914894 C11.0356001,124.914894 3.49501661,117.261821 3.49501661,107.821277 C3.49501661,98.3807326 11.0356001,90.7276596 20.3373811,90.7276596 C21.7487807,90.7276596 23.1196316,90.9038586 24.4297441,91.2357657 L24.4297441,91.2357657 Z" id="path-52"></path>
        <linearGradient x1="50%" y1="0%" x2="50%" y2="100%" id="linearGradient-53">
            <stop stop-color="#00A07D" stop-opacity="0" offset="0%"></stop>
            <stop stop-color="#000000" stop-opacity="0.1" offset="100%"></stop>
        </linearGradient>
        <path d="M263,180.578723 L263,204.246809 C263,205.335976 262.340634,206 261.252492,206 L214.943522,206 C234.980243,199.198481 247.744095,187.336455 263,180.578723 L263,180.578723 Z M146.790698,206 L1.74750831,206 C0.65733892,206 0,205.347659 0,204.246809 L0,170.93617 C3.04796368,170.262696 6.28430719,170.059574 10.4850498,170.059574 C64.6720948,170.059574 105.43897,195.010939 146.790698,206 L146.790698,206 Z" id="path-54"></path>
        <linearGradient x1="50%" y1="0%" x2="50%" y2="100%" id="linearGradient-55">
            <stop stop-color="#D6DFEA" stop-opacity="0" offset="0%"></stop>
            <stop stop-color="#000000" stop-opacity="0.1" offset="100%"></stop>
        </linearGradient>
        <path d="M341.4,315.470588 L347.533333,309.352941 C350.242412,306.309557 355.114078,306.309557 358.266667,309.352941 L369,320.058824 L319.933333,369 L309.2,358.294118 C306.148812,355.149592 306.148812,350.290385 309.2,347.588235 L314.566667,342.235294 L277,304.764706 L303.833333,278 L341.4,315.470588 Z" id="path-56"></path>
        <linearGradient x1="33.3600849%" y1="100%" x2="33.3600836%" y2="0%" id="linearGradient-57">
            <stop stop-color="#000000" stop-opacity="0.5" offset="0%"></stop>
            <stop stop-color="#000000" stop-opacity="0" offset="100%"></stop>
        </linearGradient>
        <path d="M320,368.90566 L368.90566,320 L472.066038,423.160377 C485.359165,436.700712 485.359165,458.485843 472.066038,472.066038 C458.485843,485.359165 436.700712,485.359165 423.160377,472.066038 L320,368.90566 Z" id="path-58"></path>
        <linearGradient x1="50%" y1="100%" x2="50%" y2="0%" id="linearGradient-59">
            <stop stop-color="#000000" stop-opacity="0.5" offset="0%"></stop>
            <stop stop-color="#000000" stop-opacity="0" offset="100%"></stop>
        </linearGradient>
        <path d="M171.5,312.511111 C249.378286,312.511111 312.511111,249.378286 312.511111,171.5 C312.511111,93.6217138 249.378286,30.4888889 171.5,30.4888889 C93.6217138,30.4888889 30.4888889,93.6217138 30.4888889,171.5 C30.4888889,249.378286 93.6217138,312.511111 171.5,312.511111 Z M171.5,343 C76.7831654,343 0,266.216835 0,171.5 C0,76.7831654 76.7831654,0 171.5,0 C266.216835,0 343,76.7831654 343,171.5 C343,266.216835 266.216835,343 171.5,343 Z" id="path-60"></path>
        <linearGradient x1="50%" y1="0%" x2="50%" y2="100%" id="linearGradient-61">
            <stop stop-color="#403F9F" stop-opacity="0.4" offset="0%"></stop>
            <stop stop-color="#1F1845" stop-opacity="0" offset="100%"></stop>
        </linearGradient>
        <linearGradient x1="50%" y1="100%" x2="50%" y2="0%" id="linearGradient-62">
            <stop stop-color="#000000" stop-opacity="0.3" offset="0%"></stop>
            <stop stop-color="#6F7981" stop-opacity="0" offset="100%"></stop>
        </linearGradient>
        <path d="M172,305.378378 C245.662844,305.378378 305.378378,245.662844 305.378378,172 C305.378378,98.3371557 245.662844,38.6216216 172,38.6216216 C98.3371557,38.6216216 38.6216216,98.3371557 38.6216216,172 C38.6216216,245.662844 98.3371557,305.378378 172,305.378378 Z M172,313 C94.1278503,313 31,249.87215 31,172 C31,94.1278503 94.1278503,31 172,31 C249.87215,31 313,94.1278503 313,172 C313,249.87215 249.87215,313 172,313 Z" id="path-63"></path>
    </defs>
    <g id="no-news" stroke="none" stroke-width="1" fill="none" fill-rule="evenodd">
        <g id="Spot-01" transform="translate(0.000000, 85.222652)">
            <path d="M186.106346,629.777348 C101.251269,629.777348 13.3835038,545.320614 71.1835334,414.389899 C128.471641,283.344797 43.0444302,249.367053 7.7186964,168.968344 C-28.5503716,89.269854 65.9061116,-70.7805332 271.012007,36.8182753 C475.482647,144.305217 494.46907,222.356502 633.790738,183.556338 C772.614329,144.305217 865.433379,62.0564509 966.552316,115.765069 C1067.71092,169.318454 892.669599,318.738015 929.674099,404.092491 C966.430806,489.436873 1067.71092,629.777348 929.674099,629.777348 C791.389488,629.777348 270.780149,629.777348 186.106346,629.777348 Z" id="Details" fill="#EDF1F6"></path>
            <circle id="Details" fill="#E2EAF5" cx="934" cy="323.777348" r="34"></circle>
            <circle id="Details" fill="#E2EAF5" cx="157" cy="223.777348" r="43"></circle>
            <circle id="Details" fill="#E2EAF5" cx="103" cy="327.777348" r="30"></circle>
            <circle id="Details" fill="#E2EAF5" cx="65" cy="254.777348" r="21"></circle>
        </g>
        <g id="iPhone" transform="translate(330.312500, 57.000000)">
            <g>
                <use fill="#393E41" xlink:href="#path-2"></use>
                <use fill="url(#linearGradient-1)" xlink:href="#path-2"></use>
            </g>
            <mask id="mask-4" fill="white">
                <use xlink:href="#path-3"></use>
            </mask>
            <use id="Screen" fill="#FFFFFF" xlink:href="#path-3"></use>
            <g id="Pagination" mask="url(#mask-4)" fill="#757DC0">
                <g transform="translate(133.687500, 397.000000)">
                    <ellipse cx="63.7650602" cy="9" rx="9.23493976" ry="9"></ellipse>
                    <ellipse cx="36.5" cy="9" rx="9.23493976" ry="9"></ellipse>
                    <ellipse cx="9.23493976" cy="9" rx="9.23493976" ry="9"></ellipse>
                </g>
            </g>
            <path d="M104.059794,656 L297.315206,656 C299.729957,656 301.6875,658.014719 301.6875,660.5 C301.6875,662.985281 299.729957,665 297.315206,665 L104.059794,665 C101.645043,665 99.6875,662.985281 99.6875,660.5 C99.6875,658.014719 101.645043,656 104.059794,656 Z" id="Text" fill="#757DC0" mask="url(#mask-4)"></path>
            <path d="M106.243791,634 L225.131209,634 C228.752148,634 231.6875,636.910149 231.6875,640.5 C231.6875,644.089851 228.752148,647 225.131209,647 L106.243791,647 C102.622852,647 99.6875,644.089851 99.6875,640.5 C99.6875,636.910149 102.622852,634 106.243791,634 Z" id="Text" fill="#757DC0" mask="url(#mask-4)"></path>
            <g id="Photo" mask="url(#mask-4)">
                <g transform="translate(38.687500, 634.000000)">
                    <mask id="mask-6" fill="white">
                        <use xlink:href="#path-5"></use>
                    </mask>
                    <use id="Mask" stroke="none" fill="#F7F7F8" fill-rule="evenodd" xlink:href="#path-5"></use>
                    <g id="Girl" stroke="none" stroke-width="1" fill="none" fill-rule="evenodd" mask="url(#mask-6)">
                        <g transform="translate(-9.680000, -7.406080)">
                            <g id="Hair">
                                <mask id="mask-9" fill="white">
                                    <use xlink:href="#path-8"></use>
                                </mask>
                                <g>
                                    <use fill="#464D89" xlink:href="#path-8"></use>
                                    <use fill="url(#linearGradient-7)" xlink:href="#path-8"></use>
                                </g>
                                <mask id="mask-12" fill="white">
                                    <use xlink:href="#path-11"></use>
                                </mask>
                                <use id="Sh" fill="url(#linearGradient-10)" xlink:href="#path-11"></use>
                            </g>
                            <g id="Neck" transform="translate(26.474595, 42.001086)">
                                <g>
                                    <use fill="#FFC62C" xlink:href="#path-14"></use>
                                    <use fill="url(#linearGradient-13)" xlink:href="#path-14"></use>
                                </g>
                                <path d="M7.5414383,6.71612126 C7.03146364,6.82057201 6.51278945,6.87601727 5.98878924,6.87601727 C4.23773751,6.87601727 2.11521747,6.40585355 0,5.52034326 L0,3.99252616 C0,1.91001548 1.68820847,0.221807009 3.77071915,0.221807009 C5.85322983,0.221807009 7.5414383,1.91001548 7.5414383,3.99252616 L7.5414383,6.71612126 Z" id="Sh" fill="url(#linearGradient-15)"></path>
                            </g>
                            <g id="Face" transform="translate(13.530228, 21.737087)">
                                <g>
                                    <use fill="#FFC62C" xlink:href="#path-17"></use>
                                    <use fill="url(#linearGradient-16)" xlink:href="#path-17"></use>
                                </g>
                                <path d="M18.933157,7.84280652 C17.221851,2.43151715 16.8803115,5.21780996 14.4970168,7.84280652 C12.3187717,10.3716068 6.64729273,14.4698253 3.62847335,9.39545558 C5.45814985,12.5132242 12.3187717,5.91958914 14.4970168,3.40666634 C16.8803115,0.765792265 17.221851,-2.02050054 18.933157,3.40666634 C20.133636,7.00585016 24.4625344,5.58368067 27.8054373,2.74124531 C27.8256279,3.79546057 27.7898152,4.91961389 27.8054373,6.06835045 C27.7898152,7.13221753 20.133636,11.4578679 18.933157,7.84280652 Z" id="Sh" fill="url(#linearGradient-18)"></path>
                            </g>
                        </g>
                    </g>
                </g>
            </g>
            <path d="M104.059794,591 L297.315206,591 C299.729957,591 301.6875,593.014719 301.6875,595.5 C301.6875,597.985281 299.729957,600 297.315206,600 L104.059794,600 C101.645043,600 99.6875,597.985281 99.6875,595.5 C99.6875,593.014719 101.645043,591 104.059794,591 Z" id="Text" fill="#757DC0" mask="url(#mask-4)"></path>
            <path d="M104.059794,573 L297.315206,573 C299.729957,573 301.6875,575.014719 301.6875,577.5 C301.6875,579.985281 299.729957,582 297.315206,582 L104.059794,582 C101.645043,582 99.6875,579.985281 99.6875,577.5 C99.6875,575.014719 101.645043,573 104.059794,573 Z" id="Text" fill="#757DC0" mask="url(#mask-4)"></path>
            <path d="M106.243791,551 L225.131209,551 C228.752148,551 231.6875,553.910149 231.6875,557.5 C231.6875,561.089851 228.752148,564 225.131209,564 L106.243791,564 C102.622852,564 99.6875,561.089851 99.6875,557.5 C99.6875,553.910149 102.622852,551 106.243791,551 Z" id="Text" fill="#757DC0" mask="url(#mask-4)"></path>
            <g id="Photo" mask="url(#mask-4)">
                <g transform="translate(38.687500, 551.000000)">
                    <mask id="mask-20" fill="white">
                        <use xlink:href="#path-19"></use>
                    </mask>
                    <use id="Mask" stroke="none" fill="#F7F7F8" fill-rule="evenodd" xlink:href="#path-19"></use>
                    <g id="Man" stroke="none" stroke-width="1" fill="none" fill-rule="evenodd" mask="url(#mask-20)">
                        <g transform="translate(20.340000, 26.140000) scale(-1, 1) translate(-20.340000, -26.140000) translate(2.840000, 2.640000)">
                            <g id="Nack" fill="none">
                                <use fill="#FFC62C" xlink:href="#path-22"></use>
                                <use fill="url(#linearGradient-21)" xlink:href="#path-22"></use>
                            </g>
                            <path d="M22.5385075,33.6537143 C20.2889494,36.6697701 16.358999,38.72 13.8304478,38.72 C13.1905087,38.72 12.3397781,38.5416316 11.44,38.2297143 L11.9522388,27.28 L22.88,27.28 L22.5385075,33.6537143 L22.5385075,33.6537143 Z" id="Sh" fill="url(#linearGradient-23)"></path>
                            <g id="Face" stroke-width="1" fill="none">
                                <g id="Group-15" transform="translate(11.968749, 27.428649)"></g>
                                <g id="Group-16">
                                    <g id="Rectangle-30">
                                        <use fill="#FFC62C" xlink:href="#path-25"></use>
                                        <use fill="url(#linearGradient-24)" xlink:href="#path-25"></use>
                                    </g>
                                    <g id="Combined-Shape">
                                        <use fill="#1F1845" xlink:href="#path-27"></use>
                                        <use fill="url(#linearGradient-26)" xlink:href="#path-27"></use>
                                    </g>
                                    <g id="Group-17" transform="translate(20.945310, 20.954807)">
                                        <g id="Oval-20">
                                            <use fill="#FFC62C" xlink:href="#path-29"></use>
                                            <use fill="url(#linearGradient-28)" xlink:href="#path-29"></use>
                                        </g>
                                        <ellipse id="Oval-21" fill="url(#linearGradient-30)" cx="2.11213209" cy="3.91837848" rx="1.40808806" ry="1.36291425"></ellipse>
                                    </g>
                                    <path d="M21.1839966,21.6329415 C21.0206955,21.6351503 20.74825,21.6362638 20.6812934,21.6362638 C17.7354399,21.6362638 15.3096758,19.4809346 14.9953908,16.7106115 C14.1104271,17.1372212 13.1125393,17.3771567 12.056754,17.3771567 C10.4874524,17.3771567 9.04606546,16.8470586 7.91329685,15.9617686 C7.41518312,16.212971 6.84891953,16.3549711 6.24839077,16.3549711 C5.44353545,16.3549711 4.70022911,16.0999028 4.10004647,15.6687239 C3.21363573,16.8789486 2.58592568,18.279195 2.29491274,19.7939686 C2.24043333,19.3487996 2.17950645,18.8555302 2.11213209,18.3141603 C2.11213209,16.0593106 2.84803172,13.9708254 4.10004693,12.2614376 C4.70022911,12.6926171 5.44353545,12.9476854 6.24839077,12.9476854 C6.84891953,12.9476854 7.41518312,12.8056854 7.91329685,12.5544829 C9.04606546,13.439773 10.4874524,13.9698711 12.056754,13.9698711 C13.1125393,13.9698711 14.1104271,13.7299356 14.9953908,13.3033259 C15.3096758,16.073649 17.7354399,18.2289782 20.6812934,18.2289782 C20.7688725,18.2289782 20.8559919,18.2270732 20.9426098,18.2233037 C20.8294037,18.6613929 20.9042276,19.1401274 20.9426098,19.6117982 C21.1159206,21.7415807 21.234293,21.6322612 21.1839966,21.6329415 Z" id="Combined-Shape" fill="url(#linearGradient-31)"></path>
                                </g>
                            </g>
                        </g>
                    </g>
                </g>
            </g>
            <path d="M104.049202,507 L218.325798,507 C220.734699,507 222.6875,509.014719 222.6875,511.5 C222.6875,513.985281 220.734699,516 218.325798,516 L104.049202,516 C101.640301,516 99.6875,513.985281 99.6875,511.5 C99.6875,509.014719 101.640301,507 104.049202,507 Z" id="Text" fill="#757DC0" mask="url(#mask-4)"></path>
            <path d="M104.059794,490 L297.315206,490 C299.729957,490 301.6875,492.014719 301.6875,494.5 C301.6875,496.985281 299.729957,499 297.315206,499 L104.059794,499 C101.645043,499 99.6875,496.985281 99.6875,494.5 C99.6875,492.014719 101.645043,490 104.059794,490 Z" id="Text" fill="#757DC0" mask="url(#mask-4)"></path>
            <path d="M104.059794,472 L297.315206,472 C299.729957,472 301.6875,474.014719 301.6875,476.5 C301.6875,478.985281 299.729957,481 297.315206,481 L104.059794,481 C101.645043,481 99.6875,478.985281 99.6875,476.5 C99.6875,474.014719 101.645043,472 104.059794,472 Z" id="Text" fill="#757DC0" mask="url(#mask-4)"></path>
            <path d="M106.243791,451 L225.131209,451 C228.752148,451 231.6875,453.910149 231.6875,457.5 C231.6875,461.089851 228.752148,464 225.131209,464 L106.243791,464 C102.622852,464 99.6875,461.089851 99.6875,457.5 C99.6875,453.910149 102.622852,451 106.243791,451 Z" id="Text" fill="#757DC0" mask="url(#mask-4)"></path>
            <g id="Photo" mask="url(#mask-4)">
                <g transform="translate(38.687500, 451.000000)">
                    <mask id="mask-33" fill="white">
                        <use xlink:href="#path-32"></use>
                    </mask>
                    <use id="Mask" stroke="none" fill="#F7F7F8" fill-rule="evenodd" xlink:href="#path-32"></use>
                    <g id="Girl" stroke="none" stroke-width="1" fill="none" fill-rule="evenodd" mask="url(#mask-33)">
                        <g transform="translate(-8.800000, -1.760000)">
                            <g id="Hair" stroke-width="1" fill="none" fill-rule="evenodd">
                                <g>
                                    <use fill="#1F1845" xlink:href="#path-35"></use>
                                    <use fill="url(#linearGradient-34)" xlink:href="#path-35"></use>
                                </g>
                                <path d="M41.6947209,25.0926962 C46.0993465,29.5375908 54.8953226,35.2368068 52.2971429,45.0895238 C50.0548597,53.826959 41.0253586,58.3558359 31.4671354,58.7842424 C21.3398724,55.9491058 13.912381,46.6514685 13.912381,35.6190476 C13.912381,31.2623893 15.0706449,27.176258 17.0960343,23.6517921 C17.4775306,25.5060011 18.5201946,26.9866667 20.2819048,26.9866667 C21.8522026,31.393719 25.6226854,34.8647619 31.3447619,34.8647619 C37.0668385,34.8647619 40.1333945,31.0744616 41.2342857,28.4952381 C41.7096131,27.3816171 41.7744801,26.349247 41.6947209,25.0926962 Z" id="Sh" fill="url(#linearGradient-36)"></path>
                            </g>
                            <g id="Body" stroke-width="1" fill="none" fill-rule="evenodd" transform="translate(19.108571, 35.535238)">
                                <g>
                                    <use fill="#403F9F" xlink:href="#path-38"></use>
                                    <use fill="url(#linearGradient-37)" xlink:href="#path-38"></use>
                                </g>
                                <path d="M6.17777435,25.7972674 L5.19619048,21.5827514 L6.17777435,16.7619048 C10.0888855,24.0146862 12.044441,27.641077 12.044441,27.641077 C9.61731483,27.641077 7.66175927,27.0264738 6.17777435,25.7972674 Z" id="Sh" fill="url(#linearGradient-39)"></path>
                            </g>
                            <g id="Neck" stroke-width="1" fill="none" fill-rule="evenodd" transform="translate(28.662857, 34.194286)">
                                <mask id="mask-41" fill="white">
                                    <use xlink:href="#path-40"></use>
                                </mask>
                                <use fill="#FF6663" xlink:href="#path-40"></use>
                                <mask id="mask-44" fill="white">
                                    <use xlink:href="#path-43"></use>
                                </mask>
                                <use id="Sh" fill="url(#linearGradient-42)" xlink:href="#path-43"></use>
                            </g>
                            <g id="Face" stroke-width="1" fill="none" fill-rule="evenodd" transform="translate(16.929524, 18.270476)">
                                <path d="M0,3.68761905 C0,1.09144171 2.41081429,0.511125713 3.35238095,0.838095238 C8.39394312,2.58883392 17.564477,3.13133067 24.3047619,0 C24.3047619,5.50215884 25.4056531,7.64553836 24.3047619,10.2247619 C23.2038707,12.8039854 20.1373146,16.5942857 14.4152381,16.5942857 C8.69316155,16.5942857 4.92267879,13.1232428 3.35238095,8.71619048 C1.07582858,8.71619048 0,6.24365019 0,3.68761905 Z" fill="#FF6663"></path>
                                <path d="M3.353433,0.838460536 C8.39521881,2.58890937 17.5649458,3.13111287 24.3047619,0 C24.3047619,2.36084488 24.5074429,4.10331731 24.6519082,5.52717591 C24.6479407,5.52859656 24.6439713,5.53001411 24.64,5.53142857 C17.9994867,7.89660614 9.15954861,6.16983841 3.353433,0.838460536 Z" id="Sh" fill="url(#linearGradient-45)"></path>
                                <circle id="Sh" fill="url(#linearGradient-46)" cx="2.59809524" cy="4.60952381" r="1.59238095"></circle>
                            </g>
                            <path d="M23.9695238,68.8914286 C23.8769504,68.8914286 23.8019048,68.816383 23.8019048,68.7238095 C23.8019048,68.6312361 23.8769504,68.5561905 23.9695238,68.5561905 C24.6923838,68.5561905 25.4573369,68.3300627 26.0579759,67.8391814 C26.8617811,67.1822594 27.3219048,66.1054988 27.3219048,64.5333333 C27.3219048,64.4407599 27.3969504,64.3657143 27.4895238,64.3657143 C27.5820973,64.3657143 27.6571429,64.4407599 27.6571429,64.5333333 C27.6571429,66.2017474 27.1558301,67.374897 26.2701187,68.0987579 C25.6038631,68.6432654 24.7643681,68.8914286 23.9695238,68.8914286 Z" id="Line" fill="#FFFFFF" fill-rule="nonzero"></path>
                        </g>
                    </g>
                </g>
            </g>
            <g id="Image" mask="url(#mask-4)">
                <g transform="translate(38.687500, 174.000000)">
                    <mask id="mask-48" fill="white">
                        <use xlink:href="#path-47"></use>
                    </mask>
                    <use id="Image" stroke="none" fill="#757DC0" fill-rule="evenodd" xlink:href="#path-47"></use>
                    <ellipse id="Sun" stroke="none" fill="#FFFDFD" fill-rule="evenodd" mask="url(#mask-48)" cx="131.5" cy="175.757447" rx="105.287375" ry="105.629787"></ellipse>
                    <g id="Grass" stroke="none" fill="none" mask="url(#mask-48)" fill-rule="evenodd">
                        <use fill="#464D89" xlink:href="#path-50"></use>
                        <use fill="url(#linearGradient-49)" xlink:href="#path-50"></use>
                    </g>
                    <g id="Tree" stroke="none" stroke-width="1" fill="none" fill-rule="evenodd" mask="url(#mask-48)">
                        <g transform="translate(145.043189, 11.395745)" id="Detail">
                            <path d="M57.58668,164.832883 C42.6223129,161.410474 31.4551495,147.977423 31.4551495,131.92766 L31.4551495,124.914894 L48.9302326,124.914894 L48.9302326,131.92766 C48.9302326,138.952453 53.3822996,144.934029 59.6101149,147.187364 L65.5315615,95.5489362 L117.083056,95.5489362 L128.44186,194.604255 L54.1727575,194.604255 L57.58668,164.832883 Z" fill="#383D40"></path>
                            <path d="M156.398038,38.6876871 C171.617049,43.6656867 182.614618,58.0188247 182.614618,74.9489362 C182.614618,96.0086112 165.59772,113.080851 144.606312,113.080851 C136.44498,113.080851 128.884437,110.500199 122.69119,106.107893 C115.844248,116.140596 104.342035,122.723404 91.307309,122.723404 C78.272583,122.723404 66.7703702,116.140596 59.9234275,106.107893 C53.7301808,110.500199 46.1696381,113.080851 38.0083056,113.080851 C17.0168981,113.080851 0,96.0086112 0,74.9489362 C0,58.0188247 10.9975691,43.6656867 26.2165795,38.6876871 C26.2139459,38.5027453 26.2126246,38.3174849 26.2126246,38.1319149 C26.2126246,17.0722398 43.2295227,0 64.2209302,0 C74.824099,0 84.4131888,4.35590829 91.307309,11.3813676 C98.2014291,4.35590829 107.790519,0 118.393688,0 C139.385095,0 156.401993,17.0722398 156.401993,38.1319149 C156.401993,38.3174849 156.400672,38.5027453 156.398038,38.6876871 Z" fill="#464D89"></path>
                            <g fill="none">
                                <use fill="#5B64B0" xlink:href="#path-52"></use>
                                <use fill="url(#linearGradient-51)" xlink:href="#path-52"></use>
                            </g>
                        </g>
                    </g>
                    <g id="Grass" stroke="none" fill="none" mask="url(#mask-48)" fill-rule="evenodd">
                        <use fill="#5A64AF" xlink:href="#path-54"></use>
                        <use fill="url(#linearGradient-53)" xlink:href="#path-54"></use>
                    </g>
                </g>
            </g>
            <path d="M45.2612052,144 L252.113795,144 C255.744352,144 258.6875,146.910149 258.6875,150.5 C258.6875,154.089851 255.744352,157 252.113795,157 L45.2612052,157 C41.6306481,157 38.6875,154.089851 38.6875,150.5 C38.6875,146.910149 41.6306481,144 45.2612052,144 Z" id="Text" fill="#757DC0" mask="url(#mask-4)"></path>
            <path d="M45.2406561,117 L295.134344,117 C298.753552,117 301.6875,119.910149 301.6875,123.5 C301.6875,127.089851 298.753552,130 295.134344,130 L45.2406561,130 C41.6214479,130 38.6875,127.089851 38.6875,123.5 C38.6875,119.910149 41.6214479,117 45.2406561,117 Z" id="Text" fill="#757DC0" mask="url(#mask-4)"></path>
            <path d="M51.8425802,74 L189.53242,74 C196.79777,74 202.6875,79.8202983 202.6875,87 C202.6875,94.1797017 196.79777,100 189.53242,100 L51.8425802,100 C44.57723,100 38.6875,94.1797017 38.6875,87 C38.6875,79.8202983 44.57723,74 51.8425802,74 Z" id="Text" fill="#757DC0" mask="url(#mask-4)"></path>
        </g>
        <g id="Lupa" transform="translate(398.000000, 191.000000)">
            <g id="Detail">
                <use fill="#D6DFEA" xlink:href="#path-56"></use>
                <use fill="url(#linearGradient-55)" xlink:href="#path-56"></use>
            </g>
            <g id="Detail">
                <use fill="#393E41" xlink:href="#path-58"></use>
                <use fill="url(#linearGradient-57)" xlink:href="#path-58"></use>
            </g>
            <g id="Detail" fill-rule="nonzero">
                <use fill="#393E41" xlink:href="#path-60"></use>
                <use fill="url(#linearGradient-59)" xlink:href="#path-60"></use>
            </g>
            <path d="M175.216374,57 C181.724291,57 187,62.2757089 187,68.7836257 C187,75.2915425 181.724291,80.5672515 175.216374,80.5672515 C122.943107,80.5672515 80.5672515,122.943107 80.5672515,175.216374 C80.5672515,181.724291 75.2915425,187 68.7836257,187 C62.2757089,187 57,181.724291 57,175.216374 C57,109.927274 109.927274,57 175.216374,57 Z" id="Detail" fill="#FFFFFF" fill-rule="nonzero" opacity="0.300000012"></path>
            <circle id="Detail" fill="url(#linearGradient-61)" cx="171.5" cy="171.5" r="133.5"></circle>
            <g id="Detail" fill-rule="nonzero">
                <use fill="#6F7981" xlink:href="#path-63"></use>
                <use fill="url(#linearGradient-62)" xlink:href="#path-63"></use>
            </g>
        </g>
    </g>
</svg>