<?xml version="1.0" encoding="UTF-8"?>
<svg width="1000px" height="800px" viewBox="0 0 1000 800" version="1.1" xmlns="http://www.w3.org/2000/svg" xmlns:xlink="http://www.w3.org/1999/xlink">
    <title>no-rules</title>
    <defs>
        <linearGradient x1="50%" y1="0%" x2="50%" y2="100%" id="linearGradient-1">
            <stop stop-color="#A7A7EE" stop-opacity="0" offset="0%"></stop>
            <stop stop-color="#4C55A0" stop-opacity="0.2" offset="100%"></stop>
        </linearGradient>
        <path d="M42.7502713,461.417824 C37.6543346,469.982948 30.4492601,496.584428 30.4492601,503.479589 C30.4492601,510.37475 52.0882379,502.770849 56.2139963,484.969029 C60.3397547,467.16721 64.4492601,473.434373 64.4492601,464.187424 C64.4492601,454.940474 47.8462081,452.852701 42.7502713,461.417824 Z" id="path-2"></path>
        <linearGradient x1="50%" y1="0%" x2="50%" y2="100%" id="linearGradient-3">
            <stop stop-color="#A7A7EE" stop-opacity="0" offset="0%"></stop>
            <stop stop-color="#4C55A0" stop-opacity="0.2" offset="100%"></stop>
        </linearGradient>
        <path d="M132.757681,461.370164 C128.96455,471.353445 133.749261,494.452647 142.843268,505.046345 C151.937274,515.640043 161.082288,494.687931 157.747593,490.003164 C154.412897,485.318398 146.520482,476.135905 146.520482,463.569538 C146.520482,451.003171 136.550812,451.386884 132.757681,461.370164 Z" id="path-4"></path>
        <linearGradient x1="50%" y1="0%" x2="50%" y2="100%" id="linearGradient-5">
            <stop stop-color="#A7A7EE" stop-opacity="0" offset="0%"></stop>
            <stop stop-color="#4C55A0" stop-opacity="0.2" offset="100%"></stop>
        </linearGradient>
        <linearGradient x1="40.7971454%" y1="45.0846073%" x2="61.7824489%" y2="50%" id="linearGradient-6">
            <stop stop-color="#464D89" stop-opacity="0.6" offset="0%"></stop>
            <stop stop-color="#A7A7EE" stop-opacity="0" offset="100%"></stop>
        </linearGradient>
        <path d="M114.07426,179.271605 C124.415471,192.06702 115.268139,229.314029 122.19926,238.401235 C129.705827,247.318138 145.49623,257.663011 152.82426,275.91358 C159.960082,294.381743 110.528424,256.559473 105.94926,249.845679 C100.783652,242.577297 104.12121,166.772966 114.07426,179.271605 Z" id="path-7"></path>
        <linearGradient x1="50%" y1="0%" x2="50%" y2="100%" id="linearGradient-8">
            <stop stop-color="#403F9F" stop-opacity="0" offset="0%"></stop>
            <stop stop-color="#000000" stop-opacity="0.2" offset="100%"></stop>
        </linearGradient>
        <path d="M53.3892601,252.083143 C37.0940328,281.520216 29.4492601,322.717729 29.4492601,355.449132 C29.4492601,377.270067 32.7626236,413.039109 39.3893507,462.756256 C40.8297184,466.918752 45.164129,469 52.3925827,469 C59.6210364,469 63.9088694,466.918752 65.2560817,462.756256 C68.8134592,423.264093 70.592148,397.362177 70.592148,385.05051 C70.592148,366.583008 80.8552182,302.087706 86.03548,302.087706 C91.2157419,302.087706 103.195269,354.388644 110.004423,385.05051 C114.54386,405.491754 121.511489,431.393669 130.90731,462.756256 C131.855355,466.918752 135.831886,469 142.836905,469 C149.841923,469 154.046042,466.918752 155.44926,462.756256 C152.329855,385.101313 148.125736,335.070632 142.836905,312.664214 C135.751558,282.646765 118.27926,252.083143 118.27926,252.083143 C118.27926,252.083143 69.6844874,222.646071 53.3892601,252.083143 Z" id="path-9"></path>
        <linearGradient x1="50%" y1="0%" x2="50%" y2="100%" id="linearGradient-10">
            <stop stop-color="#403F9F" stop-opacity="0" offset="0%"></stop>
            <stop stop-color="#000000" stop-opacity="0.2" offset="100%"></stop>
        </linearGradient>
        <path d="M59.1945113,192.484474 C28.0119764,187.66036 -17.7693712,148.255455 7.71736826,97.266636 C33.2041077,46.2778166 74.0855213,75.9152705 97.6418494,32.2327105 C121.198177,-11.4498495 176.794623,-5.93493761 203.542045,24.6958809 C230.289468,55.3266994 230.289468,102.950034 187.12256,147.497525 C143.955653,192.045016 90.3770462,197.308589 59.1945113,192.484474 Z" id="path-11"></path>
        <linearGradient x1="0%" y1="35.3264467%" x2="100%" y2="64.6735533%" id="linearGradient-13">
            <stop stop-color="#000000" stop-opacity="0.3" offset="0%"></stop>
            <stop stop-color="#1F1845" stop-opacity="0" offset="100%"></stop>
        </linearGradient>
        <path d="M215.985833,104.06572 C210.495552,118.413391 201.058626,133.11575 187.12256,147.497525 C159.422249,176.083761 127.434586,188.493583 99.8287488,192.44185 C70.7815221,185.263656 49.3480238,168.702523 53.3244961,137.546417 C62.9818345,61.8800869 169.004468,181.443163 215.985833,104.06572 L215.985833,104.06572 Z" id="path-14"></path>
        <linearGradient x1="50%" y1="0%" x2="50%" y2="100%" id="linearGradient-16">
            <stop stop-color="#A7A7EE" stop-opacity="0" offset="0%"></stop>
            <stop stop-color="#4C55A0" stop-opacity="0.2" offset="100%"></stop>
        </linearGradient>
        <path d="M53.3292672,252.068242 C59.9612503,239.05357 60.9219902,241.336182 55.8464342,227.232614 C51.8714271,212.768 45.7718897,211.703061 42.6313073,194.325407 C40.5152021,177.28828 57.1144523,159.721642 78.5009375,170.110669 C99.4699304,180.568409 97.1648439,173.791749 109.965525,179.42403 C122.825538,185.54452 120.608151,198.909778 114.999859,212.331237 C109.0557,225.774893 108.859953,238.793757 118.146318,252.068242 C126.523227,265.440174 47.0682342,265.180361 53.3292672,252.068242 Z" id="path-17"></path>
        <linearGradient x1="50%" y1="0%" x2="50%" y2="100%" id="linearGradient-18">
            <stop stop-color="#FFC62C" stop-opacity="0" offset="0%"></stop>
            <stop stop-color="#FF6663" stop-opacity="0.1" offset="100%"></stop>
        </linearGradient>
        <rect id="path-19" x="78.4492601" y="149" width="18" height="34" rx="9"></rect>
        <linearGradient x1="50%" y1="0%" x2="50%" y2="100%" id="linearGradient-20">
            <stop stop-color="#FFC62C" stop-opacity="0" offset="0%"></stop>
            <stop stop-color="#FF6663" stop-opacity="0.1" offset="100%"></stop>
        </linearGradient>
        <path d="M49.9477917,143.289601 C47.637614,143.134095 45.2138384,140.882171 45.2138384,134.942213 C45.2138384,127.230789 39.4492601,124.806536 39.4492601,119.65519 C39.4492601,114.503845 44.9209169,112.390136 47.7463146,115.807503 C50.2602894,110.131788 54.6508556,112.141808 73.6024121,107.091377 C92.5539686,102.040946 99.9660843,88.0695655 115.656016,94.7957936 C115.758099,97.7643486 115.655882,107.333166 115.656016,110.613875 C115.655882,113.576063 119.44926,117.493463 119.44926,131.340253 C119.44926,145.058706 104.875911,164 88.471099,164 C76.5860594,164 57.3352304,157.186114 49.9477917,143.289601 L49.9477917,143.289601 Z" id="path-21"></path>
        <linearGradient x1="100%" y1="43.5843172%" x2="0%" y2="56.4156828%" id="linearGradient-22">
            <stop stop-color="#000000" stop-opacity="0.2" offset="0%"></stop>
            <stop stop-color="#FFC42C" stop-opacity="0" offset="100%"></stop>
        </linearGradient>
        <linearGradient x1="50%" y1="0%" x2="50%" y2="100%" id="linearGradient-23">
            <stop stop-color="#A7A7EE" stop-opacity="0" offset="0%"></stop>
            <stop stop-color="#4C55A0" stop-opacity="0.2" offset="100%"></stop>
        </linearGradient>
        <path d="M50.3053523,208.314206 C31.7477664,199.403137 47.7073677,141.936764 50.3053523,120.19602 C52.9033369,98.4552751 56.6589455,63.1705174 56.6589455,55.9075908 C56.6589455,48.6446642 71.4492601,47.4399406 71.4492601,55.9075908 C71.4492601,64.3752409 68.8629382,103.744915 68.8629382,120.19602 C68.8629382,136.647125 68.8629382,217.225276 50.3053523,208.314206 Z" id="path-24"></path>
        <linearGradient x1="50%" y1="0%" x2="50%" y2="100%" id="linearGradient-25">
            <stop stop-color="#FFC62C" stop-opacity="0" offset="0%"></stop>
            <stop stop-color="#FF6663" stop-opacity="0.1" offset="100%"></stop>
        </linearGradient>
        <path d="M57.3903424,55.1961983 C57.3903424,47.9083071 52.7047447,42.7508468 41.8495106,44.1809706 C30.9942766,45.6110945 24.9784312,47.8237684 26.7587119,44.1809706 C27.6320031,42.3940486 32.6335208,39.004893 43.0997624,37.4001707 C45.6050917,37.0160445 50.9765464,37.2617773 59.2141264,38.1373693 C63.8110749,36.5425124 67.7478121,36.2967796 71.024338,37.4001707 C75.9391269,39.0552574 82.859758,33.5442472 86.0796524,37.4001707 C89.2995467,41.2560943 70.4055163,42.4397611 71.024338,46.4834645 C71.6431596,50.5271679 71.6431596,54.0536724 71.6431596,57.0704009 C71.6431596,60.0871294 57.3903424,62.4840895 57.3903424,55.1961983 Z" id="path-26"></path>
        <linearGradient x1="50%" y1="0%" x2="50%" y2="100%" id="linearGradient-27">
            <stop stop-color="#FFC62C" stop-opacity="0" offset="0%"></stop>
            <stop stop-color="#FF6663" stop-opacity="0.1" offset="100%"></stop>
        </linearGradient>
        <path d="M141.529947,275.997386 C149.990977,282.892265 155.530736,282.82801 152.756889,292.351227 C149.983043,301.874444 144.028645,302.275148 146.656998,305.457979 C149.285351,308.64081 155.582108,296.833891 162.451926,295.265004 C169.321744,293.696117 189.751959,296.48903 192.670785,292.351227 C195.589611,288.213424 190.31302,286.849481 176.629976,285.257895 C162.946933,283.666309 149.543007,267.467603 145.444274,262.578787 C142.602879,259.189678 136.137456,271.603055 141.529947,275.997386 Z" id="path-28"></path>
        <linearGradient x1="100%" y1="61.7669551%" x2="0%" y2="40.1234568%" id="linearGradient-29">
            <stop stop-color="#000000" stop-opacity="0.2" offset="0%"></stop>
            <stop stop-color="#FFC42C" stop-opacity="0" offset="100%"></stop>
        </linearGradient>
        <linearGradient x1="50%" y1="0%" x2="50%" y2="100%" id="linearGradient-30">
            <stop stop-color="#1F1845" stop-opacity="0" offset="0%"></stop>
            <stop stop-color="#000000" stop-opacity="0.1" offset="100%"></stop>
        </linearGradient>
        <path d="M141.95057,67.7627747 C185.812604,69.6768736 220.783868,105.763504 220.783868,150 L55.7838682,150 C55.7838682,105.763504 90.7551322,69.6768736 134.617166,67.7627747 L134.617202,3.65853659 C134.617202,1.63798262 136.258824,0 138.283868,0 C140.308912,0 141.950535,1.63798262 141.950535,3.65853659 L141.950535,67.7627731 L141.95057,67.7627747 Z" id="path-31"></path>
        <linearGradient x1="50%" y1="0%" x2="50%" y2="100%" id="linearGradient-32">
            <stop stop-color="#FEEC80" offset="0%"></stop>
            <stop stop-color="#FFFFFF" stop-opacity="0" offset="100%"></stop>
        </linearGradient>
    </defs>
    <g id="no-rules" stroke="none" stroke-width="1" fill="none" fill-rule="evenodd">
        <g id="Schedule" transform="translate(-1.000000, 186.083101)">
            <path d="M9.37264801,128.916899 C37.0979085,128.916899 362.528105,128.916899 362.528105,128.916899 C362.528105,128.916899 372.098271,90.9048336 305.042748,103.575522 C237.987225,116.246211 248.483216,80.4971202 208.350902,72.2439169 C168.218587,63.9907136 148.984188,97.6232159 87.8054296,80.4971202 C26.6266717,63.3710246 -18.3526125,128.916899 9.37264801,128.916899 Z" id="Detail" fill="#EDF1F6"></path>
            <path d="M640.345802,57.9168991 C656.710035,57.9168991 755.991359,57.9168991 833.818783,57.9168991 C896.774221,57.9168991 875.74979,0.916899076 838.686058,0.916899076 C786.795435,0.916899076 779.509695,26.4426432 718.527099,9.21772552 C657.544503,-8.00719213 612.709439,57.9168991 640.345802,57.9168991 Z" id="Detail" fill="#EDF1F6"></path>
            <path d="M930,517.916899 L73,517.916899 C76.2535528,441.667728 121.781525,403.543143 158.7,403.543143 C195.618475,403.543143 214.496587,467.888421 244.4,467.803396 C323.614686,468.026492 280.63899,217.602464 330.1,217.235881 C379.682872,217.602464 367.627968,346.923787 415.8,347.075412 C464.155067,346.879247 431.186491,129.916899 501.5,129.916899 C571.504994,129.916899 514.747624,468.026492 587.2,467.803396 C660.509996,468.026492 618.282924,246.866956 672.9,246.848406 C728.021326,246.866956 699.070629,346.879247 758.6,347.075412 C818.280252,346.879247 784.927242,129.916899 844.3,129.916899 C883.746846,129.916899 911.705711,259.250232 930,517.916899 Z" id="Detail" stroke="#E2EAF5" stroke-width="10" fill="#EDF1F6" stroke-linecap="round" stroke-linejoin="round"></path>
            <circle id="Detail" fill="#E2EAF5" cx="244" cy="465.916899" r="11"></circle>
            <circle id="Detail" fill="#E2EAF5" cx="500" cy="130.916899" r="11"></circle>
            <circle id="Detail" fill="#E2EAF5" cx="414" cy="344.916899" r="11"></circle>
            <circle id="Detail" fill="#E2EAF5" cx="590" cy="465.916899" r="11"></circle>
            <circle id="Detail" fill="#E2EAF5" cx="676" cy="248.916899" r="11"></circle>
            <circle id="Detail" fill="#E2EAF5" cx="757" cy="344.916899" r="11"></circle>
            <circle id="Detail" fill="#E2EAF5" cx="843" cy="129.916899" r="11"></circle>
            <path d="M128.550063,536.916899 C106.569856,536.916899 -23.560451,470.666202 3.74828076,446.572968 C30.8443106,422.090147 68.4077744,479.351421 78.3249554,452.64651 C87.629136,425.324801 -7.21469655,413.004917 8.31419961,372.931277 C22.8178924,333.73288 113.445649,406.937624 80.6079148,361.543387 C47.5597711,315.741456 46.8590198,235.923663 86.6958066,229.443858 C126.319192,222.775929 133.780753,280.20298 113.330333,355.469845 C92.5580235,431.665833 149.008303,290.607802 179.536157,326.620523 C209.762186,362.835681 106.044398,428.765306 126.267103,444.29539 C146.732884,459.903946 204.08236,346.269228 214.541535,420.001224 C221.350897,466.080404 150.397794,536.916899 128.550063,536.916899 Z" id="Detail" fill="#B6C5D9"></path>
            <path d="M883.960087,531.916899 C770.594818,459.587377 866.606149,435.866379 873.658917,420.935284 C880.975524,405.780522 836.108785,371.242451 850.767428,351.142722 C865.313142,332.136329 903.969674,360.305839 904.180902,337.794418 C903.969674,315.229928 869.011102,309.033341 857.25335,270.290137 C846.598565,231.543792 919.814417,212.230069 938.136611,266.094956 C955.967282,319.593351 926.815647,342.481106 949.20083,345.422021 C971.741714,349.33748 997.203949,337.994301 999.943631,362.584126 C1002.16677,387.596766 937.89085,402.441084 938.136611,425.511846 C937.89085,447.802851 1019.94116,501.708361 883.960087,531.916899 Z" id="Detail" fill="#B6C5D9"></path>
            <path d="M26.3967136,513.916899 L974.603286,513.916899 C980.897518,513.916899 986,518.841767 986,524.916899 C986,530.992031 980.897518,535.916899 974.603286,535.916899 L26.3967136,535.916899 C20.1024825,535.916899 15,530.992031 15,524.916899 C15,518.841767 20.1024825,513.916899 26.3967136,513.916899 Z" id="Detail" fill="#D3E0F1"></path>
        </g>
        <g id="Girl-Jumping" transform="translate(409.550740, 264.000000)">
            <g id="Ler-L">
                <use fill="#A7A7EE" xlink:href="#path-2"></use>
                <use fill="url(#linearGradient-1)" xlink:href="#path-2"></use>
            </g>
            <g id="Leg-R">
                <use fill="#A7A7EE" xlink:href="#path-4"></use>
                <use fill="url(#linearGradient-3)" xlink:href="#path-4"></use>
            </g>
            <g id="Hand-R">
                <use fill="#A7A7EE" xlink:href="#path-7"></use>
                <use fill="url(#linearGradient-5)" xlink:href="#path-7"></use>
                <use fill="url(#linearGradient-6)" xlink:href="#path-7"></use>
            </g>
            <g id="Legs">
                <use fill="#464D89" xlink:href="#path-9"></use>
                <use fill="url(#linearGradient-8)" xlink:href="#path-9"></use>
            </g>
            <g id="Hair" transform="translate(0.449260, 0.000000)">
                <mask id="mask-12" fill="white">
                    <use xlink:href="#path-11"></use>
                </mask>
                <g>
                    <use fill="#464D89" xlink:href="#path-11"></use>
                    <use fill="url(#linearGradient-10)" xlink:href="#path-11"></use>
                </g>
                <mask id="mask-15" fill="white">
                    <use xlink:href="#path-14"></use>
                </mask>
                <use id="Sh" fill="url(#linearGradient-13)" xlink:href="#path-14"></use>
            </g>
            <g id="Body">
                <use fill="#A7A7EE" xlink:href="#path-17"></use>
                <use fill="url(#linearGradient-16)" xlink:href="#path-17"></use>
            </g>
            <g id="Nack">
                <use fill="#FFC62C" xlink:href="#path-19"></use>
                <use fill="url(#linearGradient-18)" xlink:href="#path-19"></use>
            </g>
            <g id="Face">
                <use fill="#FFC62C" xlink:href="#path-21"></use>
                <use fill="url(#linearGradient-20)" xlink:href="#path-21"></use>
            </g>
            <path d="M94.0277246,112.818097 C82.9144777,118.517179 56.7728649,122.092766 47.4492601,109.351585 C50.5100782,107.223764 56.9436198,111.777687 72.9953783,107.588497 C91.6565489,102.718301 98.9550922,89.2455184 114.404614,95.731707 C114.485333,98.0304384 114.436329,104.433379 114.41396,108.504893 C110.635577,108.525672 105.140972,107.119016 94.0277246,112.818097 Z" id="Sh" fill="url(#linearGradient-22)"></path>
            <g id="Hand-L">
                <use fill="#A7A7EE" xlink:href="#path-24"></use>
                <use fill="url(#linearGradient-23)" xlink:href="#path-24"></use>
            </g>
            <g id="Hand-L">
                <use fill="#FFC62C" xlink:href="#path-26"></use>
                <use fill="url(#linearGradient-25)" xlink:href="#path-26"></use>
            </g>
            <g id="Hand-R">
                <use fill="#FFC62C" xlink:href="#path-28"></use>
                <use fill="url(#linearGradient-27)" xlink:href="#path-28"></use>
            </g>
            <path d="M78.4492601,163 C82.6693687,164.181278 86.7444184,164.768504 90.1899923,164.768504 C92.3173058,164.768504 94.4133041,164.441902 96.4492601,163.843637 L96.4492601,170.075134 C94.4133041,170.673398 92.3173058,171 90.1899923,171 C86.7444184,171 82.6693687,170.412775 78.4492601,169.231496 L78.4492601,163 L78.4492601,163 Z" id="Sh" fill="url(#linearGradient-29)"></path>
        </g>
        <g id="Lamp" transform="translate(361.216132, 0.000000)">
            <g id="Detail">
                <use fill="#1F1845" xlink:href="#path-31"></use>
                <use fill="url(#linearGradient-30)" xlink:href="#path-31"></use>
            </g>
            <polygon id="Shine" fill="url(#linearGradient-32)" opacity="0.800000012" points="55.5753715 150 219.957336 150 274.783868 290 0.783868236 290"></polygon>
            <path d="M110.783868,150 C110.783868,165.463973 123.096038,178 138.283868,178 C153.471699,178 165.783868,165.463973 165.783868,150 L110.783868,150 Z" fill="#FFFFFF"></path>
        </g>
    </g>
</svg>