<?xml version="1.0" encoding="UTF-8"?>
<svg width="370px" height="256px" viewBox="0 0 370 256" version="1.1" xmlns="http://www.w3.org/2000/svg" xmlns:xlink="http://www.w3.org/1999/xlink">
    <title>r-bol-gift-card-25</title>
    <g id="r-bol-gift-card-25" stroke="none" stroke-width="1" fill="none" fill-rule="evenodd">
        <g id="r-bol-gift-card" fill-rule="nonzero">
            <path d="M335.177,255.92 L136.825,255.92 L99.543,246.995 L69.409,255.92 L34.824,255.92 C15.685,255.92 0.169,240.405 0.169,221.265 L0.169,161.708 L16.95,129.885 L0.169,94.292 L0.169,34.735 C0.169,15.596 15.684,0.08 34.824,0.08 L69.409,0.08 L94.765,7.648 L136.825,0.08 L335.177,0.08 C354.316,0.08 369.832,15.595 369.832,34.735 L369.832,94.292 L364,124.064 L369.832,161.708 L369.832,221.265 C369.832,240.405 354.316,255.92 335.177,255.92 L335.177,255.92 Z" id="Path" fill="#00009A"></path>
            <path d="M364.673,128.408 L16.253,128.408 L16.949,129.885 L0.168,161.708 L0.168,221.266 C0.168,240.405 15.684,255.921 34.823,255.921 L69.408,255.921 L99.542,246.997 L136.824,255.921 L335.176,255.921 C354.315,255.921 369.831,240.405 369.831,221.266 L369.831,161.709 L364.673,128.408 Z" id="Path" fill="#030370"></path>
        </g>
        <path d="M224.857143,95 C229.44786,95 233.546715,94.0952381 237.153707,92.2857143 C240.760699,90.4761905 243.814346,88.0703463 246.314647,85.0681818 C248.814949,82.0660173 250.720916,78.5909091 252.03255,74.6428571 C253.344183,70.6948052 254,66.5822511 254,62.3051948 C254,58.0281385 253.323689,53.9361472 251.971067,50.0292208 C250.618445,46.1222944 248.691983,42.6883117 246.191682,39.7272727 C243.69138,36.7662338 240.658228,34.4220779 237.092224,32.6948052 C233.526221,30.9675325 229.529837,30.1038961 225.103074,30.1038961 C222.097247,30.1038961 215.785011,30.9675325 206.166365,32.6948052 L206.166365,0 L186,0 L186,95 L204.567812,95 C215.361463,95 222.124573,95 224.857143,95 Z M219.621849,78 C218.105509,78 213.231559,78 205,78 L205,48.3970103 C206.983949,47.4180779 208.164377,46.8946955 208.541283,46.8268633 C215.71705,45.5354308 218.216252,46.1425918 219.621849,46.1425918 C221.977591,46.1425918 224.04902,46.5988828 225.836134,47.5114648 C227.623249,48.4240468 229.12605,49.6062553 230.344538,51.0580903 C231.563025,52.5099253 232.476891,54.1899059 233.086134,56.0980319 C233.695378,58.0061579 234,59.9557649 234,61.9468529 C234,63.9379409 233.695378,65.9082884 233.086134,67.8578954 C232.476891,69.8075025 231.563025,71.528964 230.344538,73.02228 C229.12605,74.515596 227.623249,75.718545 225.836134,76.631127 C224.04902,77.543709 221.977591,78 219.621849,78 Z M291.938517,95 C296.611212,95 300.996986,94.2232704 305.095841,92.6698113 C309.194696,91.1163522 312.801688,88.9292453 315.916817,86.1084906 C319.031947,83.2877358 321.49126,79.8537736 323.294756,75.8066038 C325.098252,71.759434 326,67.2421384 326,62.254717 C326,57.2672956 325.098252,52.7704403 323.294756,48.7641509 C321.49126,44.7578616 319.031947,41.3647799 315.916817,38.5849057 C312.801688,35.8050314 309.194696,33.6792453 305.095841,32.2075472 C300.996986,30.7358491 296.611212,30 291.938517,30 C287.3478,30 282.98252,30.7358491 278.842676,32.2075472 C274.702833,33.6792453 271.095841,35.8050314 268.0217,38.5849057 C264.947559,41.3647799 262.50874,44.7578616 260.705244,48.7641509 C258.901748,52.7704403 258,57.2672956 258,62.254717 C258,67.2421384 258.901748,71.759434 260.705244,75.8066038 C262.50874,79.8537736 264.947559,83.2877358 268.0217,86.1084906 C271.095841,88.9292453 274.702833,91.1163522 278.842676,92.6698113 C282.98252,94.2232704 287.3478,95 291.938517,95 Z M292.5,78 C290.124294,78 288.035311,77.5416667 286.233051,76.625 C284.430791,75.7083333 282.915254,74.4791667 281.686441,72.9375 C280.457627,71.3958333 279.536017,69.6666667 278.92161,67.75 C278.307203,65.8333333 278,63.875 278,61.875 C278,59.875 278.307203,57.9166667 278.92161,56 C279.536017,54.0833333 280.437147,52.3958333 281.625,50.9375 C282.812853,49.4791667 284.30791,48.2916667 286.110169,47.375 C287.912429,46.4583333 290.001412,46 292.377119,46 C294.752825,46 296.841808,46.4583333 298.644068,47.375 C300.446328,48.2916667 301.961864,49.4791667 303.190678,50.9375 C304.419492,52.3958333 305.361582,54.0833333 306.016949,56 C306.672316,57.9166667 307,59.875 307,61.875 C307,63.875 306.692797,65.8333333 306.07839,67.75 C305.463983,69.6666667 304.542373,71.3958333 303.313559,72.9375 C302.084746,74.4791667 300.569209,75.7083333 298.766949,76.625 C296.964689,77.5416667 294.875706,78 292.5,78 Z M352,95 L352,0 L332,0 L332,95 L352,95 Z M370,94 L370,70 C367.691721,70.2176871 366.013617,70.5442177 364.965686,70.9795918 C363.393791,71.6326531 362.013072,72.5102041 360.823529,73.6122449 C359.633987,74.7142857 358.699346,76 358.019608,77.4693878 C357.339869,78.9387755 357,80.4897959 357,82.122449 C357,83.8367347 357.339869,85.4081633 358.019608,86.8367347 C358.699346,88.2653061 359.633987,89.5102041 360.823529,90.5714286 C362.013072,91.6326531 363.393791,92.4693878 364.965686,93.0816327 C366.013617,93.4897959 367.691721,93.7959184 370,94 Z" id="bol." fill="#FFFFFF" fill-rule="nonzero"></path>
        <g id="strik" transform="translate(0.169000, 0.080000)" fill-rule="nonzero">
            <polygon id="Path" fill="#FFCE00" points="369.662 94.212 136.656 94.212 136.656 2.84217094e-14 69.24 2.84217094e-14 69.24 94.212 -2.84217094e-14 94.212 -2.84217094e-14 161.628 69.24 161.628 69.24 255.84 136.656 255.84 136.656 161.628 369.662 161.628"></polygon>
            <polygon id="Path" fill="#FFB600" points="-2.84217094e-14 128.328 -2.84217094e-14 161.628 69.24 161.628 69.24 255.84 136.656 255.84 136.656 161.628 369.662 161.628 369.662 128.328"></polygon>
            <path d="M161.264,79.051 C141.832,79.051 115.93,90.394 102.947,106.82 C89.965,90.395 64.063,79.052 44.631,79.052 C17.642,79.052 10.097,100.931 10.097,127.921 C10.097,154.911 17.641,176.79 44.631,176.79 C64.063,176.79 89.965,165.447 102.948,149.021 C115.93,165.446 141.832,176.789 161.265,176.789 C188.254,176.789 195.799,154.91 195.799,127.92 C195.799,100.93 188.254,79.051 161.264,79.051 L161.264,79.051 Z" id="Path" fill="#FFAA00"></path>
            <path d="M10.101,128.328 C10.177,155.129 17.778,176.789 44.631,176.789 C64.063,176.789 89.965,165.446 102.948,149.02 C115.93,165.445 141.832,176.788 161.265,176.788 C188.118,176.788 195.719,155.127 195.795,128.327 L10.101,128.327 L10.101,128.328 Z" id="Path" fill="#FF9500"></path>
            <ellipse id="Oval" fill="#FF9500" cx="102.948" cy="127.92" rx="31.276" ry="42.231"></ellipse>
            <path d="M71.679,128.328 C71.842,151.463 85.775,170.151 102.947,170.151 C120.119,170.151 134.053,151.463 134.215,128.328 L71.679,128.328 Z" id="Path" fill="#FE8205"></path>
        </g>
        <path d="M242.2,238.52 C245.186667,238.52 247.893333,238.226667 250.32,237.64 C252.746667,237.053333 254.733333,236.306667 256.28,235.4 L256.28,235.4 L253.32,225.24 C250.493333,226.893333 247.106667,227.72 243.16,227.72 C241.56,227.72 240.04,227.52 238.6,227.12 C237.16,226.72 235.853333,226.16 234.68,225.44 C233.506667,224.72 232.52,223.866667 231.72,222.88 C230.92,221.893333 230.333333,220.84 229.96,219.72 L229.96,219.72 L244.84,219.72 L247.56,211.48 L228.28,211.48 C228.226667,211.053333 228.2,210.586667 228.2,210.08 L228.2,210.08 L228.2,207.2 C228.2,206.746667 228.253333,206.28 228.36,205.8 L228.36,205.8 L249,205.8 L251.8,197.48 L230.6,197.48 C231.08,196.2 231.773333,195.053333 232.68,194.04 C233.586667,193.026667 234.613333,192.186667 235.76,191.52 C236.906667,190.853333 238.146667,190.346667 239.48,190 C240.813333,189.653333 242.173333,189.48 243.56,189.48 C245.266667,189.48 246.986667,189.64 248.72,189.96 C250.453333,190.28 251.906667,190.733333 253.08,191.32 L253.08,191.32 L257,181.24 C255.453333,180.493333 253.48,179.906667 251.08,179.48 C248.68,179.053333 246.306667,178.84 243.96,178.84 C240.706667,178.84 237.653333,179.266667 234.8,180.12 C231.946667,180.973333 229.36,182.2 227.04,183.8 C224.72,185.4 222.733333,187.346667 221.08,189.64 C219.426667,191.933333 218.173333,194.546667 217.32,197.48 L217.32,197.48 L212.76,197.48 L209.88,205.8 L216.12,205.8 C215.96,206.76 215.88,207.72 215.88,208.68 L215.88,208.68 L215.88,210.04 C215.88,210.52 215.906667,211 215.96,211.48 L215.96,211.48 L212.36,211.48 L209.64,219.72 L217,219.72 C217.693333,222.386667 218.746667,224.866667 220.16,227.16 C221.573333,229.453333 223.32,231.44 225.4,233.12 C227.48,234.8 229.92,236.12 232.72,237.08 C235.52,238.04 238.68,238.52 242.2,238.52 Z M303.04,237 L303.04,225.32 L279.92,225.32 L293.04,213.64 C294.32,212.466667 295.56,211.28 296.76,210.08 C297.96,208.88 299.026667,207.586667 299.96,206.2 C300.893333,204.813333 301.626667,203.306667 302.16,201.68 C302.693333,200.053333 302.96,198.226667 302.96,196.2 C302.96,193.266667 302.386667,190.706667 301.24,188.52 C300.093333,186.333333 298.56,184.52 296.64,183.08 C294.72,181.64 292.533333,180.573333 290.08,179.88 C287.626667,179.186667 285.093333,178.84 282.48,178.84 C279.706667,178.84 277.08,179.253333 274.6,180.08 C272.12,180.906667 269.92,182.106667 268,183.68 C266.08,185.253333 264.493333,187.16 263.24,189.4 C261.986667,191.64 261.2,194.2 260.88,197.08 L260.88,197.08 L273.76,198.84 C274.026667,196.28 274.866667,194.213333 276.28,192.64 C277.693333,191.066667 279.52,190.28 281.76,190.28 C283.893333,190.28 285.6,190.906667 286.88,192.16 C288.16,193.413333 288.8,195.053333 288.8,197.08 C288.8,198.786667 288.373333,200.333333 287.52,201.72 C286.666667,203.106667 285.546667,204.466667 284.16,205.8 L284.16,205.8 L262.08,225.8 L262.08,237 L303.04,237 Z M330.04,238.52 C332.813333,238.52 335.506667,238.106667 338.12,237.28 C340.733333,236.453333 343.066667,235.213333 345.12,233.56 C347.173333,231.906667 348.813333,229.813333 350.04,227.28 C351.266667,224.746667 351.88,221.746667 351.88,218.28 C351.88,215.293333 351.346667,212.68 350.28,210.44 C349.213333,208.2 347.76,206.32 345.92,204.8 C344.08,203.28 341.906667,202.146667 339.4,201.4 C336.893333,200.653333 334.226667,200.28 331.4,200.28 C330.546667,200.28 329.6,200.32 328.56,200.4 C327.52,200.48 326.573333,200.626667 325.72,200.84 L325.72,200.84 L326.2,191.88 L349,191.88 L349,180.36 L314.28,180.36 L312.92,212.76 C314.946667,212.013333 317.253333,211.413333 319.84,210.96 C322.426667,210.506667 324.733333,210.28 326.76,210.28 C328.146667,210.28 329.533333,210.413333 330.92,210.68 C332.306667,210.946667 333.546667,211.413333 334.64,212.08 C335.733333,212.746667 336.626667,213.64 337.32,214.76 C338.013333,215.88 338.36,217.266667 338.36,218.92 C338.36,221.64 337.52,223.693333 335.84,225.08 C334.16,226.466667 332.173333,227.16 329.88,227.16 C327.64,227.16 325.706667,226.52 324.08,225.24 C322.453333,223.96 321.346667,222.333333 320.76,220.36 L320.76,220.36 L308.52,224.12 C309.16,226.36 310.16,228.373333 311.52,230.16 C312.88,231.946667 314.506667,233.453333 316.4,234.68 C318.293333,235.906667 320.4,236.853333 322.72,237.52 C325.04,238.186667 327.48,238.52 330.04,238.52 Z" id="€25" fill="#FFFFFF" fill-rule="nonzero"></path>
    </g>
</svg>