<?xml version="1.0" encoding="UTF-8"?>
<svg width="370px" height="256px" viewBox="0 0 370 256" version="1.1" xmlns="http://www.w3.org/2000/svg" xmlns:xlink="http://www.w3.org/1999/xlink">
    <title>r-gift-card</title>
    <g id="r-gift-card" stroke="none" stroke-width="1" fill="none" fill-rule="evenodd">
        <g fill-rule="nonzero">
            <path d="M335.177,255.92 L136.825,255.92 L99.543,246.995 L69.409,255.92 L34.824,255.92 C15.685,255.92 0.169,240.405 0.169,221.265 L0.169,161.708 L16.95,129.885 L0.169,94.292 L0.169,34.735 C0.169,15.596 15.684,0.08 34.824,0.08 L69.409,0.08 L94.765,7.648 L136.825,0.08 L335.177,0.08 C354.316,0.08 369.832,15.595 369.832,34.735 L369.832,94.292 L364,124.064 L369.832,161.708 L369.832,221.265 C369.832,240.405 354.316,255.92 335.177,255.92 L335.177,255.92 Z" id="Path" fill="#FFFFFF"></path>
            <path d="M364.673,128.408 L16.253,128.408 L16.949,129.885 L0.168,161.708 L0.168,221.266 C0.168,240.405 15.684,255.921 34.823,255.921 L69.408,255.921 L99.542,246.997 L136.824,255.921 L335.176,255.921 C354.315,255.921 369.831,240.405 369.831,221.266 L369.831,161.709 L364.673,128.408 Z" id="Path" fill="#E9EDF5"></path>
            <path d="M253.49,34.548 C253.49,23.013 262.841,13.662 274.376,13.662 C283.742,13.662 291.668,19.827 294.317,28.32 C296.967,19.827 304.893,13.662 314.258,13.662 C325.793,13.662 335.144,23.013 335.144,34.548 C335.144,57.581 294.317,85.617 294.317,85.617 C294.317,85.617 253.49,56.215 253.49,34.548 Z" id="Path" fill="#158F82"></path>
            <polygon id="Path" fill="#FFCE00" points="369.831 94.292 136.825 94.292 136.825 0.08 69.409 0.08 69.409 94.292 0.169 94.292 0.169 161.708 69.409 161.708 69.409 255.92 136.825 255.92 136.825 161.708 369.831 161.708"></polygon>
            <polygon id="Path" fill="#FFB600" points="0.169 128.408 0.169 161.708 69.409 161.708 69.409 255.92 136.825 255.92 136.825 161.708 369.831 161.708 369.831 128.408"></polygon>
            <path d="M161.433,79.131 C142.001,79.131 116.099,90.474 103.116,106.9 C90.134,90.475 64.232,79.132 44.8,79.132 C17.811,79.132 10.266,101.011 10.266,128.001 C10.266,154.991 17.81,176.87 44.8,176.87 C64.232,176.87 90.134,165.527 103.117,149.101 C116.099,165.526 142.001,176.869 161.434,176.869 C188.423,176.869 195.968,154.99 195.968,128 C195.968,101.01 188.423,79.131 161.433,79.131 L161.433,79.131 Z" id="Path" fill="#FFAA00"></path>
            <path d="M10.27,128.408 C10.346,155.209 17.947,176.869 44.8,176.869 C64.232,176.869 90.134,165.526 103.117,149.1 C116.099,165.525 142.001,176.868 161.434,176.868 C188.287,176.868 195.888,155.207 195.964,128.407 L10.27,128.407 L10.27,128.408 Z" id="Path" fill="#FF9500"></path>
            <ellipse id="Oval" fill="#FF9500" cx="103.117" cy="128" rx="31.276" ry="42.231"></ellipse>
            <path d="M71.848,128.408 C72.011,151.543 85.944,170.231 103.116,170.231 C120.288,170.231 134.222,151.543 134.384,128.408 L71.848,128.408 Z" id="Path" fill="#FE8205"></path>
        </g>
    </g>
</svg>