<svg id="Layer_1" enable-background="new 0 0 512 512" height="512" viewBox="0 0 512 512" width="512" xmlns="http://www.w3.org/2000/svg"><g><path d="m256 22.002c-135.309 0-244.999 109.69-244.999 244.999 0 102.255 62.653 189.864 151.658 226.572l112.239 17.708c126.479-9.648 226.101-115.33 226.101-244.28 0-135.309-109.69-244.999-244.999-244.999z" fill="#816ae2"/><path d="m170.752 67.266c.177-.389.32-.913.58-1.863 4.746-17.392 14.206-25.325 14.489-25.783l-.121-.915c-1.813-13.63 8.399-25.292 21.393-26.148-14.315-10.473-39.664-21.94-66.173-.213-34.547 28.316 3.546 89.401-50.458 125.581-2.346 1.572-1.513 5.189 1.281 5.596 16.137 2.349 53.721 2.11 76.13-44.123-3.029-17.861 2.799-31.945 2.879-32.132z" fill="#2a428c"/><path d="m207.093 12.556c-14.315-10.473-39.664-21.94-66.173-.213-8.979 7.36-13.046 16.936-15.104 27.711.082-.026 39.479-12.674 43.205 26.422.143 1.502.328 2.929.543 4.3.645-2.195 1.165-3.456 1.189-3.511.177-.389.32-.913.58-1.863 4.746-17.392 14.206-25.325 14.489-25.783l-.122-.915c-1.813-13.63 8.399-25.292 21.393-26.148z" fill="#1a3372"/><path d="m191.32 33.769c7.052-5.056 16.067-11.884 32.963-17.655-4.29-3.444-9.731-5.516-15.661-5.516-13.836 0-25.051 11.216-25.051 25.051 0 1.506.156 2.973.411 4.405 2.125-2.166 4.551-4.287 7.338-6.285z" fill="#fc90ce"/><path d="m191.32 33.769c3.256-2.335 6.944-5.049 11.621-7.861.409-.951-.105-2.018-1.092-2.354-5.144-1.749-5.413-6.456-5.218-8.733.032-.372-.061-.728-.241-1.032-7.647 4.289-12.819 12.469-12.819 21.86 0 1.506.156 2.973.411 4.405 2.125-2.166 4.551-4.287 7.338-6.285z" fill="#f76ebb"/><path d="m206.292 175.898c11.671-18.583 19.577-39.223 14.443-47.268-1.458-2.284-3.429-4.561-5.335-6.762-6.51-7.518-10.102-12.505-5.07-18.355 2.902-3.378 5.808-4.892 8.631-4.521 5.891.788 10.488 9.549 11.756 12.216.92 1.93 3.354 2.774 5.378 1.543 1.209-.734 1.868-2.197 1.678-3.726-.577-4.712 9.446-9.779 10.286-15.843 3.343-24.095 12.769-41.087 27.257-49.143 9.842-5.473 18.991-5.144 20.793-5.011l.487-1.233s-28.362-35.485-64.436-25.391c-22.118 6.189-32.766 14.304-40.842 20.095-18.592 13.331-21.438 32.087-22.299 33.976 0 0-14.451 33.633 11.632 63.97 21.459 24.958 26.109 35.858 25.641 45.453z" fill="#3c58a0"/><path d="m216.75 54.447c-20.722-8.533-16.233-23.272-13.824-28.496.205-.446.197-.917.037-1.332-4.693 2.82-8.378 5.54-11.643 7.881-18.592 13.331-21.438 32.087-22.299 33.976 0 0-14.451 33.633 11.632 63.97 21.457 24.956 26.107 35.856 25.639 45.451 11.671-18.583 19.577-39.222 14.443-47.268-1.458-2.284-3.429-4.561-5.335-6.762-6.51-7.518-10.102-12.505-5.07-18.355 2.902-3.378 5.808-4.892 8.631-4.521 5.891.788 10.488 9.549 11.757 12.216.919 1.93 3.354 2.774 5.378 1.543 1.209-.734 1.868-2.198 1.678-3.726-.468-3.821 6.034-7.876 8.958-12.506.047-1.365.073-2.551.073-3.511 0-14.437-4.555-28.06-30.055-38.56z" fill="#2a428c"/><g><path d="m220.822 138.931c2.372 10.772 11.026 38.524 38.711 50.487 1.884-.678 3.964-.782 5.971-.222 7.485 2.089 15.455 6.649 22.632 1.598 5.495-3.867 12.326-17.649 12.585-24.644.044-1.188.642-2.278 1.538-3.059 1.785-1.554 2.487-3.155 2.487-6.109 0-2.224-.158-4.655.467-7.179.653-2.635 2.197-3.39 2.197-3.39s1.634-1.187 2.681-1.337c12.776-1.826 16.815-5.472 4.145-25.407-10.516-16.544 7.911-35.82-2.451-62.514-5.982-15.412-15.186-19.36-15.186-19.36s-41.453-4.899-49.793 55.212c-.782 5.632-10.977 10.546-10.288 16.171.119.973-.242 1.979-1.08 2.488-1.354.824-2.964.275-3.573-1.005-2.518-5.293-11.342-20.951-22.496-7.977-8.213 9.553 4.808 18.022 10.299 26.628 1.386 2.175 1.709 5.505 1.154 9.619z" fill="#f9ba8f"/></g><path d="m214.75 417.447v91.077c13.411 2.278 27.19 3.476 41.25 3.476 6.359 0 12.661-.243 18.898-.719-2.021-29.701 1.189-65.752 9.181-93.834z" fill="#f9ba8f"/><path d="m251.748 211.327c-1.574-10.757 1.171-16.533 4.159-19.598 2.491-2.555 6.159-3.492 9.596-2.533-39.282-11.613-44.44-54.653-44.44-54.653h-.001c.506 11.546-9.624 33.471-23.736 52.145-9.377 9.378-17.228 19.759-23.345 31.298.001.003 7.764 17.962 26.519 17.962 18.756 0 39.518-3.64 66.634 11.93-9.844-12.834-13.7-25.029-15.386-36.551z" fill="#fcad6d"/><path d="m162.659 493.573c18.69 7.708 38.544 13.16 59.22 16.047-7.727-25.433 2.06-66.247 5.45-78.858.589-2.19.186-4.501-1-6.434-2.774-4.525-1.401-8.944.096-11.709 1.069-1.973 1.296-4.278.621-6.418-1.11-3.519-1.553-7.033-1.569-10.39h-49.485c.599 34.745-6.161 70.277-13.333 97.762z" fill="#fcad6d"/><path d="m297.483 275.448c-6.254-4.287-11.653-8.514-16.33-12.68l-73.488-31.844c-.757.081-1.494.171-2.199.269-12.153 1.702-24.369-3.217-31.485-13.208-17.251 32.536-20.609 74.352-4.669 129.431 4.408 15.231 6.374 31.603 6.673 48.157 37.092 19.115 83.283 17.741 110.34 14.599 4.473-13.445 10.158-24.528 17.005-31.375 27.06-27.059 27.978-80.161-5.847-103.349z" fill="#3c58a0"/><path d="m237.992 244.065-30.327-13.141c-.757.081-1.494.171-2.198.269-12.153 1.702-24.369-3.217-31.485-13.208-17.251 32.536-20.609 74.352-4.669 129.431 4.408 15.231 6.374 31.603 6.673 48.157 16.136 8.315 33.993 12.751 51.249 14.852.302-1.388.249-2.841-.188-4.225-5.245-16.633 4.292-33.21 4.292-33.21z" fill="#2a428c"/><path d="m175.96 394.06c.09 3.698.095 7.406.024 11.115-.061 3.15 1.626 6.065 4.351 7.645 32.627 18.919 76.119 15.52 96.204 12.551 3.411-.504 6.176-2.986 7.091-6.311.956-3.475 1.987-6.828 3.086-10.046-25.817 3.302-73.616 5.531-110.756-14.954z" fill="#2a428c"/><path d="m227.368 409.623c-17.373-2.12-35.382-6.724-51.408-15.563.09 3.698.095 7.406.024 11.115-.061 3.15 1.626 6.065 4.351 7.645 14.53 8.425 31.212 12.418 47.025 14-.21-.87-.553-1.712-1.031-2.491-2.774-4.525-1.401-8.944.096-11.709.51-.942.823-1.959.943-2.997z" fill="#1a3372"/><path d="m215.431 259.898 67.016 73.015s-12.961-45.166-1.293-70.145c-5.674-5.054-10.282-10.019-14.02-14.891-24.476-16.774-46.022-18.399-59.469-16.953z" fill="#fc90ce"/><path d="m383.816 297.268c-3.013 12.005-20.005 37.174-36.944 47.316-10.197 6.105-16.821 12.559-20.479 16.729-1.953 2.226-5.449 2.108-7.281-.218-18.7-23.743-38.449-49.953-48.087-62.829-3.434-4.588-5.681-9.901-6.988-15.481-3.33-14.212-14.654-26-30.173-29.02-18.932-3.684-37.984 7.566-43.883 25.93-4.715 14.677-.217 29.829 10 39.626 3.04 2.914 6.881 8.402 8.92 14.703 15.232 47.078 73.718 86.532 88.609 95.96 1.96 1.241 3.612 2.877 4.933 4.784 2.138 3.086 6.857 7.677 15.731 6.914 16.714-1.437 48.072-41.716 62.247-65.505s26.441-70.845 26.441-70.845-20.033-20.069-23.046-8.064z" fill="#f9ba8f"/><path d="m310.25 394.06c28 13.888 82.179-58.149 84.758-98.164-4.927-2.906-9.821-4.089-11.192 1.373-3.013 12.005-20.005 37.174-36.944 47.316-10.197 6.105-16.821 12.559-20.479 16.729-1.953 2.226-5.449 2.108-7.281-.218-18.7-23.743-38.449-49.953-48.087-62.829-3.434-4.588-5.681-9.901-6.989-15.481-3.329-14.212-14.654-26-30.173-29.02-2.322-.452-4.646-.676-6.948-.693-.068.166-12.495 30.647 14.233 57.375 26.801 26.8 41.102 69.724 69.102 83.612z" fill="#fcad6d"/><ellipse cx="406.86" cy="270.868" fill="#6289cc" rx="54.367" ry="54.367" transform="matrix(.707 -.707 .707 .707 -72.366 367.029)"/><path d="m438.079 315.365c-1.197-1.914-1.497-4.089-1.505-5.749-.007-1.456-1.142-2.665-2.592-2.79-18.049-1.559-16.378-18.143-15.571-22.7.136-.766-.053-1.546-.512-2.173l-18.317-24.952c-.472-.643-1.2-1.038-1.994-1.122-17.235-1.827-17.197-15.151-16.262-21.201.236-1.531-.826-2.948-2.351-3.22-2.77-.494-4.626-1.69-5.862-3.198-12.556 9.959-20.618 25.337-20.618 42.607 0 30.026 24.341 54.367 54.367 54.367 11.62 0 22.381-3.658 31.217-9.869z" fill="#4f71b6"/><g><path d="m406.86 332.913c-34.212 0-62.046-27.834-62.046-62.046s27.833-62.046 62.046-62.046 62.046 27.833 62.046 62.046-27.834 62.046-62.046 62.046zm0-108.733c-25.743 0-46.688 20.944-46.688 46.688 0 25.743 20.944 46.688 46.688 46.688s46.688-20.944 46.688-46.688-20.944-46.688-46.688-46.688z" fill="#4f71b6"/></g><path d="m445.202 319.594c-.019-.004-.036-.012-.056-.015-7.359-1.174-8.556-6.615-8.572-9.963-.004-.806-.361-1.527-.918-2.04-7.94 6.242-17.936 9.979-28.796 9.979-25.743 0-46.687-20.944-46.687-46.688 0-15.996 8.089-30.134 20.388-38.551-.413-.431-.956-.745-1.587-.858-7.057-1.258-8.225-7.053-8.153-11.049-15.728 11.266-26.006 29.679-26.006 50.458 0 34.212 27.833 62.046 62.046 62.046 14.464 0 27.778-4.989 38.341-13.319z" fill="#3c58a0"/><ellipse cx="406.86" cy="270.868" fill="#dae2fe" rx="22.687" ry="22.687" transform="matrix(.987 -.16 .16 .987 -38.135 68.67)"/><g fill="#9181f2"><path d="m497.545 225.881c-13.418-79.391-65.008-145.805-135.251-179.682-12.227 9.714-27.326 27.284-17.479 50.248 15.436 36-14.064 67.5 19.436 88.5 30.334 19.017 86.09-18.658 133.294 40.934z"/><path d="m144.436 207.633c.023-.047.046-.095.069-.142 3.567-7.329 2.34-16.089-3.036-22.216l-7.444-8.485c-4.701-5.359-11.868-7.872-18.881-6.598-15.052 2.735-31.852 6.115-45.061 3.707-16.71-3.046-25.573-12.509-30.254-22.273-18.389 34.383-28.828 73.658-28.828 115.376 0 81.496 39.796 153.689 101.012 198.225 45.07-2.626 39.473-67.79 25.057-108.946-16.345-46.667-13.82-105.213 7.366-148.648z"/></g></g></svg>