<svg id="Layer_1" enable-background="new 0 0 512 512" height="512" viewBox="0 0 512 512" width="512" xmlns="http://www.w3.org/2000/svg"><g><path d="m245.002 10.998c-84.462 0-158.939 42.742-202.989 107.773l58.746 335.268c40.467 29.525 90.315 46.962 144.243 46.962 97 0 180.827-56.374 220.523-138.142v-29.544h12.016c8.077-24.306 12.463-50.298 12.463-77.316 0-135.31-109.691-245.001-245.002-245.001z" fill="#73c3f9"/><path d="m511.682 280.848-54.222-217.628c-1.212-4.865-5.634-8.208-10.647-8.122-14.09.242-27.191-7.632-33.588-20.189-2.276-4.468-7.303-6.804-12.168-5.592-4.15 1.034-53.227 13.261-117.256 29.214l19.811 79.513h120.51c4.384 0 8.141 3.01 9.137 7.32 3.275 14.175 14.549 25.45 28.724 28.724 4.31.996 7.32 4.753 7.32 9.138v156.138c4.667-1.163 7.592-1.892 8.475-2.112 4.865-1.212 8.208-5.634 8.122-10.647-.242-14.09 7.633-27.191 20.189-33.588 4.469-2.277 6.805-7.304 5.593-12.169z" fill="#ff4155"/><path d="m30.227 138.043h276.201l-19.976-80.173c-76.639 19.094-175.587 43.748-244.439 60.902-4.216 6.224-8.145 12.657-11.786 19.271z" fill="#e80054"/><path d="m179.025 136.691c-16.333-9.057-7.891-25.006-7.891-25.006-16.391-8.23-8.579-22.946-8.579-22.946-43.355 10.801-85.784 21.373-120.542 30.032-4.216 6.224-8.145 12.657-11.786 19.272h147.347c.837-.875 1.451-1.352 1.451-1.352z" fill="#cc0053"/><path d="m303.612 138.043h118.787l-15.747-63.202c-2.829-11.355-14.327-18.267-25.682-15.438l-91.285 22.744z" fill="#fcf2c8"/><path d="m306.428 138.043-14.091-56.556-226.997 56.556z" fill="#fee884"/><path d="m179.025 136.691c-16.333-9.057-7.892-25.006-7.891-25.006l-105.794 26.358h112.234c.837-.875 1.451-1.352 1.451-1.352z" fill="#ffdd40"/><g><path d="m334.055 124.243c-3.157 0-6.029-2.139-6.826-5.34-.941-3.773 1.357-7.594 5.129-8.534l46.944-11.696c3.772-.942 7.593 1.356 8.534 5.13.941 3.773-1.357 7.594-5.129 8.534l-46.944 11.696c-.573.142-1.145.21-1.708.21z" fill="#ffb332"/></g><g><path d="m288.015 71.204c-3.157 0-6.029-2.139-6.826-5.341l-1.568-6.292c-.941-3.773 1.357-7.594 5.129-8.534 3.772-.942 7.593 1.356 8.534 5.13l1.568 6.293c.941 3.773-1.357 7.594-5.129 8.533-.573.143-1.145.211-1.708.211z" fill="#ffb332"/></g><g><path d="m296.365 104.72c-3.157 0-6.029-2.139-6.826-5.34l-1.568-6.293c-.941-3.773 1.357-7.594 5.129-8.534 3.772-.942 7.593 1.356 8.534 5.13l1.568 6.293c.941 3.773-1.357 7.594-5.129 8.533-.572.143-1.144.211-1.708.211z" fill="#ffb332"/></g><g><path d="m304.716 138.236c-3.157 0-6.028-2.139-6.826-5.34l-1.568-6.293c-.94-3.773 1.357-7.594 5.129-8.533 3.77-.942 7.594 1.356 8.534 5.13l1.568 6.292c.941 3.773-1.357 7.594-5.129 8.534-.572.142-1.144.21-1.708.21z" fill="#ff9433"/></g><path d="m462.288 172.769c-13.731-3.171-24.539-13.98-27.711-27.71-1.128-4.885-5.441-8.368-10.455-8.368-4.258 0-54.418 0-119.985 0v317.349h119.985c5.014 0 9.327-3.482 10.455-8.368 3.172-13.731 13.98-24.539 27.711-27.711 4.886-1.128 8.368-5.441 8.368-10.455v-224.281c-.001-5.014-3.483-9.327-8.368-10.456z" fill="#ff7186"/><path d="m462.288 172.769c-13.731-3.171-24.539-13.98-27.711-27.71-1.128-4.885-5.441-8.368-10.455-8.368-1.915 0-13.122 0-30.837 0 0 0-13.646 10.694 0 24.34l25.26 123.232s23.252 28.859 52.11 0v-101.038c0-5.014-3.482-9.327-8.367-10.456z" fill="#f9a0b1"/><path d="m30.983 136.691c-4.393 7.864-8.364 15.997-11.886 24.364l53.126 268.619c8.87 8.823 18.407 16.976 28.536 24.366h205.255v-317.349c-88.043 0-204.656 0-275.031 0z" fill="#ff4155"/><path d="m172.025 429.7c-12-6.798-11.5-20.702-11.5-20.702s0-44 0-62.5 9.508-25.121 9.508-25.121l-13.635-27.076 19.121-28.7c-15.986-22.309 3.506-35.721 3.506-35.721v-33.035c-17.952-17.952 0-35.814 0-35.814-13.734-13.734 0-24.34 0-24.34-55.08 0-108.763 0-148.043 0-4.393 7.864-8.364 15.997-11.886 24.364l53.126 268.619c8.87 8.823 18.407 16.976 28.536 24.366h71.266c-13.478-13.479.001-24.34.001-24.34z" fill="#e80054"/><path d="m397.357 161.031h-93.22v268.669h93.22c11.702 0 21.188-9.487 21.188-21.188v-226.293c0-11.702-9.486-21.188-21.188-21.188z" fill="#fcf2c8"/><path d="m0 256c0 67.891 27.619 129.328 72.228 173.7h233.786v-268.67h-286.922c-12.293 29.207-19.092 61.294-19.092 94.97z" fill="#fee884"/><path d="m160.525 408.998s0-44 0-62.5 9.508-25.121 9.508-25.121l-13.635-27.076 19.121-28.7c-15.986-22.309 3.506-35.721 3.506-35.721v-33.035c-17.952-17.952 0-35.814 0-35.814h-159.933c-12.293 29.206-19.092 61.293-19.092 94.969 0 67.891 27.619 129.327 72.228 173.7h99.797c-12-6.797-11.5-20.702-11.5-20.702z" fill="#ffdd40"/><g><g><path d="m306.014 150.216c-3.889 0-7.041-3.152-7.041-7.041v-6.485c0-3.888 3.152-7.041 7.041-7.041s7.041 3.152 7.041 7.041v6.485c0 3.889-3.152 7.041-7.041 7.041z" fill="#ffb332"/></g><g><path d="m306.014 184.757c-3.889 0-7.041-3.152-7.041-7.04v-6.485c0-3.888 3.152-7.041 7.041-7.041s7.041 3.152 7.041 7.041v6.485c0 3.888-3.152 7.04-7.041 7.04z" fill="#ffb332"/></g><g><path d="m306.014 219.297c-3.889 0-7.041-3.152-7.041-7.04v-6.485c0-3.888 3.152-7.041 7.041-7.041s7.041 3.152 7.041 7.041v6.485c0 3.888-3.152 7.04-7.041 7.04z" fill="#ffb332"/></g><g><path d="m306.014 253.838c-3.889 0-7.041-3.152-7.041-7.041v-6.485c0-3.888 3.152-7.041 7.041-7.041s7.041 3.152 7.041 7.041v6.485c0 3.888-3.152 7.041-7.041 7.041z" fill="#ffb332"/></g><g><path d="m306.014 288.378c-3.889 0-7.041-3.152-7.041-7.041v-6.485c0-3.888 3.152-7.041 7.041-7.041s7.041 3.152 7.041 7.041v6.485c0 3.889-3.152 7.041-7.041 7.041z" fill="#ffb332"/></g><g><path d="m306.014 322.919c-3.889 0-7.041-3.152-7.041-7.041v-6.485c0-3.888 3.152-7.041 7.041-7.041s7.041 3.152 7.041 7.041v6.485c0 3.889-3.152 7.041-7.041 7.041z" fill="#ffb332"/></g><g><path d="m306.014 357.459c-3.889 0-7.041-3.152-7.041-7.04v-6.485c0-3.888 3.152-7.041 7.041-7.041s7.041 3.152 7.041 7.041v6.485c0 3.888-3.152 7.04-7.041 7.04z" fill="#ffb332"/></g><g><path d="m306.014 391.999c-3.889 0-7.041-3.152-7.041-7.041v-6.484c0-3.888 3.152-7.041 7.041-7.041s7.041 3.152 7.041 7.041v6.484c0 3.889-3.152 7.041-7.041 7.041z" fill="#ffb332"/></g><g><path d="m306.014 426.54c-3.889 0-7.041-3.152-7.041-7.041v-6.485c0-3.888 3.152-7.041 7.041-7.041s7.041 3.152 7.041 7.041v6.485c0 3.889-3.152 7.041-7.041 7.041z" fill="#ffb332"/></g><g><path d="m306.014 461.081c-3.889 0-7.041-3.152-7.041-7.041v-6.485c0-3.888 3.152-7.041 7.041-7.041s7.041 3.152 7.041 7.041v6.485c0 3.888-3.152 7.041-7.041 7.041z" fill="#ffb332"/></g></g><g><path d="m386.244 212.812h-48.379c-3.889 0-7.041-3.152-7.041-7.041 0-3.888 3.152-7.041 7.041-7.041h48.379c3.889 0 7.041 3.152 7.041 7.041s-3.152 7.041-7.041 7.041z" fill="#ffb332"/></g><g><path d="m386.244 236.92h-48.379c-3.889 0-7.041-3.152-7.041-7.041s3.152-7.041 7.041-7.041h48.379c3.889 0 7.041 3.152 7.041 7.041s-3.152 7.041-7.041 7.041z" fill="#ffdd40"/></g><g><path d="m386.244 261.028h-48.379c-3.889 0-7.041-3.152-7.041-7.041 0-3.888 3.152-7.041 7.041-7.041h48.379c3.889 0 7.041 3.152 7.041 7.041s-3.152 7.041-7.041 7.041z" fill="#ffdd40"/></g><g><path d="m386.244 285.136h-48.379c-3.889 0-7.041-3.152-7.041-7.041 0-3.888 3.152-7.041 7.041-7.041h48.379c3.889 0 7.041 3.152 7.041 7.041 0 3.888-3.152 7.041-7.041 7.041z" fill="#ffdd40"/></g><g><path d="m386.244 364.65h-15.324c-3.889 0-7.041-3.152-7.041-7.041 0-3.888 3.152-7.041 7.041-7.041h15.324c3.889 0 7.041 3.152 7.041 7.041 0 3.888-3.152 7.041-7.041 7.041z" fill="#ff9433"/></g><g><path d="m386.244 388.757h-48.379c-3.889 0-7.041-3.152-7.041-7.041s3.152-7.04 7.041-7.04h48.379c3.889 0 7.041 3.152 7.041 7.04s-3.152 7.041-7.041 7.041z" fill="#ffb332"/></g><g><path d="m242.026 364.65h-15.324c-3.889 0-7.041-3.152-7.041-7.041 0-3.888 3.152-7.041 7.041-7.041h15.324c3.889 0 7.041 3.152 7.041 7.041-.001 3.888-3.152 7.041-7.041 7.041z" fill="#ff9433"/></g><g><path d="m242.026 388.757h-48.378c-3.889 0-7.041-3.152-7.041-7.041s3.152-7.04 7.041-7.04h48.378c3.889 0 7.041 3.152 7.041 7.04s-3.152 7.041-7.041 7.041z" fill="#ffb332"/></g><g><g><path d="m68.353 323.351c-3.889 0-7.041-3.152-7.041-7.041v-44.58c0-3.888 3.152-7.04 7.041-7.04s7.041 3.152 7.041 7.04v44.58c0 3.888-3.152 7.041-7.041 7.041z" fill="#4b6bb2"/></g></g><g><path d="m213.619 323.147h-18.613c-3.889 0-7.041-3.152-7.041-7.041v-44.173c0-3.888 3.152-7.041 7.041-7.041h18.613c3.889 0 7.041 3.152 7.041 7.041s-3.152 7.041-7.041 7.041h-11.572v30.092h11.572c3.889 0 7.041 3.152 7.041 7.041 0 3.888-3.152 7.04-7.041 7.04z" fill="#4b6bb2"/></g><g><path d="m212.247 301.06h-17.24c-3.889 0-7.041-3.152-7.041-7.041 0-3.888 3.152-7.041 7.041-7.041h17.24c3.889 0 7.041 3.152 7.041 7.041s-3.152 7.041-7.041 7.041z" fill="#6289cc"/></g><g><g><path d="m113.776 323.351c-16.173 0-29.331-13.158-29.331-29.331s13.157-29.33 29.331-29.33c5.877 0 11.55 1.733 16.404 5.013 3.222 2.177 4.069 6.554 1.893 9.776s-6.553 4.07-9.775 1.893c-2.518-1.701-5.465-2.6-8.522-2.6-8.408 0-15.249 6.841-15.249 15.249 0 8.409 6.841 15.25 15.249 15.25 3.042 0 5.582-.889 7.551-2.643.384-.342.754-.723 1.097-1.134 2.499-2.979 6.94-3.368 9.918-.87 2.979 2.499 3.369 6.94.87 9.919-.78.931-1.628 1.805-2.52 2.6-4.56 4.061-10.41 6.208-16.916 6.208z" fill="#4b6bb2"/></g></g><g><path d="m33.875 323.351c-3.889 0-7.041-3.152-7.041-7.041v-43.157c0-3.888 3.152-7.041 7.041-7.041s7.041 3.152 7.041 7.041v43.157c0 3.888-3.152 7.041-7.041 7.041z" fill="#4b6bb2"/></g><g><path d="m246.716 323.351c-3.889 0-7.041-3.152-7.041-7.041v-43.157c0-3.888 3.152-7.041 7.041-7.041s7.041 3.152 7.041 7.041v43.157c0 3.888-3.152 7.041-7.041 7.041z" fill="#4b6bb2"/></g><path d="m243.651 196.844h-206.612c-9.122 0-16.517 7.395-16.517 16.518 0 9.122 7.395 16.518 16.517 16.518h206.612c9.122 0 16.518-7.395 16.518-16.518 0-9.122-7.396-16.518-16.518-16.518z" fill="#fcf5e0"/><path d="m163.977 213.362c0-9.122 7.395-16.518 16.518-16.518h-143.456c-9.122 0-16.517 7.395-16.517 16.518s7.395 16.518 16.517 16.518h143.456c-9.123 0-16.518-7.395-16.518-16.518z" fill="#fee884"/><g><path d="m149.358 323.351c-3.889 0-7.041-3.152-7.041-7.041v-44.58c0-3.888 3.152-7.04 7.041-7.04s7.041 3.152 7.041 7.04v44.58c0 3.888-3.152 7.041-7.041 7.041z" fill="#4b6bb2"/></g><g><path d="m46.235 278.77h-24.62c-3.889 0-7.041-3.152-7.041-7.041 0-3.888 3.152-7.04 7.041-7.04h24.62c3.889 0 7.041 3.152 7.041 7.04-.001 3.889-3.153 7.041-7.041 7.041z" fill="#6289cc"/></g><g><path d="m259.076 278.77h-24.62c-3.889 0-7.041-3.152-7.041-7.041 0-3.888 3.152-7.04 7.041-7.04h24.62c3.889 0 7.041 3.152 7.041 7.04-.001 3.889-3.153 7.041-7.041 7.041z" fill="#6289cc"/></g><g><path d="m174.921 323.351c-1.759 0-3.521-.656-4.887-1.974l-24.137-23.286c-1.397-1.347-2.175-3.211-2.152-5.152.023-1.94.846-3.785 2.275-5.098l22.555-20.731c2.862-2.632 7.317-2.444 9.948.419 2.632 2.863 2.444 7.317-.419 9.948l-17.05 15.672 18.756 18.095c2.799 2.7 2.879 7.157.179 9.956-1.382 1.43-3.224 2.151-5.068 2.151z" fill="#6289cc"/></g></g></svg>