<svg id="Layer_3" enable-background="new 0 0 64 64" height="512" viewBox="0 0 64 64" width="512" xmlns="http://www.w3.org/2000/svg"><g><path d="m56.006 27 5.994-6-17.993-19-24.78 25" fill="#f2c351"/><g><path d="m34.85 20.688h18.92v2.001h-18.92z" fill="#f9d18b" transform="matrix(.707 -.707 .707 .707 -2.356 37.692)"/></g><g><path d="m46.756 19.999h8.485v2.001h-8.485z" fill="#f9d18b" transform="matrix(.707 -.707 .707 .707 .092 42.221)"/></g><path d="m29.05 21.293-2.828 2.828c-.391.391-.391 1.023 0 1.414l4.242 4.242c.391.391 1.023.391 1.414 0l2.828-2.828c.391-.391.391-1.023 0-1.414l-1.414-1.414-1.414 1.414.707.707-1.414 1.414-2.828-2.828 1.414-1.414.707.707 1.414-1.414-1.414-1.414c-.39-.391-1.023-.391-1.414 0z" fill="#c16b3f"/><g fill="#c16b3f"><path d="m43.899 9.272 1.414-1.415-1.415-1.414-4.243 4.243 1.415 1.414 1.414-1.413 4.243 4.242 1.415-1.415z"/><path d="m37.535 18.878h-1.441l.268-.804c.12-.359.026-.756-.241-1.023l-1.414-1.415-1.415 1.414.978.978-.708 2.121-1.684-1.684-1.415 1.415 5.657 5.657 1.415-1.415-2.392-2.392.284-.851h1.693l1.828 1.829 1.415-1.414-2.121-2.122c-.187-.189-.442-.294-.707-.294z"/><path d="m41.07 17.757-.707-.707 2.121-2.121-1.415-1.415-2.121 2.121-.706-.707 2.121-2.121-1.415-1.415-2.828 2.829c-.39.391-.39 1.024 0 1.415l4.242 4.243c.195.195.451.292.707.292.257 0 .513-.097.708-.292l2.829-2.829-1.415-1.415z"/></g><path d="m20 53h42v-26h-42c0 1.011-.596 1.889-1.476 2.388-.91.515-1.524 1.492-1.524 2.612 0 1.381.933 2.544 2.202 2.893.457.125.798.503.798.977v.26c0 .474-.341.851-.798.977-1.269.349-2.202 1.512-2.202 2.893s.933 2.544 2.202 2.893c.457.125.798.503.798.977v.26c0 .474-.341.851-.798.977-1.269.349-2.202 1.512-2.202 2.893 0 1.12.614 2.097 1.524 2.612.88.499 1.476 1.377 1.476 2.388z" fill="#f7d881"/><path d="m30.03 53-9 9c-.715-.715-.915-1.757-.645-2.732.279-1.008.023-2.133-.77-2.925-.976-.976-2.458-1.139-3.603-.488-.412.234-.92.208-1.255-.127l-.184-.184c-.335-.335-.361-.843-.127-1.255.228-.4.356-.842.384-1.289" fill="#c66b60"/><path d="m2 53c0-1.011.596-1.889 1.476-2.388.91-.515 1.524-1.492 1.524-2.612 0-1.381-.933-2.544-2.202-2.893-.457-.125-.798-.503-.798-.977v-.26c0-.474.341-.851.798-.977 1.269-.349 2.202-1.512 2.202-2.893s-.933-2.544-2.202-2.893c-.457-.125-.798-.503-.798-.977v-.26c0-.474.341-.851.798-.977 1.269-.349 2.202-1.512 2.202-2.893 0-1.12-.614-2.097-1.524-2.612-.88-.499-1.476-1.377-1.476-2.388h18c0 1.011-.596 1.889-1.476 2.388-.91.515-1.524 1.492-1.524 2.612 0 1.381.933 2.544 2.202 2.893.457.125.798.503.798.977v.26c0 .474-.341.851-.798.977-1.269.349-2.202 1.512-2.202 2.893s.933 2.544 2.202 2.893c.457.125.798.503.798.977v.26c0 .474-.341.851-.798.977-1.269.349-2.202 1.512-2.202 2.893 0 1.12.614 2.097 1.524 2.612.88.499 1.476 1.377 1.476 2.388z" fill="#e47c6e"/><g><path d="m7.999 31h5.999v2h-5.999z" fill="#c66b60"/></g><g><path d="m7.999 35h5.999v2h-5.999z" fill="#c66b60"/></g><g><path d="m7.999 39h5.999v2h-5.999z" fill="#c66b60"/></g><g><path d="m7.999 43h5.999v2h-5.999z" fill="#c66b60"/></g><g><path d="m7.999 47h5.999v2h-5.999z" fill="#c66b60"/></g><g fill="#c16b3f"><path d="m22.999 31.999h2v6h1.999v-6h2v-1.999h-5.999z"/><path d="m58.999 30h-5.999v1.999h2v6h1.999v-6h2z"/><path d="m29.999 30h1.999v8h-1.999z"/><path d="m37.998 30h-3.999c-.553 0-1 .447-1 1v6c0 .553.447 1 1 1h3.999c.553 0 1-.447 1-1v-2h-2v1h-1.999v-4h1.999v1h2v-2c0-.553-.447-1-1-1z"/><path d="m43.998 31.381-2 1v-2.381h-1.999v8h1.999v-3.382l.803-.401 1.198 1.198v2.585h1.999v-3c0-.266-.104-.52-.292-.708l-1.019-1.019.758-.379c.339-.169.553-.516.553-.894v-2h-2z"/><path d="m46.999 31v6c0 .553.447 1 1 1h3.999v-2h-2.999v-1h2.999v-2h-2.999v-1h2.999v-2h-3.999c-.553 0-1 .447-1 1z"/></g><g><path d="m22.999 40h35.999v2h-35.999z" fill="#f2c351"/></g><g><path d="m44.999 44h13.999v2h-13.999z" fill="#f2c351"/></g><path d="m24 45h16v4h-16z" fill="#c16b3f"/><path d="m24 45v4h10.708c1.274-1.065 2.28-2.436 2.913-4z" fill="#e39854"/></g></svg>