<svg id="Layer" height="512" viewBox="0 0 128 128" width="512" xmlns="http://www.w3.org/2000/svg"><path d="m115.86 44.8-109.36-4.28 77.45-11.52 3.46-.51 25.46-3.79z" fill="#fba616"/><path d="m86.9 36.91a2.461 2.461 0 0 1 -.26.02 1.752 1.752 0 0 1 -1.73-1.5l-.96-6.43 3.46-.51.96 6.43a1.763 1.763 0 0 1 -1.47 1.99z" fill="#fbdd6b"/><path d="m114.67 65.08a9.659 9.659 0 0 0 6.83 16.49v21.73h-115v-21.73a9.655 9.655 0 1 0 0-19.31v-21.73h115v21.73a9.653 9.653 0 0 0 -6.83 2.82z" fill="#fbdd6b"/><path d="m114.67 65.08a9.659 9.659 0 0 0 6.83 16.49v21.73h-115v-21.73a9.655 9.655 0 1 0 0-19.31v-21.73h115v21.73a9.653 9.653 0 0 0 -6.83 2.82z" fill="#fbdd6b"/><g fill="#fba616"><path d="m93.86 40.53v6.5a1.75 1.75 0 0 1 -3.5 0v-6.5z"/><path d="m92.11 74.61a1.746 1.746 0 0 0 -1.75 1.75v11.55a1.75 1.75 0 0 0 3.5 0v-11.55a1.752 1.752 0 0 0 -1.75-1.75zm0-20.44a1.746 1.746 0 0 0 -1.75 1.75v11.55a1.75 1.75 0 0 0 3.5 0v-11.55a1.752 1.752 0 0 0 -1.75-1.75z"/><path d="m93.86 96.8v6.5h-3.5v-6.5a1.75 1.75 0 0 1 3.5 0z"/><path d="m49.006 57.02h-21.725a1.75 1.75 0 0 1 0-3.5h21.725a1.75 1.75 0 1 1 0 3.5z"/><path d="m70.73 68.116h-43.449a1.75 1.75 0 0 1 0-3.5h43.449a1.75 1.75 0 0 1 0 3.5z"/><path d="m70.73 79.214h-43.449a1.75 1.75 0 0 1 0-3.5h43.449a1.75 1.75 0 0 1 0 3.5z"/><path d="m70.73 90.311h-43.449a1.75 1.75 0 0 1 0-3.5h43.449a1.75 1.75 0 0 1 0 3.5z"/></g></svg>