<?xml version="1.0" encoding="iso-8859-1"?>
<!-- Generator: Adobe Illustrator 19.0.0, SVG Export Plug-In . SVG Version: 6.00 Build 0)  -->
<svg version="1.1" id="Capa_1" xmlns="http://www.w3.org/2000/svg" xmlns:xlink="http://www.w3.org/1999/xlink" x="0px" y="0px"
	 viewBox="0 0 512 512" style="enable-background:new 0 0 512 512;" xml:space="preserve">
<path style="fill:#E6FAFF;" d="M512,256c0,141.385-114.615,256-256,256S0,397.385,0,256S114.615,0,256,0S512,114.615,512,256z"/>
<path style="fill:#FF4682;" d="M456.263,70H370V10h86.263c1.597,0,2.55,1.78,1.664,3.109L440,40l17.927,26.891
	C458.813,68.22,457.86,70,456.263,70z"/>
<path style="fill:#A00046;" d="M368.053,250h-9c-2.761,0-5-2.239-5-5V5c0-2.761,2.239-5,5-5h9c2.761,0,5,2.239,5,5v240
	C373.053,247.761,370.815,250,368.053,250z"/>
<path style="fill:#147D73;" d="M416.923,455.086C372.954,490.671,316.972,512,256,512C125.78,512,18.273,414.771,2.105,288.95
	l77.184-77.184c2.488-2.488,6.079-3.488,9.508-2.701c2.656,0.61,5.42,0.935,8.262,0.935c10.372,0,19.744-4.266,26.471-11.133
	C130.256,205.734,139.628,210,150,210c4.21,0,8.252-0.707,12.02-2.005c3.604-1.241,7.605-0.207,10.301,2.488L416.923,455.086z"/>
<path style="fill:#2D5A5F;" d="M50,345c0,28.266,4.994,55.365,14.142,80.466C31.091,388.075,8.789,340.961,2.105,288.95
	l78.258-78.258c1.896-1.896,4.653-2.607,7.247-1.929c1.699,0.444,3.447,0.771,5.232,0.974C65.863,247.985,50,294.635,50,345z"/>
<g>
	<path style="fill:#5AC3A5;" d="M173.454,211.616C167.065,216.85,158.904,220,150,220c-10.372,0-19.744-4.266-26.471-11.133
		C116.803,215.734,107.431,220,97.059,220c-7.404,0-14.295-2.18-20.083-5.921l35.328-35.328c7.81-7.81,20.474-7.81,28.284,0
		L173.454,211.616z"/>
	<path style="fill:#5AC3A5;" d="M512,256c0,141.385-114.615,256-256,256c-81.864,0-154.75-38.428-201.611-98.226l250.395-250.395
		c2.22-2.22,5.246-3.415,8.385-3.38c0.128,0.001,0.256,0.002,0.384,0.002c9.796,0,18.647-4.029,25-10.515
		c6.353,6.486,15.204,10.515,25,10.515s18.647-4.029,25-10.515c6.353,6.486,15.204,10.515,25,10.515
		c0.128,0,0.256-0.001,0.384-0.002c3.139-0.034,6.165,1.16,8.385,3.38l89.64,89.639C511.974,254.012,512,255.003,512,256z"/>
</g>
<path style="fill:#3CAF96;" d="M190,455c0,16.652,1.036,33.061,3.036,49.171c-55.75-14.103-104.225-46.472-138.648-90.398
	l250.38-250.38c2.23-2.23,5.269-3.428,8.422-3.395c0.121,0.001,0.242,0.002,0.362,0.002c3.716,0,7.296-0.583,10.655-1.656
	C241.929,230.73,190,336.797,190,455z"/>
<path style="fill:#B4EBFF;" d="M280,110L280,110c0,5.523-4.477,10-10,10h-30h-50h-30c-5.523,0-10-4.477-10-10l0,0
	c0-16.569,13.431-30,30-30h1.714c4.119-11.651,15.225-20,28.286-20h10c13.061,0,24.167,8.349,28.286,20H250
	C266.569,80,280,93.431,280,110z"/>
<path style="fill:#AFEBD2;" d="M426.472,167.528c-3.998,1.589-8.354,2.472-12.919,2.472c-9.796,0-18.647-4.029-25-10.515
	c-6.353,6.486-15.204,10.515-25,10.515s-18.647-4.029-25-10.515c-6.353,6.486-15.204,10.515-25,10.515
	c-4.565,0-8.92-0.883-12.919-2.472l48.776-48.776c7.81-7.81,20.474-7.81,28.284,0L426.472,167.528z"/>
<path style="fill:#87DCFA;" d="M256,512c-56.315,0-108.372-18.198-150.641-49.015c2.44-0.641,5-0.985,7.641-0.985h50.201
	c-0.131-0.646-0.201-1.315-0.201-2v-10c0-16.569,13.431-30,30-30h103.667h57.449h98.446C405.601,476.222,334.983,512,256,512z"/>
<path style="fill:#B4EBFF;" d="M210,370c0,5.523-4.477,10-10,10h-30h-50H90c-5.523,0-10-4.477-10-10l0,0c0-16.569,13.431-30,30-30
	h1.714c4.119-11.651,15.225-20,28.286-20h10c13.061,0,24.167,8.349,28.286,20H180C196.569,340,210,353.431,210,370L210,370z
	 M320,378c-16.568,0-30,13.431-30,30v10c0,0.685,0.07,1.354,0.201,2H240c-16.568,0-30,13.431-30,30v10c0,5.523,4.477,10,10,10h62
	h114.518c35.222-23.175,64.392-54.795,84.598-92H320z"/>
<g>
</g>
<g>
</g>
<g>
</g>
<g>
</g>
<g>
</g>
<g>
</g>
<g>
</g>
<g>
</g>
<g>
</g>
<g>
</g>
<g>
</g>
<g>
</g>
<g>
</g>
<g>
</g>
<g>
</g>
</svg>
