<?xml version="1.0" encoding="UTF-8"?>
<svg width="512px" height="512px" viewBox="0 0 512 512" version="1.1" xmlns="http://www.w3.org/2000/svg" xmlns:xlink="http://www.w3.org/1999/xlink">
    <title>ph-challenge-tasks</title>
    <g id="ph-challenge-tasks" stroke="none" stroke-width="1" fill="none" fill-rule="evenodd">
        <g id="list" transform="translate(11.000000, 0.000000)" fill-rule="nonzero">
            <path d="M434.99,421.68 C469.373,379.499 490,325.662 490,267 C490,131.69 380.31,22 245,22 C109.69,22 0,131.69 0,267 C0,325.662 20.627,379.499 55.01,421.68 L434.99,421.68 Z" id="Path" fill="#73C3F9"></path>
            <path d="M435,42 L435,421.68 C390.08,476.8 321.65,512 245,512 C204.44,512 166.19,502.15 132.5,484.7 C102.52,469.18 76.15,447.64 55,421.68 L55,42 C55,30.95 63.95,22 75,22 L415,22 C426.05,22 435,30.95 435,42 Z" id="Path" fill="#DEEEFF"></path>
            <path d="M132.5,22 L132.5,484.7 C102.52,469.18 76.15,447.64 55,421.68 L55,42 C55,30.95 63.95,22 75,22 L132.5,22 Z" id="Path" fill="#D3DCFB"></path>
            <path d="M337.5,137.5 L207.5,137.5 C203.358,137.5 200,134.143 200,130 C200,125.857 203.358,122.5 207.5,122.5 L337.5,122.5 C341.642,122.5 345,125.857 345,130 C345,134.143 341.642,137.5 337.5,137.5 Z" id="Path" fill="#BEC8F7"></path>
            <path d="M395,177.5 L207.5,177.5 C203.358,177.5 200,174.143 200,170 C200,165.857 203.358,162.5 207.5,162.5 L395,162.5 C399.142,162.5 402.5,165.857 402.5,170 C402.5,174.143 399.142,177.5 395,177.5 Z" id="Path" fill="#BEC8F7"></path>
            <path d="M152.5,187.5 L112.5,187.5 C102.851,187.5 95,179.649 95,170 L95,130 C95,120.351 102.851,112.5 112.5,112.5 L152.5,112.5 C162.149,112.5 170,120.351 170,130 L170,170 C170,179.649 162.149,187.5 152.5,187.5 Z M112.5,127.5 C111.122,127.5 110,128.621 110,130 L110,170 C110,171.379 111.122,172.5 112.5,172.5 L152.5,172.5 C153.878,172.5 155,171.379 155,170 L155,130 C155,128.621 153.878,127.5 152.5,127.5 L112.5,127.5 Z" id="Shape" fill="#BEC8F7"></path>
            <path d="M337.5,237.5 L207.5,237.5 C203.358,237.5 200,234.143 200,230 C200,225.857 203.358,222.5 207.5,222.5 L337.5,222.5 C341.642,222.5 345,225.857 345,230 C345,234.143 341.642,237.5 337.5,237.5 Z" id="Path" fill="#BEC8F7"></path>
            <path d="M395,277.5 L207.5,277.5 C203.358,277.5 200,274.143 200,270 C200,265.857 203.358,262.5 207.5,262.5 L395,262.5 C399.142,262.5 402.5,265.857 402.5,270 C402.5,274.143 399.142,277.5 395,277.5 Z" id="Path" fill="#BEC8F7"></path>
            <path d="M152.5,287.5 L112.5,287.5 C102.851,287.5 95,279.649 95,270 L95,230 C95,220.351 102.851,212.5 112.5,212.5 L152.5,212.5 C162.149,212.5 170,220.351 170,230 L170,270 C170,279.649 162.149,287.5 152.5,287.5 Z M112.5,227.5 C111.122,227.5 110,228.621 110,230 L110,270 C110,271.379 111.122,272.5 112.5,272.5 L152.5,272.5 C153.878,272.5 155,271.379 155,270 L155,230 C155,228.621 153.878,227.5 152.5,227.5 L112.5,227.5 Z" id="Shape" fill="#BEC8F7"></path>
            <path d="M337.5,337.5 L207.5,337.5 C203.358,337.5 200,334.143 200,330 C200,325.857 203.358,322.5 207.5,322.5 L337.5,322.5 C341.642,322.5 345,325.857 345,330 C345,334.143 341.642,337.5 337.5,337.5 Z" id="Path" fill="#BEC8F7"></path>
            <path d="M395,377.5 L207.5,377.5 C203.358,377.5 200,374.143 200,370 C200,365.857 203.358,362.5 207.5,362.5 L395,362.5 C399.142,362.5 402.5,365.857 402.5,370 C402.5,374.143 399.142,377.5 395,377.5 Z" id="Path" fill="#BEC8F7"></path>
            <path d="M152.5,387.5 L112.5,387.5 C102.851,387.5 95,379.649 95,370 L95,330 C95,320.351 102.851,312.5 112.5,312.5 L152.5,312.5 C162.149,312.5 170,320.351 170,330 L170,370 C170,379.649 162.149,387.5 152.5,387.5 Z M112.5,327.5 C111.122,327.5 110,328.621 110,330 L110,370 C110,371.379 111.122,372.5 112.5,372.5 L152.5,372.5 C153.878,372.5 155,371.379 155,370 L155,330 C155,328.621 153.878,327.5 152.5,327.5 L112.5,327.5 Z" id="Shape" fill="#BEC8F7"></path>
            <path d="M337.5,437.5 L207.5,437.5 C203.358,437.5 200,434.143 200,430 C200,425.857 203.358,422.5 207.5,422.5 L337.5,422.5 C341.642,422.5 345,425.857 345,430 C345,434.143 341.642,437.5 337.5,437.5 Z" id="Path" fill="#BEC8F7"></path>
            <path d="M392.666,462.5 L207.5,462.5 C203.358,462.5 200,465.857 200,470 C200,474.143 203.358,477.5 207.5,477.5 L370.402,477.5 C378.107,472.9 385.539,467.892 392.666,462.5 Z" id="Path" fill="#BEC8F7"></path>
            <path d="M152.5,412.5 L112.5,412.5 C102.851,412.5 95,420.351 95,430 L95,460.711 C108.338,471.055 122.769,480.055 138.097,487.5 L152.5,487.5 C162.149,487.5 170,479.649 170,470 L170,430 C170,420.351 162.149,412.5 152.5,412.5 Z M155,470 C155,471.379 153.878,472.5 152.5,472.5 L112.5,472.5 C111.122,472.5 110,471.379 110,470 L110,430 C110,428.621 111.122,427.5 112.5,427.5 L152.5,427.5 C153.878,427.5 155,428.621 155,430 L155,470 Z" id="Shape" fill="#BEC8F7"></path>
            <path d="M132.5,0 C143.546,0 152.5,8.954 152.5,20 L152.5,60 C152.5,71.046 143.546,80 132.5,80 C121.454,80 112.5,71.046 112.5,60 L112.5,20 C112.5,8.954 121.454,0 132.5,0 Z" id="Path" fill="#6C5475"></path>
            <path d="M132.5,40 C121.454,40 112.5,31.046 112.5,20 L112.5,60 C112.5,71.046 121.454,80 132.5,80 C143.546,80 152.5,71.046 152.5,60 L152.5,20 C152.5,31.046 143.546,40 132.5,40 Z" id="Path" fill="#543E5B"></path>
            <path d="M207.5,0 C218.546,0 227.5,8.954 227.5,20 L227.5,60 C227.5,71.046 218.546,80 207.5,80 C196.454,80 187.5,71.046 187.5,60 L187.5,20 C187.5,8.954 196.454,0 207.5,0 Z" id="Path" fill="#6C5475"></path>
            <path d="M207.5,40 C196.454,40 187.5,31.046 187.5,20 L187.5,60 C187.5,71.046 196.454,80 207.5,80 C218.546,80 227.5,71.046 227.5,60 L227.5,20 C227.5,31.046 218.546,40 207.5,40 Z" id="Path" fill="#543E5B"></path>
            <path d="M282.5,0 C293.546,0 302.5,8.954 302.5,20 L302.5,60 C302.5,71.046 293.546,80 282.5,80 C271.454,80 262.5,71.046 262.5,60 L262.5,20 C262.5,8.954 271.454,0 282.5,0 Z" id="Path" fill="#6C5475"></path>
            <path d="M357.5,0 C368.546,0 377.5,8.954 377.5,20 L377.5,60 C377.5,71.046 368.546,80 357.5,80 C346.454,80 337.5,71.046 337.5,60 L337.5,20 C337.5,8.954 346.454,0 357.5,0 Z" id="Path" fill="#6C5475"></path>
            <path d="M137.92,167.08 C135.931,167.08 134.023,166.29 132.617,164.884 L117.617,149.884 C114.688,146.954 114.688,142.206 117.617,139.277 C120.546,136.349 125.295,136.349 128.223,139.277 L137.92,148.974 L167.196,119.697 C170.125,116.769 174.874,116.769 177.802,119.697 C180.731,122.627 180.731,127.375 177.802,130.304 L143.222,164.884 C141.817,166.29 139.91,167.08 137.92,167.08 Z" id="Path" fill="#FF7186"></path>
            <path d="M137.92,267.08 C135.931,267.08 134.023,266.29 132.617,264.884 L117.617,249.884 C114.688,246.954 114.688,242.206 117.617,239.277 C120.546,236.349 125.295,236.349 128.223,239.277 L137.92,248.974 L167.196,219.697 C170.125,216.769 174.874,216.769 177.802,219.697 C180.731,222.627 180.731,227.375 177.802,230.304 L143.222,264.884 C141.817,266.29 139.91,267.08 137.92,267.08 Z" id="Path" fill="#FF7186"></path>
            <path d="M137.92,367.08 C135.931,367.08 134.023,366.29 132.617,364.884 L117.617,349.884 C114.688,346.954 114.688,342.206 117.617,339.277 C120.546,336.349 125.295,336.349 128.223,339.277 L137.92,348.974 L167.196,319.697 C170.125,316.769 174.874,316.769 177.802,319.697 C180.731,322.627 180.731,327.375 177.802,330.304 L143.222,364.884 C141.817,366.29 139.91,367.08 137.92,367.08 Z" id="Path" fill="#FF7186"></path>
            <path d="M282.5,40 C271.454,40 262.5,31.046 262.5,20 L262.5,60 C262.5,71.046 271.454,80 282.5,80 C293.546,80 302.5,71.046 302.5,60 L302.5,20 C302.5,31.046 293.546,40 282.5,40 Z" id="Path" fill="#543E5B"></path>
            <path d="M357.5,40 C346.454,40 337.5,31.046 337.5,20 L337.5,60 C337.5,71.046 346.454,80 357.5,80 C368.546,80 377.5,71.046 377.5,60 L377.5,20 C377.5,31.046 368.546,40 357.5,40 Z" id="Path" fill="#543E5B"></path>
        </g>
    </g>
</svg>