<?xml version="1.0" encoding="iso-8859-1"?>
<!-- Generator: Adobe Illustrator 19.0.0, SVG Export Plug-In . SVG Version: 6.00 Build 0)  -->
<svg version="1.1" id="Capa_1" xmlns="http://www.w3.org/2000/svg" xmlns:xlink="http://www.w3.org/1999/xlink" x="0px" y="0px"
	 viewBox="0 0 512 512" style="enable-background:new 0 0 512 512;" xml:space="preserve">
<circle style="fill:#E858AE;" cx="256" cy="256" r="256"/>
<path style="fill:#EFEFEF;" d="M325.861,207.1c-37.562,0-68.282-29.799-69.794-66.997c1.023-24.964,14.913-46.659,35.196-58.633
	c-10.273-6.275-22.345-9.894-35.263-9.894c-12.919,0-24.99,3.619-35.263,9.894c20.245,11.952,34.118,33.585,35.188,58.489
	c-1.438,37.265-32.187,67.142-69.797,67.142v10.718c0,20.691,16.773,37.465,37.465,37.465h65.29
	c20.691,0,37.465-16.773,37.465-37.465v-10.73C326.186,207.089,326.024,207.1,325.861,207.1z"/>
<g>
	<path style="fill:#DDDDDD;" d="M243.412,72.754c-8.169,1.536-15.823,4.531-22.675,8.717c3.39,2.002,6.597,4.28,9.6,6.796
		C233.663,82.284,238.117,77.02,243.412,72.754z"/>
	<path style="fill:#DDDDDD;" d="M223.708,217.04v-20.95c-10.858,6.961-23.751,11.011-37.58,11.011v10.718
		c0,20.691,16.773,37.465,37.465,37.465h16.539C230.022,245.667,223.708,232.095,223.708,217.04z"/>
</g>
<path style="fill:#EFEFEF;" d="M122.831,474.674c38.798,23.678,84.386,37.325,133.165,37.326h0.01
	c48.779-0.001,94.367-13.648,133.165-37.326V346.28h-266.34V474.674z"/>
<path style="fill:#DDDDDD;" d="M172.666,386.22c0-19.95,14.396-36.527,33.364-39.939H122.83v128.392
	c15.592,9.516,32.284,17.408,49.836,23.449L172.666,386.22L172.666,386.22z"/>
<path style="fill:#9586EA;" d="M331.533,346.28H180.467c-8.445,0-15.291-6.846-15.291-15.291l0,0
	c0-8.445,6.846-15.291,15.291-15.291h151.065c8.445,0,15.291,6.846,15.291,15.291l0,0
	C346.824,339.434,339.977,346.28,331.533,346.28z"/>
<path style="fill:#806CD4;" d="M248.067,330.989L248.067,330.989c0-8.445,6.846-15.291,15.291-15.291h-82.89
	c-8.445,0-15.291,6.846-15.291,15.291l0,0c0,8.445,6.846,15.291,15.291,15.291h82.89
	C254.913,346.28,248.067,339.434,248.067,330.989z"/>
<path style="fill:#647892;" d="M309.272,300.407L309.272,300.407c0-8.445-6.846-15.291-15.291-15.291h-75.962
	c-8.445,0-15.291,6.846-15.291,15.291l0,0c0,8.445,6.846,15.291,15.291,15.291h75.962
	C302.425,315.698,309.272,308.853,309.272,300.407z"/>
<path style="fill:#7D93AA;" d="M309.272,269.826L309.272,269.826c0-8.445-6.846-15.291-15.291-15.291h-75.962
	c-8.445,0-15.291,6.846-15.291,15.291l0,0c0,8.445,6.846,15.291,15.291,15.291h75.962
	C302.425,285.116,309.272,278.271,309.272,269.826z"/>
<path style="fill:#4D6682;" d="M248.067,300.407L248.067,300.407c0-8.445,6.846-15.291,15.291-15.291H218.02
	c-8.445,0-15.291,6.846-15.291,15.291l0,0c0,8.445,6.846,15.291,15.291,15.291h45.337
	C254.913,315.698,248.067,308.853,248.067,300.407z"/>
<path style="fill:#647892;" d="M248.067,269.826L248.067,269.826c0-8.445,6.846-15.291,15.291-15.291H218.02
	c-8.445,0-15.291,6.846-15.291,15.291l0,0c0,8.445,6.846,15.291,15.291,15.291h45.337
	C254.913,285.116,248.067,278.271,248.067,269.826z"/>
<path style="fill:#DDDDDD;" d="M172.821,346.28v21.958c0,7.342,5.952,13.294,13.294,13.294h140.924
	c7.342,0,13.294-5.952,13.294-13.294V346.28H172.821z"/>
<path style="fill:#CECCCA;" d="M259.238,368.239V346.28h-86.417v21.958c0,7.342,5.952,13.294,13.294,13.294h86.417
	C265.19,381.533,259.238,375.581,259.238,368.239z"/>
<path style="fill:#9586EA;" d="M265.151,174.029c-18.831-32.616-7.615-74.471,25-93.301s74.471-7.616,93.301,25
	c18.83,32.617,7.615,74.471-25,93.301S283.981,206.645,265.151,174.029z"/>
<path style="fill:#806CD4;" d="M289.884,159.749c-16.382-28.375-10.016-63.734,13.39-84.851c-4.482,1.451-8.883,3.38-13.124,5.83
	c-32.616,18.83-43.831,60.685-25,93.301c18.831,32.616,60.686,43.831,93.302,25c4.241-2.448,8.112-5.294,11.61-8.45
	C340.072,200.29,306.267,188.124,289.884,159.749z"/>
<g>
	<path style="fill:#EFEFEF;" d="M277.335,54.339c-1.81-3.991-0.042-8.691,3.949-10.501c27.246-12.357,58.112-12.3,84.676-1.015
		c4.033,1.714,5.914,6.371,4.2,10.404c-1.714,4.033-6.37,5.914-10.403,4.2c-22.501-9.558-48.75-9.647-71.919,0.861
		C283.833,60.105,279.139,58.315,277.335,54.339z"/>
	<path style="fill:#EFEFEF;" d="M141.325,54.339c-1.81-3.991-0.042-8.691,3.949-10.501c27.246-12.357,58.112-12.3,84.676-1.015
		c4.033,1.714,5.914,6.371,4.2,10.404c-1.714,4.033-6.37,5.914-10.403,4.2c-22.501-9.558-48.751-9.647-71.919,0.861
		C147.822,60.105,143.128,58.315,141.325,54.339z"/>
</g>
<path style="fill:#ABBFFF;" d="M392.603,147.811h-31.734c-4.381,0-7.934-3.551-7.934-7.934s3.551-7.934,7.934-7.934h31.734
	c4.381,0,7.934,3.551,7.934,7.934C400.536,144.26,396.985,147.811,392.603,147.811z"/>
<path style="fill:#DDDDDD;" d="M186.128,207.1v10.718c0,20.691,16.773,37.465,37.465,37.465h65.29
	c20.691,0,37.465-16.773,37.465-37.465V207.1L186.128,207.1L186.128,207.1z"/>
<path style="fill:#CECCCA;" d="M223.823,217.819V207.1h-37.695v10.718c0,20.691,16.773,37.465,37.466,37.465h37.695
	C240.596,255.283,223.823,238.51,223.823,217.819z"/>
<path style="fill:#F8A748;" d="M176.707,455.99c-2.424,0-4.685-1.224-6.009-3.254l-19.374-29.699
	c-1.133-1.736-3.066-2.783-5.138-2.783H122.83l0,0v54.418C161.629,498.352,207.219,512,256,512v-56.01L176.707,455.99
	L176.707,455.99z"/>
<path style="fill:#EF8C29;" d="M172.666,454.736c-0.77-0.526-1.444-1.196-1.969-2l-19.374-29.698
	c-1.133-1.736-3.066-2.783-5.138-2.783h-23.354v54.419c15.422,9.412,32.261,17.399,49.836,23.449v-43.387H172.666z"/>
<path style="fill:#FAC149;" d="M389.17,420.254L389.17,420.254h-23.354c-2.073,0-4.006,1.047-5.138,2.783l-19.374,29.699
	c-1.324,2.031-3.585,3.254-6.009,3.254H256V512c48.78,0,94.37-13.648,133.17-37.326L389.17,420.254L389.17,420.254z"/>
<path style="fill:#9586EA;" d="M228.529,434.203c-4.381,0-7.934-3.551-7.934-7.934v-14.147c0-4.382,3.551-7.934,7.934-7.934
	c4.381,0,7.934,3.551,7.934,7.934v14.147C236.463,430.652,232.91,434.203,228.529,434.203z"/>
<path style="fill:#FAC149;" d="M283.471,434.203c-4.381,0-7.934-3.551-7.934-7.934v-14.147c0-4.382,3.551-7.934,7.934-7.934
	s7.934,3.551,7.934,7.934v14.147C291.405,430.652,287.852,434.203,283.471,434.203z"/>
<path style="fill:#42D1CA;" d="M256,434.203c-4.381,0-7.934-3.551-7.934-7.934v-14.147c0-4.382,3.551-7.934,7.934-7.934
	s7.934,3.551,7.934,7.934v14.147C263.934,430.652,260.381,434.203,256,434.203z"/>
<path style="fill:#7D93AA;" d="M389.17,346.28L389.17,346.28v78.485h49.974v-28.511C439.144,368.655,416.769,346.28,389.17,346.28z"
	/>
<path style="fill:#647892;" d="M414.156,396.255c0-12.669,4.724-24.229,12.493-33.037c-9.157-10.381-22.55-16.937-37.481-16.937l0,0
	v78.485h24.987l0,0V396.255z"/>
<path style="fill:#EFEFEF;" d="M422.04,450.836h-32.87v23.837C400.768,467.595,411.752,459.612,422.04,450.836z"/>
<g>
	<path style="fill:#DDDDDD;" d="M414.156,450.836h-24.987v23.836c8.685-5.3,17.026-11.108,24.987-17.376V450.836z"/>
	<path style="fill:#DDDDDD;" d="M439.144,420.254H389.17v30.582h32.87c5.943-5.07,11.648-10.407,17.104-15.993L439.144,420.254
		L439.144,420.254z"/>
</g>
<rect x="389.17" y="420.25" style="fill:#CECCCA;" width="24.987" height="30.582"/>
<path style="fill:#7D93AA;" d="M122.83,346.28L122.83,346.28v78.485H72.856v-28.511C72.856,368.655,95.231,346.28,122.83,346.28z"/>
<path style="fill:#647892;" d="M97.844,401.59c0-21.906,9.416-41.613,24.42-55.296c-27.338,0.305-49.407,22.55-49.407,49.96v28.511
	h24.987C97.844,424.765,97.844,401.59,97.844,401.59z"/>
<path style="fill:#EFEFEF;" d="M122.831,474.674v-23.837H89.96C100.248,459.612,111.232,467.595,122.831,474.674z"/>
<g>
	<path style="fill:#DDDDDD;" d="M97.56,450.836h-7.6c2.492,2.126,5.027,4.203,7.6,6.234V450.836z"/>
	<path style="fill:#DDDDDD;" d="M72.856,434.844c5.455,5.585,11.161,10.923,17.104,15.993h32.87v-30.582H72.856V434.844z"/>
</g>
<path style="fill:#CECCCA;" d="M97.56,420.254H72.856v14.589c5.455,5.585,11.161,10.923,17.104,15.993h7.6
	C97.56,450.836,97.56,420.254,97.56,420.254z"/>
<path style="fill:#9586EA;" d="M128.548,174.029c-18.831-32.616-7.615-74.471,25-93.301s74.471-7.616,93.301,25
	s7.615,74.471-25,93.301S147.379,206.645,128.548,174.029z"/>
<path style="fill:#806CD4;" d="M153.282,159.749c-16.382-28.375-10.016-63.734,13.39-84.851
	c-41.447,13.42-59.75,61.672-38.124,99.131c18.831,32.616,60.686,43.831,93.302,25c4.241-2.448,8.112-5.294,11.61-8.45
	C203.47,200.29,169.664,188.124,153.282,159.749z"/>
<path style="fill:#ABBFFF;" d="M119.397,147.811h31.734c4.381,0,7.934-3.551,7.934-7.934s-3.551-7.934-7.934-7.934h-31.734
	c-4.381,0-7.934,3.551-7.934,7.934C111.464,144.26,115.015,147.811,119.397,147.811z"/>
<path style="fill:#806CD4;" d="M153.282,159.749c10.957,18.978,35.31,25.503,54.288,14.546s25.503-35.309,14.546-54.288
	c-10.957-18.979-35.31-25.503-54.288-14.546S142.325,140.771,153.282,159.749z"/>
<path style="fill:#6858AD;" d="M174.615,147.432c-8.808-15.255-6.311-33.977,4.862-46.429
	c-26.415,5.566-39.659,35.426-26.195,58.745c10.957,18.979,35.31,25.503,54.288,14.546c3.723-2.149,6.959-4.82,9.684-7.859
	C200.885,169.887,183.422,162.688,174.615,147.432z"/>
<path style="fill:#EFEFEF;" d="M180.523,147.811h13.398c4.381,0,7.934-3.551,7.934-7.934s-3.551-7.934-7.934-7.934h-13.398
	c-4.381,0-7.934,3.551-7.934,7.934C172.591,144.26,176.142,147.811,180.523,147.811z"/>
<path style="fill:#806CD4;" d="M289.884,159.749c10.957,18.978,35.31,25.503,54.288,14.546
	c18.978-10.957,25.503-35.309,14.546-54.288c-10.957-18.978-35.31-25.503-54.288-14.546
	C285.454,116.419,278.927,140.771,289.884,159.749z"/>
<path style="fill:#6858AD;" d="M311.217,147.432c-8.808-15.255-6.311-33.977,4.862-46.429c-3.995,0.842-7.926,2.309-11.648,4.458
	c-18.978,10.957-25.503,35.309-14.546,54.288c10.957,18.979,35.31,25.503,54.288,14.546c3.723-2.149,6.959-4.82,9.684-7.859
	C337.488,169.887,320.025,162.688,311.217,147.432z"/>
<path style="fill:#EFEFEF;" d="M317.01,147.811h13.398c4.381,0,7.934-3.551,7.934-7.934s-3.551-7.934-7.934-7.934H317.01
	c-4.381,0-7.934,3.551-7.934,7.934C309.076,144.26,312.628,147.811,317.01,147.811z"/>
<g>
</g>
<g>
</g>
<g>
</g>
<g>
</g>
<g>
</g>
<g>
</g>
<g>
</g>
<g>
</g>
<g>
</g>
<g>
</g>
<g>
</g>
<g>
</g>
<g>
</g>
<g>
</g>
<g>
</g>
</svg>
