<svg height="512pt" viewBox="-16 0 512 512" width="512pt" xmlns="http://www.w3.org/2000/svg"><path d="m479.949219 272.027344c0 132.53125-107.441407 239.972656-239.976563 239.972656-132.53125 0-239.972656-107.441406-239.972656-239.972656 0-132.535156 107.441406-239.976563 239.972656-239.976563 132.535156 0 239.976563 107.441407 239.976563 239.976563zm0 0" fill="#f79552"/><g fill="#dfdee4"><path d="m126.007812 166.617188c-4.113281 0-7.445312-3.332032-7.445312-7.445313v-105.039063c0-4.113281 3.332031-7.445312 7.445312-7.445312 4.113282 0 7.449219 3.332031 7.449219 7.445312v105.039063c0 4.113281-3.335937 7.445313-7.449219 7.445313zm0 0"/><path d="m353.941406 166.617188c-4.113281 0-7.445312-3.332032-7.445312-7.445313v-105.039063c0-4.113281 3.332031-7.445312 7.445312-7.445312 4.113282 0 7.449219 3.332031 7.449219 7.445312v105.039063c-.003906 4.113281-3.335937 7.445313-7.449219 7.445313zm0 0"/><path d="m99.851562 159.171875c0-10.882813 8.824219-19.703125 19.703126-19.703125v39.410156c-10.878907-.003906-19.703126-8.824218-19.703126-19.707031zm0 0"/></g><path d="m101.890625 150.484375c-1.292969 2.625-2.039063 5.566406-2.039063 8.6875 0 10.882813 8.824219 19.703125 19.703126 19.703125v-17.375c-7.757813 0-14.449219-4.496094-17.664063-11.015625zm0 0" fill="#d1d0d6"/><path d="m380.097656 159.171875c0-10.882813-8.820312-19.703125-19.703125-19.703125v39.410156c10.882813-.003906 19.703125-8.824218 19.703125-19.707031zm0 0" fill="#dfdee4"/><path d="m360.394531 162.34375v16.53125c10.882813 0 19.703125-8.820312 19.703125-19.703125 0-2.957031-.667968-5.75-1.835937-8.265625-3.125 6.746094-9.941407 11.4375-17.867188 11.4375zm0 0" fill="#d1d0d6"/><path d="m144.117188 111.839844h-3.175782c-12.359375 0-22.378906 10.019531-22.378906 22.378906v49.910156c0 12.359375 10.019531 22.378906 22.378906 22.378906h3.175782zm0 0" fill="#5f6abb"/><path d="m335.835938 111.839844h3.171874c12.359376 0 22.378907 10.019531 22.378907 22.378906v49.910156c0 12.359375-10.019531 22.378906-22.378907 22.378906h-3.171874zm0 0" fill="#5f6abb"/><path d="m118.5625 152.441406v31.6875c0 12.359375 10.019531 22.378906 22.378906 22.378906h3.175782v-39.890624h-3.175782c-12.359375 0-22.378906-6.34375-22.378906-14.175782zm0 0" fill="#6757aa"/><path d="m339.007812 166.617188h-3.171874v39.890624h3.171874c12.359376 0 22.382813-10.019531 22.382813-22.378906v-31.6875c0 7.832032-10.023437 14.175782-22.382813 14.175782zm0 0" fill="#6757aa"/><path d="m330.003906 78.027344-23.445312-17.605469c-35.882813 39.132813-97.4375 39.089844-133.265625-.113281l-23.058594 17.460937c-4.476563 3.390625-7.109375 8.6875-7.109375 14.304688v100.066406l96.851562 26.085937 96.855469-26.085937v-100.449219c-.003906-5.375-2.53125-10.433594-6.828125-13.664062zm0 0" fill="#6757aa"/><path d="m239.976562 89.738281c-.828124-.183593-37.769531 2.207031-66.683593-29.429687l-23.058594 17.460937c-4.476563 3.390625-7.109375 8.6875-7.109375 14.304688v100.066406l96.851562 26.085937zm0 0" fill="#584496"/><path d="m239.976562 217.175781 43.617188-11.75-31.695312-23.804687c-7.292969-5.476563-17.332032-5.457032-24.601563.050781l-31.257813 23.667969zm0 0" fill="#dfdee4"/><path d="m250.425781 180.617188c-7.128906-4.441407-16.335937-4.089844-23.128906 1.054687l-31.257813 23.667969 43.9375 10.84375-.117187-16.925782c-.050781-7.191406 3.960937-18.492187 10.566406-18.640624zm0 0" fill="#d1d0d6"/><path d="m308.90625 263.324219h-138.179688c-15.578124 0-28.203124 13.304687-28.203124 29.714843h194.585937c0-16.410156-12.628906-29.714843-28.203125-29.714843zm0 0" fill="#5f6abb"/><path d="m294.113281 263.324219h-123.386719c-15.578124 0-28.203124 13.304687-28.203124 29.714843h139.089843c0-13.707031 5.214844-25.367187 12.5-29.714843zm0 0" fill="#6757aa"/><path d="m456.773438 361.050781c-8.828126 0-16.664063 5.710938-19.695313 14.242188-3.5 9.84375-9.925781 22.621093-21.25 31.007812h23.066406c9.527344-14.089843 17.589844-29.246093 23.988281-45.25zm0 0" fill="#dfdee4"/><path d="m393.585938 456.386719c5.640624-4.707031 11.066406-9.660157 16.25-14.855469h-16.25zm0 0" fill="#dfdee4"/><path d="m438.894531 406.300781h-23.066406c-6.277344 4.644531-13.761719 7.65625-22.242187 8.515625v26.714844h16.25c10.757812-10.777344 20.496093-22.574219 29.058593-35.230469zm0 0" fill="#d1d0d6"/><path d="m42.871094 375.292969c-3.03125-8.527344-10.867188-14.242188-19.699219-14.242188h-6.105469c6.398438 16.003907 14.460938 31.164063 23.988282 45.25h23.066406c-11.324219-8.382812-17.753906-21.164062-21.25-31.007812zm0 0" fill="#dfdee4"/><path d="m86.363281 456.386719v-14.855469h-16.253906c5.1875 5.199219 10.613281 10.148438 16.253906 14.855469zm0 0" fill="#dfdee4"/><path d="m41.054688 406.300781c8.5625 12.65625 18.300781 24.453125 29.054687 35.230469h16.253906v-26.714844c-8.480469-.859375-15.964843-3.871094-22.246093-8.515625zm0 0" fill="#d1d0d6"/><path d="m369.050781 443.4375c.0625-.0625.117188-.132812.179688-.195312-8.1875 8.121093-19.257813 13.136718-31.480469 13.136718h-54.699219c-4.808593 0-9.421875-1.984375-12.824219-5.515625l-20.871093-21.65625c-5.179688-5.378906-13.582031-5.378906-18.765625 0l-20.722656 21.507813c-3.496094 3.625-8.234376 5.664062-13.175782 5.664062h-54.496094c-12.214843 0-23.285156-5.015625-31.472656-13.132812.0625.0625.113282.128906.175782.191406 12.707031 12.425781 21.855468 28.082031 25.871093 45.289062 31.261719 14.914063 66.257813 23.273438 103.203125 23.273438 36.949219 0 71.941406-8.359375 103.207032-23.273438 4.015624-17.207031 13.160156-32.863281 25.871093-45.289062zm0 0" fill="#5f6abb"/><path d="m239.734375 425.183594c-3.316406.0625-6.613281 1.398437-9.144531 4.023437l-20.722656 21.507813c-3.496094 3.625-8.234376 5.664062-13.175782 5.664062h-54.496094c-12.214843 0-23.285156-5.015625-31.472656-13.132812.0625.0625.113282.128906.175782.1875 12.707031 12.429687 21.855468 28.085937 25.871093 45.289062 31.195313 14.886719 66.101563 23.238282 102.964844 23.273438zm0 0" fill="#6757aa"/><path d="m286.800781 456.378906h-3.75c-4.808593 0-9.421875-1.984375-12.824219-5.515625l-20.871093-21.65625c-5.179688-5.378906-13.582031-5.378906-18.765625 0l-20.722656 21.507813c-3.496094 3.625-8.234376 5.664062-13.175782 5.664062h-3.546875v51.039063c15.148438 2.996093 30.804688 4.582031 46.828125 4.582031 16.027344 0 31.679688-1.585938 46.828125-4.582031zm0 0" fill="#587ecd"/><path d="m239.660156 460.019531c0-10.898437 8.027344-20.007812 18.460938-21.71875l-8.765625-9.09375c-5.179688-5.378906-13.582031-5.378906-18.765625 0l-20.722656 21.507813c-3.496094 3.625-8.234376 5.664062-13.175782 5.664062h-3.546875v51.039063c15.050781 2.976562 30.597657 4.558593 46.515625 4.578125zm0 0" fill="#5f6abb"/><path d="m366.308594 290.53125h-127.222656v137.839844c3.683593-.242188 7.453124 1.027344 10.269531 3.847656l20.871093 20.871094c3.402344 3.398437 8.015626 5.308594 12.828126 5.308594h54.699218c25.1875 0 45.605469-20.417969 45.605469-45.605469v-105.210938c-.003906-9.417969-7.636719-17.050781-17.050781-17.050781zm0 0" fill="#dfdee4"/><path d="m269.730469 412.792969v-105.210938c0-9.417969 7.632812-17.050781 17.046875-17.050781h-47.691406v137.839844c3.683593-.242188 7.453124 1.027344 10.269531 3.847656l20.871093 20.871094c3.402344 3.398437 8.015626 5.308594 12.824219 5.308594h32.285157c-25.1875 0-45.605469-20.417969-45.605469-45.605469zm0 0" fill="#d1d0d6"/><path d="m239.972656 290.53125h-125.980468c-9.609376 0-17.402344 7.792969-17.402344 17.402344v104.859375c0 25.1875 20.417968 45.605469 45.605468 45.605469h54.496094c4.941406 0 9.679688-1.960938 13.175782-5.457032l20.726562-20.722656c2.589844-2.59375 5.984375-3.890625 9.378906-3.890625zm0 0" fill="#584496"/><path d="m193.695312 290.53125c9.613282 0 17.402344 7.792969 17.402344 17.402344v104.859375c0 25.1875-20.417968 45.605469-45.605468 45.605469h31.199218c4.941406 0 9.679688-1.960938 13.175782-5.457032l20.726562-20.722656c2.589844-2.59375 5.984375-3.890625 9.378906-3.890625v-137.796875zm0 0" fill="#6757aa"/><path d="m307.632812 61.226562-17.632812-13.242187c-29.847656-22.417969-70.9375-22.335937-100.695312.199219l-17.078126 12.933594c35.949219 40.738281 99.34375 40.847656 135.40625.109374zm0 0" fill="#5f6abb"/><path d="m277.660156 40.929688c.167969-.128907.34375-.246094.515625-.371094-28.242187-14.605469-62.875-12.058594-88.867187 7.625l-17.082032 12.933594c26.957032 30.546874 69.785157 38.527343 104.941407 22.605468-13.632813-10.894531-13.777344-31.988281.492187-42.792968zm0 0" fill="#6757aa"/><path d="m164.929688 415.40625c-12.023438 0-23.425782-4.574219-32.109376-12.878906-4.992187-4.773438-5.167968-12.6875-.394531-17.675782 4.769531-4.992187 12.683594-5.167968 17.675781-.394531 4.007813 3.832031 9.277344 5.945313 14.828126 5.945313 11.832031 0 21.460937-9.628906 21.460937-21.460938 0-6.90625 5.59375-12.5 12.5-12.5 6.902344 0 12.5 5.597656 12.5 12.5 0 25.621094-20.84375 46.464844-46.460937 46.464844zm0 0" fill="#587ecd"/><path d="m198.890625 381.445312c-6.90625 0-12.503906-5.597656-12.503906-12.503906 0-11.832031-9.625-21.457031-21.457031-21.457031-6.90625 0-12.503907-5.597656-12.503907-12.503906 0-6.902344 5.597657-12.5 12.503907-12.5 25.617187 0 46.460937 20.84375 46.460937 46.464843 0 6.902344-5.597656 12.5-12.5 12.5zm0 0" fill="#48a4ef"/><path d="m410.96875 290.535156h-9.28125c-10.121094 0-18.328125 8.207032-18.328125 18.328125v109.078125c1.601563-.117187 3.25-.179687 4.964844-.179687 29.628906 0 43.066406-23.121094 48.753906-38.683594 3.03125-8.296875 10.867187-13.851563 19.695313-13.851563h4.402343c4.265625-10.109374 7.84375-20.578124 10.707031-31.339843-8.75-25.230469-32.707031-43.351563-60.914062-43.351563zm0 0" fill="#5f6abb"/><path d="m414.355469 308.863281c0-7.464843 4.46875-13.875 10.875-16.734375-4.589844-1.035156-9.359375-1.59375-14.261719-1.59375h-9.28125c-10.125 0-18.328125 8.207032-18.328125 18.328125v109.078125c1.601563-.117187 3.25-.179687 4.964844-.179687 10.636719 0 19.179687-2.992188 26.035156-7.53125v-101.367188zm0 0" fill="#6757aa"/><path d="m78.261719 290.535156h-9.28125c-28.207031 0-52.167969 18.121094-60.914063 43.351563 2.863282 10.761719 6.441406 21.230469 10.707032 31.339843h4.398437c8.832031 0 16.667969 5.554688 19.699219 13.851563 5.6875 15.5625 19.121094 38.683594 48.753906 38.683594 1.714844 0 3.363281.0625 4.964844.179687v-109.078125c0-10.121093-8.207032-18.328125-18.328125-18.328125zm0 0" fill="#5f6abb"/><path d="m52.328125 308.863281c0-10.125 8.207031-18.328125 18.328125-18.328125h-1.675781c-28.207031 0-52.167969 18.121094-60.914063 43.351563 2.863282 10.761719 6.441406 21.230469 10.707032 31.339843h4.398437c8.832031 0 16.667969 5.554688 19.695313 13.851563 2.035156 5.558594 5.0625 12.082031 9.460937 18.175781zm0 0" fill="#6757aa"/><path d="m326.3125 332.242188h-31.699219c-4.113281 0-7.449219-3.332032-7.449219-7.445313s3.335938-7.445313 7.449219-7.445313h31.699219c4.113281 0 7.449219 3.332032 7.449219 7.445313-.003907 4.113281-3.335938 7.445313-7.449219 7.445313zm0 0" fill="#d1d0d6"/><path d="m308.425781 355.128906c-7.628906 0-13.816406 6.183594-13.816406 13.8125s6.1875 13.816406 13.816406 13.816406h17.886719v-27.628906zm0 0" fill="#f37254"/><path d="m355.421875 355.128906h27.933594v27.625h-27.933594zm0 0" fill="#fedc4c"/><path d="m326.3125 355.128906h29.109375v27.625h-29.109375zm0 0" fill="#fab94f"/><path d="m141.457031 405.992188c-3.105469 0-6.214843-1.148438-8.636719-3.464844-9.257812-8.851563-14.355468-20.78125-14.355468-33.585938 0-25.617187 20.84375-46.460937 46.464844-46.460937 6.902343 0 12.5 5.59375 12.5 12.5 0 6.902343-5.597657 12.5-12.5 12.5-11.835938 0-21.460938 9.628906-21.460938 21.460937 0 5.914063 2.355469 11.421875 6.632812 15.511719 4.988282 4.773437 5.164063 12.6875.394532 17.675781-2.457032 2.570313-5.746094 3.863282-9.039063 3.863282zm0 0" fill="#5f6abb"/><path d="m164.929688 390.402344c-5.554688 0-10.820313-2.113282-14.828126-5.945313-4.992187-4.773437-12.90625-4.597656-17.675781.394531-4.773437 4.988282-4.597656 12.902344.394531 17.675782 8.683594 8.304687 20.085938 12.878906 32.109376 12.878906zm0 0" fill="#587ecd"/><path d="m248.960938 487.761719h-18.289063c-4.113281 0-7.445313-3.332031-7.445313-7.445313 0-4.113281 3.332032-7.449218 7.445313-7.449218h18.289063c4.109374 0 7.445312 3.335937 7.445312 7.449218 0 4.113282-3.335938 7.445313-7.445312 7.445313zm0 0" fill="#48a4ef"/><path d="m180.410156 153.046875c-7.246094-1.523437-11.882812-8.628906-10.363281-15.871094 1.523437-7.246093 8.628906-11.886719 15.875-10.363281 32.675781 6.863281 74.433594 7.058594 108.089844-.066406 7.238281-1.53125 14.355469 3.097656 15.890625 10.339844 1.53125 7.242187-3.097656 14.355468-10.339844 15.886718-36.898438 7.808594-82.433594 7.785156-119.152344.074219zm0 0" fill="#85d0f9"/><path d="m241.789062 132.011719c-18.355468.121093-37.917968-1.433594-55.867187-5.203125-7.246094-1.519532-14.351563 3.121094-15.875 10.363281-1.519531 7.246094 3.117187 14.351563 10.363281 15.875 19.773438 4.152344 41.371094 5.925781 61.894532 5.769531-9.25-6.378906-9.609376-20.007812-.515626-26.804687zm0 0" fill="#48a4ef"/><path d="m143.125 190.097656v34.367188c0 8.914062 4.753906 17.148437 12.472656 21.605468l71.90625 41.515626c3.859375 2.230468 8.167969 3.34375 12.472656 3.34375v-74.746094zm0 0" fill="#b5b2be"/><path d="m336.828125 190.097656v34.367188c0 8.914062-4.757813 17.148437-12.472656 21.605468l-71.910157 41.515626c-3.859374 2.230468-8.164062 3.34375-12.472656 3.34375v-74.746094zm0 0" fill="#dfdee4"/><path d="m239.976562 108.269531c-7.628906 0-13.8125-6.183593-13.8125-13.816406v-80.640625c0-7.628906 6.183594-13.8125 13.8125-13.8125 7.628907 0 13.8125 6.183594 13.8125 13.8125v80.644531c0 7.628907-6.183593 13.8125-13.8125 13.8125zm0 0" fill="#48a4ef"/><path d="m239.976562 54.132812c-7.628906 0-13.8125-6.183593-13.8125-13.8125v54.132813c0 7.628906 6.183594 13.816406 13.8125 13.816406 7.628907 0 13.8125-6.183593 13.8125-13.816406v-54.132813c0 7.628907-6.183593 13.8125-13.8125 13.8125zm0 0" fill="#328be0"/><path d="m239.976562 76.226562c-7.628906 0-13.8125 6.183594-13.8125 13.8125v4.414063c0 7.632813 6.183594 13.816406 13.8125 13.816406 7.628907 0 13.8125-6.183593 13.8125-13.816406v-4.414063c0-7.628906-6.183593-13.8125-13.8125-13.8125zm0 0" fill="#48a4ef"/><path d="m239.972656 216.183594v74.746094c4.308594 0 8.613282-1.113282 12.472656-3.34375l42.097657-24.304688c-34.816407-19.59375-14.734375-54.03125-11.859375-58.601562zm0 0" fill="#d1d0d6"/></svg>