<?xml version="1.0" encoding="iso-8859-1"?>
<!-- Generator: Adobe Illustrator 19.0.0, SVG Export Plug-In . SVG Version: 6.00 Build 0)  -->
<svg version="1.1" id="Capa_1" xmlns="http://www.w3.org/2000/svg" xmlns:xlink="http://www.w3.org/1999/xlink" x="0px" y="0px"
	 viewBox="0 0 511.984 511.984" style="enable-background:new 0 0 511.984 511.984;" xml:space="preserve">
<circle style="fill:#FAC149;" cx="255.992" cy="263.714" r="248.27"/>
<path style="fill:#EFEFEF;" d="M52.608,383.441V406.1c2.141,3.053,4.352,6.054,6.625,9.003h48.873v-87.161l0,0
	C77.455,327.943,52.608,352.79,52.608,383.441z"/>
<path style="fill:#DDDDDD;" d="M80.356,414.816v-29.691c0-23.179,10.857-43.81,27.749-57.126v-0.055
	c-30.65,0-55.498,24.847-55.498,55.498v22.659c2.141,3.053,4.352,6.054,6.625,9.003h21.331
	C80.496,415.007,80.424,414.912,80.356,414.816z"/>
<path style="fill:#EFEFEF;" d="M108.105,463.135v-19.08H85.381C92.564,450.853,100.151,457.226,108.105,463.135z"/>
<path style="fill:#DDDDDD;" d="M85.381,444.055h22.724v-33.962H55.471C64.403,422.307,74.415,433.677,85.381,444.055z"/>
<path style="fill:#CECCCA;" d="M80.356,410.094H55.471c7.546,10.32,15.872,20.029,24.885,29.054V410.094z"/>
<path style="fill:#7D93AA;" d="M255.995,317.35L255.995,317.35L255.995,317.35c-0.864-0.104-28.343,0.971-58.686-12.473v57.318
	c2.191,2.191,5.066,3.473,8.128,3.473h102.633c2.491,0,4.829-1.044,6.612-2.828v-57.964
	C296.727,312.831,276.758,317.35,255.995,317.35z"/>
<path style="fill:#647892;" d="M234.77,365.668h39.91v-49.544c-13.382,1.674-26.414,1.68-39.91-0.361V365.668z"/>
<path style="fill:#4D6682;" d="M197.309,304.876v57.318c2.191,2.191,5.066,3.473,8.128,3.473h29.334v-49.904
	C221.901,313.813,209.701,310.366,197.309,304.876z"/>
<circle style="fill:#EFEFEF;" cx="255.992" cy="159.338" r="159.338"/>
<g>
	<path style="fill:#DDDDDD;" d="M168.831,209.665c-38.986-67.526-22.92-151.721,34.262-200.64
		c-9.123,3.222-18.084,7.315-26.766,12.327c-76.209,44-102.32,141.448-58.32,217.656s141.447,102.32,217.655,58.32
		c8.682-5.013,16.706-10.726,24.058-17.016C288.765,305.376,207.817,277.192,168.831,209.665z"/>
	<path style="fill:#DDDDDD;" d="M245.916,0.333v71.183c0,4.867,3.945,8.81,8.81,8.81s8.81-3.944,8.81-8.81V0.189
		C257.604-0.087,252.165-0.057,245.916,0.333z"/>
</g>
<path style="fill:#647892;" d="M100.536,124.295c-5.166,23.012-5.173,47.047,0,70.093c37.248,34.064,92.494,55.662,154.189,55.662
	c63.472,0,120.129-22.849,157.374-58.625c4.308-21.076,4.312-43.074,0-64.164C331.977,50.294,182.966,48.91,100.536,124.295z"/>
<path style="fill:#4D6682;" d="M168.831,209.665c-21.718-37.618-26.344-80.405-16.302-119.389
	c-19.651,9.002-37.211,20.51-51.948,33.978c-5.257,23.26-5.183,47.24-0.045,70.133c24.545,22.447,56.907,39.476,93.777,48.483
	C184.614,233.192,176.01,222.099,168.831,209.665z"/>
<path style="fill:#ABBFFF;" d="M151.085,90.945c-27.178,41.321-27.423,94.883-0.877,136.386
	c30.531,14.416,66.283,22.717,104.518,22.717c39.752,0,76.829-8.964,108.14-24.452c25.035-40.581,24.91-92.336-0.835-132.918
	C297.825,61.262,216.207,60.544,151.085,90.945z"/>
<path style="fill:#9586EA;" d="M151.085,90.945c-27.175,41.317-27.426,94.88-0.876,136.386c13.721,6.479,28.504,11.71,44.086,15.52
	c-9.691-9.674-18.289-20.761-25.463-33.187c-21.715-37.611-26.342-80.39-16.308-119.368
	C152.046,90.517,151.559,90.724,151.085,90.945z"/>
<path style="fill:#EFEFEF;" d="M459.383,406.1v-22.659c0-30.651-24.847-55.498-55.498-55.498l0,0v87.161h48.873
	C455.031,412.154,457.242,409.153,459.383,406.1z"/>
<path style="fill:#DDDDDD;" d="M430.772,392.567c0-16.537,6.736-31.498,17.61-42.298c-10.119-13.552-26.282-22.326-44.496-22.326
	l0,0v87.161h26.887L430.772,392.567L430.772,392.567z"/>
<path style="fill:#806CD4;" d="M403.885,327.943h-62.039c-7.887,0-15.001,4.743-18.033,12.025l-6.591,15.833
	c-1.538,3.696-5.15,6.105-9.153,6.105H205.436c-4.922,0-9.36-2.96-11.251-7.503l-5.732-13.769
	c-3.199-7.684-10.706-12.69-19.029-12.69h-61.319v135.192c41.309,30.684,92.478,48.845,147.89,48.845
	c55.413,0,106.581-18.161,147.89-48.846V327.943z"/>
<path style="fill:#6858AD;" d="M147.423,327.943h-39.318v135.192c12.282,9.122,25.441,17.128,39.318,23.889V327.943z"/>
<path style="fill:#EFEFEF;" d="M426.61,444.055h-22.724v19.08C411.839,457.226,419.426,450.853,426.61,444.055z"/>
<path style="fill:#DDDDDD;" d="M403.885,410.094v33.962h22.724c10.966-10.378,20.978-21.749,29.91-33.962H403.885z"/>
<path style="fill:#CECCCA;" d="M430.202,410.094h-26.316v33.962h22.724c1.211-1.146,2.405-2.308,3.592-3.478V410.094z"/>
<path style="fill:#6858AD;" d="M403.885,410.094h-295.78v53.042c41.309,30.684,92.477,48.845,147.89,48.845
	c55.412,0,106.581-18.161,147.89-48.845V410.094z"/>
<path style="fill:#484686;" d="M147.423,410.094h-39.318v53.042c19.519,14.427,33.01,20.435,39.318,23.889V410.094z"/>
<circle style="fill:#9586EA;" cx="254.731" cy="159.378" r="90.674"/>
<path style="fill:#806CD4;" d="M209.694,185.371c-21.721-37.621-13.412-84.333,17.478-112.401
	c-55.335,17.705-79.792,81.83-50.976,131.741c28.818,49.914,96.58,60.79,139.578,21.724
	C276.023,239.153,231.415,222.992,209.694,185.371z"/>
<circle style="fill:#6858AD;" cx="148.472" cy="368.511" r="16.749"/>
<path style="fill:#484686;" d="M148.474,368.506c-3.098-5.366-2.875-11.726,0.007-16.735c-2.85-0.004-5.736,0.704-8.382,2.231
	c-8.01,4.625-10.755,14.869-6.131,22.879c4.625,8.01,14.869,10.755,22.879,6.131c2.645-1.527,4.701-3.674,6.123-6.144
	C157.193,376.859,151.572,373.872,148.474,368.506z"/>
<g>
	<path style="fill:#806CD4;" d="M194.98,469.404c-4.865,0-8.81-3.944-8.81-8.81v-15.711c0-4.867,3.945-8.81,8.81-8.81
		c4.865,0,8.81,3.944,8.81,8.81v15.711C203.791,465.459,199.846,469.404,194.98,469.404z"/>
	<path style="fill:#806CD4;" d="M317.01,469.404c-4.865,0-8.81-3.944-8.81-8.81v-15.711c0-4.867,3.945-8.81,8.81-8.81
		c4.866,0,8.81,3.944,8.81,8.81v15.711C325.821,465.459,321.876,469.404,317.01,469.404z"/>
	<path style="fill:#806CD4;" d="M286.503,469.404c-4.866,0-8.81-3.944-8.81-8.81v-16.537c0-4.867,3.945-8.81,8.81-8.81
		c4.865,0,8.81,3.944,8.81,8.81v16.537C295.313,465.459,291.369,469.404,286.503,469.404z"/>
	<path style="fill:#806CD4;" d="M255.995,469.404c-4.865,0-8.81-3.944-8.81-8.81v-16.537c0-4.867,3.945-8.81,8.81-8.81
		c4.865,0,8.81,3.944,8.81,8.81v16.537C264.806,465.459,260.861,469.404,255.995,469.404z"/>
	<path style="fill:#806CD4;" d="M225.488,469.404c-4.865,0-8.81-3.944-8.81-8.81v-16.537c0-4.867,3.945-8.81,8.81-8.81
		s8.81,3.944,8.81,8.81v16.537C234.298,465.459,230.353,469.404,225.488,469.404z"/>
	<path style="fill:#806CD4;" d="M254.726,111.55c3.012,0,5.954,0.291,8.81,0.824V69.128c-5.98-0.577-11.631-0.578-17.62,0v43.246
		C248.772,111.842,251.714,111.55,254.726,111.55z"/>
	<path style="fill:#806CD4;" d="M206.935,159.342c0-3.001,0.289-5.932,0.819-8.78h-43.271c-0.577,5.983-0.578,11.631,0,17.62h43.282
		C207.227,165.316,206.935,162.363,206.935,159.342z"/>
</g>
<path style="fill:#6858AD;" d="M198.156,150.561h-33.675c-0.578,5.982-0.578,11.631,0,17.62h37.544
	C200.125,162.385,198.846,156.485,198.156,150.561z"/>
<g>
	<path style="fill:#806CD4;" d="M294.181,132.377l30.589-30.589c-3.74-4.545-7.915-8.719-12.461-12.461l-30.584,30.583
		C286.608,123.261,290.836,127.491,294.181,132.377z"/>
	<path style="fill:#806CD4;" d="M227.725,119.911L197.14,89.328c-4.545,3.74-8.719,7.915-12.461,12.461l30.589,30.589
		C218.615,127.491,222.843,123.26,227.725,119.911z"/>
</g>
<path style="fill:#6858AD;" d="M207.187,99.373L197.14,89.327c-4.545,3.74-8.719,7.915-12.46,12.46l15.723,15.723
	C202.01,111.253,204.284,105.172,207.187,99.373z"/>
<g>
	<path style="fill:#806CD4;" d="M281.691,198.797l30.619,30.619c4.545-3.74,8.719-7.915,12.461-12.461l-30.614-30.614
		C290.806,191.224,286.576,195.452,281.691,198.797z"/>
	<path style="fill:#806CD4;" d="M344.969,150.561h-43.271c0.529,2.848,0.819,5.779,0.819,8.78c0,3.022-0.293,5.975-0.83,8.841
		h43.282c0.28-2.9,0.433-5.836,0.433-8.81C345.403,156.399,345.249,153.461,344.969,150.561z"/>
	<path style="fill:#806CD4;" d="M215.295,186.342l-30.614,30.614c3.74,4.545,7.915,8.719,12.461,12.461l30.62-30.619
		C222.875,195.452,218.644,191.224,215.295,186.342z"/>
</g>
<path style="fill:#6858AD;" d="M197.14,229.416l26.119-26.118c-4.066-4.18-7.779-8.803-11.059-13.861l-27.519,27.519
	C188.421,221.501,192.596,225.676,197.14,229.416z"/>
<path style="fill:#806CD4;" d="M254.726,207.133c-3.012,0-5.954-0.291-8.81-0.824v43.307c2.9,0.279,5.837,0.433,8.81,0.433
	c2.974,0,5.91-0.153,8.81-0.433v-43.307C260.678,206.841,257.737,207.133,254.726,207.133z"/>
<path style="fill:#6858AD;" d="M263.536,227.272c-6.087-1.722-11.996-4.075-17.62-7.034v29.377c2.9,0.28,5.837,0.433,8.81,0.433
	c2.974,0,5.91-0.153,8.81-0.433V227.272z"/>
<circle style="fill:#806CD4;" cx="254.731" cy="159.378" r="51.997"/>
<path style="fill:#6858AD;" d="M241.32,167.112c-11.145-19.304-8.499-42.78,4.872-59.038c-5.987,0.995-11.9,3.054-17.465,6.267
	c-24.87,14.358-33.391,46.16-19.033,71.03s46.16,33.391,71.03,19.033c5.565-3.213,10.306-7.305,14.16-11.992
	C274.12,195.861,252.466,186.416,241.32,167.112z"/>
<circle style="fill:#ABBFFF;" cx="255.992" cy="159.338" r="16.749"/>
<g>
	<circle style="fill:#FFFFFF;" cx="314.776" cy="34.438" r="12.791"/>
	<circle style="fill:#FFFFFF;" cx="295.499" cy="51.766" r="6.659"/>
</g>
<circle style="fill:#6858AD;" cx="360.979" cy="368.511" r="16.749"/>
<path style="fill:#484686;" d="M360.976,368.506c-3.098-5.366-2.875-11.726,0.007-16.735c-2.849-0.004-5.736,0.704-8.382,2.231
	c-8.01,4.625-10.755,14.869-6.131,22.879c4.625,8.01,14.869,10.755,22.879,6.131c2.645-1.527,4.701-3.674,6.123-6.144
	C369.694,376.859,364.074,373.872,360.976,368.506z"/>
<g>
</g>
<g>
</g>
<g>
</g>
<g>
</g>
<g>
</g>
<g>
</g>
<g>
</g>
<g>
</g>
<g>
</g>
<g>
</g>
<g>
</g>
<g>
</g>
<g>
</g>
<g>
</g>
<g>
</g>
</svg>
