<svg id="Capa_1" enable-background="new 0 0 501 501" height="512" viewBox="0 0 501 501" width="512" xmlns="http://www.w3.org/2000/svg"><path d="m5.5 256c0-135.133 109.404-244.713 244.47-244.999 135.266-.286 244.687 108.184 245.525 243.448.48 77.464-34.993 146.66-90.712 191.882-2.829 2.296-6.536 3.188-10.11 2.48-45.114-8.946-93.636-13.811-144.173-13.811-50.694 0-99.36 4.896-144.594 13.893-3.307.658-6.733-.172-9.355-2.293-55.538-44.914-91.051-113.61-91.051-190.6z" fill="#01cffa"/><path d="m270.5 415h-40c-13.807 0-25-11.193-25-25 0-13.807 11.193-25 25-25h40c13.807 0 25 11.193 25 25 0 13.807-11.193 25-25 25z" fill="#0494fb"/><path d="m289.03 354.302h-77.06c-64.877 0-117.47-52.593-117.47-117.47 0-64.877 52.593-117.47 117.47-117.47h77.06c64.877 0 117.47 52.593 117.47 117.47 0 64.877-52.593 117.47-117.47 117.47zm66.085 25.698h-209.229c-35.981 0-59.063 34.667-49.937 66.112 42.159 34.316 95.953 54.888 154.551 54.888s112.392-20.572 154.552-54.888c9.126-31.445-13.956-66.112-49.937-66.112z" fill="#c43286"/><path d="m135.634 242.5c-3.11 0-5.678-2.501-5.679-5.611 0-.019 0-.038 0-.057 0-64.877 52.593-117.47 117.47-117.47h41.606c64.877 0 117.47 52.593 117.47 117.47 0 1.9-.046 3.79-.135 5.668zm3.127 15c-3.663 0-6.392 3.423-5.533 6.984 12.434 51.534 58.844 89.818 114.196 89.818h41.606c57.825 0 105.891-41.781 115.657-96.802zm266.291 188.611c-37.628 30.627-84.521 50.306-135.827 54.183-39.777-3.006-76.903-15.511-109.114-35.251-38.525-23.61-23.848-83.452 21.31-85.01.634-.022 1.273-.033 1.915-.033h171.779c35.981 0 59.063 34.667 49.937 66.111zm-174.552-9.611c0-4.142-3.358-7.5-7.5-7.5s-7.5 3.358-7.5 7.5v17c0 4.142 3.358 7.5 7.5 7.5s7.5-3.358 7.5-7.5zm27.5-9c0-4.142-3.358-7.5-7.5-7.5s-7.5 3.358-7.5 7.5v35c0 4.142 3.358 7.5 7.5 7.5s7.5-3.358 7.5-7.5zm27.5 9c0-4.142-3.358-7.5-7.5-7.5s-7.5 3.358-7.5 7.5v17c0 4.142 3.358 7.5 7.5 7.5s7.5-3.358 7.5-7.5z" fill="#fc5e93"/><path d="m320.5 250c0 38.66-31.34 70-70 70s-70-31.34-70-70 31.34-70 70-70 70 31.34 70 70z" fill="#0ed1b2"/><path d="m320.5 250c0 14.344-4.315 27.681-11.717 38.783-11.102 7.402-24.438 11.717-38.783 11.717-38.66 0-70-31.34-70-70 0-14.344 4.315-27.681 11.717-38.783 11.102-7.402 24.439-11.717 38.783-11.717 38.66 0 70 31.34 70 70z" fill="#00f1a5"/><path d="m280.5 250c0 16.569-13.431 30-30 30s-30-13.431-30-30 13.431-30 30-30 30 13.431 30 30z" fill="#00429a"/><path d="m276.851 264.351c-5.089 9.324-14.981 15.649-26.351 15.649-16.569 0-30-13.431-30-30 0-11.37 6.325-21.262 15.649-26.351-2.327 4.263-3.649 9.152-3.649 14.351 0 16.569 13.431 30 30 30 5.199 0 10.088-1.323 14.351-3.649z" fill="#012d4e"/><path d="m285 230.5c0 8.284-6.716 15-15 15s-15-6.716-15-15 6.716-15 15-15 15 6.716 15 15z" fill="#f5f0eb"/><path d="m131.302 25.977 49.135 85.104-12.99 7.5-49.135-85.104c-6.126.36-12.224-2.672-15.501-8.349-4.625-8.011-1.88-18.256 6.131-22.881s18.255-1.88 22.881 6.131c3.277 5.676 2.853 12.473-.521 17.599zm260.757-23.73c-8.011-4.625-18.256-1.88-22.881 6.131-3.277 5.676-2.854 12.473.52 17.599l-49.135 85.104 12.99 7.5 49.135-85.104c6.126.36 12.224-2.672 15.501-8.349 4.626-8.012 1.881-18.256-6.13-22.881z" fill="#012d4e"/><path d="m409.132 128.744c4.463 1.871 7.368 6.238 7.368 11.077 0 6.634-5.378 12.011-12.011 12.011h-307.978c-6.634 0-12.011-5.378-12.011-12.011 0-4.84 2.905-9.206 7.368-11.077l88.061-36.912 5.06-35.423c2.015-14.102 14.092-24.577 28.338-24.577 5.966 0 11.783 1.864 16.638 5.332l3.897 2.784c9.953 7.109 23.323 7.109 33.276 0l3.897-2.784c4.855-3.468 10.672-5.332 16.638-5.332 14.245 0 26.323 10.475 28.338 24.577l5.06 35.423z" fill="#0055c7"/><path d="m106.664 151.832h-10.153c-6.634 0-12.011-5.378-12.011-12.011 0-4.84 2.905-9.206 7.368-11.077l88.061-36.912 5.06-35.423c2.015-14.102 14.092-24.577 28.338-24.577 1.487 0 2.965.116 4.422.344-4.191 5.386-6.759 12.081-7.011 19.34l-.999 40.317-97.993 55.21c-2.118 1.166-3.845 2.829-5.082 4.789z" fill="#015081"/><path d="m318.214 71.832s1.113 6.933 1.473 9.481c.35 2.478 1.384 10.519 1.384 10.519h-139.142l2.857-20z" fill="#003278"/><path d="m209.738 91.832h-29.809s.88-7.496 1.301-10.249c.346-2.264 1.557-9.751 1.557-9.751h27.448z" fill="#012d4e"/></svg>