<svg id="Capa_1" enable-background="new 0 0 501 501" height="512" viewBox="0 0 501 501" width="512" xmlns="http://www.w3.org/2000/svg"><path d="m5.5 256c0-135.31 109.69-245 245-245s245 109.69 245 245c0 100.365-60.35 186.635-146.74 224.5-30.079-13.184-63.315-20.5-98.26-20.5s-68.181 7.316-98.26 20.5c-86.39-37.865-146.74-124.135-146.74-224.5z" fill="#69c3da"/><path d="m260.5 80h-20v-40h20zm-10 210c-26.299 0-47.619 21.32-47.619 47.619s21.32 47.619 47.619 47.619 47.619-21.32 47.619-47.619-21.32-47.619-47.619-47.619zm-110.584 65.762c-23.538 0-42.619 19.894-42.619 60s19.081 85.238 42.619 85.238 42.619-45.132 42.619-85.238-19.081-60-42.619-60zm221.163 0c-23.538 0-42.619 19.894-42.619 60s19.081 85.238 42.619 85.238 42.619-45.132 42.619-85.238-19.081-60-42.619-60z" fill="#017bad"/><path d="m153.717 495.731c-4.328 3.368-8.971 5.269-13.801 5.269-23.538 0-42.619-45.132-42.619-85.238 0-35.261 14.75-54.897 34.309-59.127-7.67 11.116-12.344 27.146-12.344 48.127 0 37.03 14.559 77.894 34.455 90.969z" fill="#056099"/><path d="m485.704 187.196-19.198 5.607c-27.824-95.267-116.649-161.803-216.006-161.803s-188.182 66.536-216.006 161.804l-19.198-5.607c14.553-49.827 45.437-94.673 86.964-126.275 42.913-32.659 94.174-49.922 148.24-49.922s105.327 17.263 148.24 49.921c41.527 31.602 72.411 76.448 86.964 126.275z" fill="#012d4e"/><path d="m362.622 383.663-17.955 80.799c-1.609 7.242-4.008 14.141-7.094 20.614-27.056 10.29-56.407 15.924-87.073 15.924s-60.017-5.634-87.073-15.924c-3.086-6.473-5.485-13.372-7.094-20.614l-17.955-80.799c-6.609-29.738 16.021-57.949 46.485-57.949h131.275c30.464 0 53.093 28.211 46.484 57.949zm63.878-193.663c0-66.274-53.726-120-120-120h-112c-66.274 0-120 53.726-120 120 0 66.274 53.726 120 120 120h112c66.274 0 120-53.726 120-120zm-149.5-163.5c0 14.636-11.864 26.5-26.5 26.5s-26.5-11.864-26.5-26.5 11.864-26.5 26.5-26.5 26.5 11.864 26.5 26.5z" fill="#ececf1"/><path d="m306.5 310h-72c-66.274 0-120-53.726-120-120 0-66.274 53.726-120 120-120h72c66.274 0 120 53.726 120 120 0 66.274-53.726 120-120 120zm-56-310c-3.347 0-6.549.621-9.497 1.753-1.132 2.948-1.753 6.15-1.753 9.497 0 14.636 11.864 26.5 26.5 26.5 3.347 0 6.549-.621 9.497-1.753 1.132-2.948 1.753-6.15 1.753-9.497 0-14.636-11.864-26.5-26.5-26.5zm23.317 470c40.171 0 75.057-27.652 84.237-66.761 2.711-11.547 4.568-19.576 4.568-19.576 6.608-29.739-16.021-57.949-46.485-57.949h-85.026c-30.464 0-53.094 28.21-46.485 57.949 0 0 2.143 8.665 5.367 21.257 9.801 38.29 44.301 65.08 83.824 65.08z" fill="#fff5f5"/><path d="m335.5 230h-170c-24.853 0-45-20.147-45-45 0-24.853 20.147-45 45-45h170c24.853 0 45 20.147 45 45 0 24.853-20.147 45-45 45z" fill="#056099"/><path d="m335.5 230h-146c-24.853 0-45-20.147-45-45 0-24.853 20.147-45 45-45h146c24.853 0 45 20.147 45 45 0 24.853-20.147 45-45 45z" fill="#0571b3"/><path d="m196.875 162.5c-12.407 0-22.5 10.094-22.5 22.5s10.093 22.5 22.5 22.5 22.5-10.094 22.5-22.5-10.093-22.5-22.5-22.5zm0 30c-4.136 0-7.5-3.364-7.5-7.5s3.364-7.5 7.5-7.5 7.5 3.364 7.5 7.5-3.364 7.5-7.5 7.5zm107.25-30c-12.407 0-22.5 10.094-22.5 22.5s10.093 22.5 22.5 22.5 22.5-10.094 22.5-22.5-10.093-22.5-22.5-22.5zm0 30c-4.136 0-7.5-3.364-7.5-7.5s3.364-7.5 7.5-7.5 7.5 3.364 7.5 7.5-3.364 7.5-7.5 7.5z" fill="#01bff9"/><path d="m275.5 265c0 8.284-6.716 15-15 15h-20c-8.284 0-15-6.716-15-15 0-2.761 2.239-5 5-5h40c2.761 0 5 2.239 5 5z" fill="#babac0"/><path d="m454.5 220v10c0 27.57-22.43 50-50 50h-120c-5.523 0-10-4.478-10-10s4.477-10 10-10h120c16.542 0 30-13.458 30-30v-10c0-5.522 4.477-10 10-10s10 4.478 10 10z" fill="#012d4e"/><path d="m67.448 176.234v27.532c0 7.603-6.163 13.766-13.766 13.766h-20.65c-15.205 0-27.532-12.326-27.532-27.532 0-15.206 12.327-27.532 27.532-27.532h20.649c7.604 0 13.767 6.163 13.767 13.766zm379.87 41.298h20.649c15.206 0 27.532-12.327 27.532-27.532 0-15.206-12.327-27.532-27.532-27.532h-20.649c-7.603 0-13.766 6.163-13.766 13.766v27.532c0 7.603 6.163 13.766 13.766 13.766z" fill="#013f69"/><path d="m81.214 155.584v68.831c0 7.603-6.163 13.766-13.766 13.766-19.007 0-34.416-15.408-34.416-34.416v-27.533c0-19.007 15.408-34.416 34.416-34.416 7.603.002 13.766 6.166 13.766 13.768zm352.338 82.598c19.007 0 34.416-15.408 34.416-34.416v-27.533c0-19.007-15.408-34.416-34.416-34.416-7.603 0-13.766 6.163-13.766 13.766v68.831c0 7.604 6.163 13.768 13.766 13.768z" fill="#056099"/><path d="m67.448 238.182c-2.569 0-5.071-.282-7.479-.816-3.96-5.606-6.287-12.448-6.287-19.834v-55.065c0-7.386 2.327-14.228 6.287-19.834 2.408-.534 4.911-.816 7.479-.816 7.603 0 13.766 6.163 13.766 13.766v68.831c0 7.604-6.163 13.768-13.766 13.768zm352.338-82.598v68.831c0 7.603 6.163 13.766 13.766 13.766 2.569 0 5.071-.282 7.479-.816 3.96-5.606 6.287-12.448 6.287-19.834v-55.065c0-7.386-2.327-14.228-6.287-19.834-2.408-.534-4.911-.816-7.479-.816-7.603.002-13.766 6.166-13.766 13.768z" fill="#013f69"/><path d="m289.5 285h-10c-8.284 0-15-6.716-15-15 0-8.284 6.716-15 15-15h10c8.284 0 15 6.716 15 15 0 8.284-6.716 15-15 15z" fill="#056099"/><path d="m250.5 406.286c-9.586 0-17.357 7.771-17.357 17.357v49c0 9.586 7.771 17.357 17.357 17.357s17.357-7.771 17.357-17.357v-49c0-9.586-7.771-17.357-17.357-17.357z" fill="#17b0ce"/><path d="m233.143 377.357c0-9.586 7.771-17.357 17.357-17.357s17.357 7.771 17.357 17.357-7.771 17.357-17.357 17.357-17.357-7.771-17.357-17.357zm17.357 28.929c-9.586 0-17.357 7.771-17.357 17.357v36.202c10.541 5.62 22.323 9.101 34.714 9.951v-46.153c0-9.586-7.771-17.357-17.357-17.357z" fill="#69c3da"/></svg>