<svg height="512pt" viewBox="0 0 512 512.00029" width="512pt" xmlns="http://www.w3.org/2000/svg"><path d="m0 256c0-141.253906 114.402344-255.789062 255.609375-256 140.964844-.210938 256.199219 114.679688 256.390625 255.644531.113281 84.753907-40.964844 159.914063-104.320312 206.585938-1.445313 1.066406-3.410157 1.0625-4.878907.03125-41.566406-29.148438-92.179687-46.261719-146.800781-46.261719-54.167969 0-104.398438 16.832031-145.765625 45.539062-2.125 1.472657-4.929687 1.429688-7.003906-.113281-62.648438-46.667969-103.230469-121.300781-103.230469-205.425781zm0 0" fill="#fd7d43"/><path d="m256 350c-57.988281 0-105-47.007812-105-105 0-57.988281 47.011719-105 105-105s105 47.011719 105 105c0 57.992188-47.011719 105-105 105zm0 0" fill="#1f3595"/><path d="m361 245c0 52.839844-39.03125 96.554688-89.832031 103.90625-50.804688-7.351562-89.832031-51.066406-89.832031-103.90625s39.027343-96.554688 89.832031-103.90625c50.800781 7.351562 89.832031 51.066406 89.832031 103.90625zm0 0" fill="#314dc8"/><path d="m482 165c0 74.558594-60.441406 135-135 135h-182c-74.558594 0-135-60.441406-135-135s60.441406-135 135-135h182c74.558594 0 135 60.441406 135 135zm-121.640625 165h-208.71875c-37.347656 0-65.625 33.757812-59.070313 70.53125l10.886719 61.070312c42.605469 31.660157 95.382813 50.398438 152.542969 50.398438s109.9375-18.738281 152.542969-50.398438l10.882812-61.070312c6.554688-36.773438-21.714843-70.53125-59.066406-70.53125zm0 0" fill="#98e5fb"/><path d="m482 165c0 74.558594-60.441406 135-135 135h-142c-74.558594 0-135-60.441406-135-135s60.441406-135 135-135h142c74.558594 0 135 60.441406 135 135zm-121.640625 165h-160.34375c-37.347656 0-65.621094 33.757812-59.066406 70.53125l11.523437 64.652344c.039063.226562.082032.449218.125.675781 3.589844 19.476563 32.089844 17.78125 33.503906-1.96875l2.421876-33.90625c.378906-5.316406 4.582031-9.75 9.910156-9.976563 5.921875-.246093 10.800781 4.480469 10.800781 10.347657v77.367187c15.164063 2.800782 30.792969 4.277344 46.765625 4.277344 30.921875 0 60.558594-5.480469 88-15.527344v-65.785156c0-5.375 3.953125-10.101562 9.300781-10.632812 5.894531-.589844 10.972657 3.796874 11.386719 9.566406l4.019531 56.28125c14.050781-6.902344 27.378907-15.046875 39.835938-24.300782l10.882812-61.070312c6.554688-36.773438-21.714843-70.53125-59.066406-70.53125zm0 0" fill="#c7eefd"/><path d="m361 220h-210c-27.613281 0-50-22.386719-50-50v-20c0-27.613281 22.386719-50 50-50h210c27.613281 0 50 22.386719 50 50v20c0 27.613281-22.386719 50-50 50zm0 0" fill="#1f3595"/><path d="m361 100h-181c-26.246094 0-47.75 20.226562-49.820312 45.9375 5.726562 2.109375 9.820312 7.601562 9.820312 14.0625s-4.09375 11.953125-9.820312 14.0625c2.070312 25.710938 23.574218 45.9375 49.820312 45.9375h181c27.613281 0 50-22.386719 50-50v-20c0-27.613281-22.386719-50-50-50zm-196 75c-8.285156 0-15-6.714844-15-15s6.714844-15 15-15 15 6.714844 15 15-6.714844 15-15 15zm0 0" fill="#314dc8"/><path d="m340 160c0 13.808594-11.191406 25-25 25s-25-11.191406-25-25 11.191406-25 25-25 25 11.191406 25 25zm-75-15c-8.285156 0-15 6.714844-15 15s6.714844 15 15 15 15-6.714844 15-15-6.714844-15-15-15zm-50 0c-8.285156 0-15 6.714844-15 15s6.714844 15 15 15 15-6.714844 15-15-6.714844-15-15-15zm150 0c-8.285156 0-15 6.714844-15 15s6.714844 15 15 15 15-6.714844 15-15-6.714844-15-15-15zm0 0" fill="#01cffa"/><path d="m330 160c0 8.285156-6.714844 15-15 15s-15-6.714844-15-15 6.714844-15 15-15 15 6.714844 15 15zm0 0" fill="#c7eefd"/></svg>