<?xml version="1.0" encoding="iso-8859-1"?>
<!-- Generator: Adobe Illustrator 19.0.0, SVG Export Plug-In . SVG Version: 6.00 Build 0)  -->
<svg version="1.1" id="Capa_1" xmlns="http://www.w3.org/2000/svg" xmlns:xlink="http://www.w3.org/1999/xlink" x="0px" y="0px"
	 viewBox="0 0 512 512" style="enable-background:new 0 0 512 512;" xml:space="preserve">
<circle style="fill:#9586EA;" cx="256" cy="261.826" r="250.174"/>
<g>
	<path style="fill:#EFEFEF;" d="M384.139,91.964c-5.066,0-9.172-4.106-9.172-9.172V9.172c0-5.066,4.107-9.172,9.172-9.172
		c5.065,0,9.172,4.106,9.172,9.172v73.619C393.312,87.858,389.205,91.964,384.139,91.964z"/>
	<path style="fill:#EFEFEF;" d="M127.86,91.964c-5.066,0-9.172-4.106-9.172-9.172V9.172c0-5.066,4.107-9.172,9.172-9.172
		c5.066,0,9.172,4.106,9.172,9.172v73.619C137.032,87.858,132.926,91.964,127.86,91.964z"/>
</g>
<g>
	<path style="fill:#7D93AA;" d="M365.795,66.673v130.655l0,0c20.263,0,36.688-16.426,36.688-36.688v-57.279
		C402.484,83.099,386.058,66.673,365.795,66.673L365.795,66.673z"/>
	<path style="fill:#7D93AA;" d="M146.204,66.673v130.655l0,0c-20.263,0-36.688-16.426-36.688-36.688v-57.279
		C109.516,83.099,125.942,66.673,146.204,66.673L146.204,66.673z"/>
</g>
<g>
	<path style="fill:#647892;" d="M365.795,153.284v44.043c20.263,0,36.689-16.426,36.689-36.688v-44.043
		C402.484,136.859,386.058,153.284,365.795,153.284z"/>
	<path style="fill:#647892;" d="M109.516,116.596v44.043c0,20.263,16.426,36.688,36.688,36.688l0,0v-44.043l0,0
		C125.942,153.284,109.516,136.859,109.516,116.596z"/>
</g>
<path style="fill:#EFEFEF;" d="M256,3.198c-47.289,0-88.618,25.489-111.017,63.473v130.658h-0.001
	c49.833,84.5,172.123,84.64,222.037-0.002V66.673C344.619,28.688,303.289,3.198,256,3.198z"/>
<path style="fill:#DDDDDD;" d="M196.464,115.003c0-52.758,36.58-97.721,86.106-109.05c-0.766-0.11-11.917-2.754-26.569-2.754
	c-46.219,0-88.099,24.609-111.017,63.473V197.33h-0.001c22.312,37.833,63.405,63.263,110.459,63.463
	c-24.717-14.603-45.351-40.356-58.978-63.463h0.001v-82.326H196.464z"/>
<path style="fill:#EF67B8;" d="M409.967,320.4H102.033v138.616C144.487,492.211,197.931,512,256,512s111.513-19.789,153.967-52.984
	L409.967,320.4L409.967,320.4z"/>
<path style="fill:#E858AE;" d="M137.91,320.4h-35.877v138.616c11.227,8.779,23.23,16.608,35.877,23.394V320.4z"/>
<path style="fill:#647892;" d="M308.183,320.4H203.817c-9.764,0-17.679-7.915-17.679-17.679l0,0c0-9.764,7.915-17.679,17.679-17.679
	h104.366c9.764,0,17.679,7.915,17.679,17.679l0,0C325.861,312.484,317.946,320.4,308.183,320.4z"/>
<path style="fill:#E858AE;" d="M335.637,441.284H176.363c-2.623,0-4.75-2.126-4.75-4.75v-25.859c0-2.623,2.126-4.75,4.75-4.75
	h159.274c2.623,0,4.75,2.126,4.75,4.75v25.859C340.385,439.158,338.259,441.284,335.637,441.284z"/>
<path style="fill:#BA4FAE;" d="M231.151,423.605c0-9.764,7.915-17.679,17.679-17.679h-72.467c-2.623,0-4.75,2.126-4.75,4.75v25.859
	c0,2.623,2.126,4.75,4.75,4.75h72.467C239.066,441.284,231.151,433.368,231.151,423.605z"/>
<path style="fill:#E858AE;" d="M169.58,320.4c20.283,25.319,51.455,41.537,86.42,41.537c34.964,0,66.137-16.218,86.419-41.537
	H169.58z"/>
<path style="fill:#BA4FAE;" d="M241.095,320.4H169.58c17.013,21.237,41.689,36.064,69.836,40.295
	C227.304,350.652,228.111,329.563,241.095,320.4z"/>
<path style="fill:#FAC149;" d="M331.213,485.813h-26.161c-5.066,0-9.172-4.106-9.172-9.172c0-5.066,4.107-9.172,9.172-9.172h26.161
	c5.066,0,9.172,4.106,9.172,9.172C340.385,481.707,336.279,485.813,331.213,485.813z"/>
<path style="fill:#7D93AA;" d="M308.183,249.684h-2.603c-31.595,13.189-67.514,13.212-99.161,0h-2.603
	c-9.764,0-17.679,7.916-17.679,17.679c0,9.764,7.916,17.679,17.679,17.679h104.366c9.764,0,17.679-7.915,17.679-17.679
	C325.862,257.599,317.946,249.684,308.183,249.684z"/>
<path style="fill:#4D6682;" d="M241.095,302.721c0-9.764,7.915-17.679,17.679-17.679h-54.958c-9.764,0-17.679,7.915-17.679,17.679
	c0,9.764,7.915,17.679,17.679,17.679h54.958C249.01,320.4,241.095,312.484,241.095,302.721z"/>
<path style="fill:#647892;" d="M241.095,267.363c0-3.046,0.771-5.912,2.127-8.413c-12.924-1.274-25.287-4.458-36.804-9.266h-2.603
	c-9.764,0-17.679,7.916-17.679,17.679c0,9.764,7.915,17.679,17.679,17.679h54.958C249.011,285.041,241.095,277.127,241.095,267.363z
	"/>
<g>
	<path style="fill:#DDDDDD;" d="M287.293,132c0-15.599,12.645-28.245,28.245-28.245H196.463c15.599,0,28.245,12.645,28.245,28.245
		s-12.645,28.245-28.245,28.245h119.073C299.938,160.244,287.293,147.599,287.293,132z"/>
	<path style="fill:#DDDDDD;" d="M144.982,197.328c49.838,84.513,172.132,84.627,222.038,0H144.982z"/>
</g>
<path style="fill:#CECCCA;" d="M256,197.328H144.982c22.4,37.985,63.729,63.474,111.018,63.474V197.328z"/>
<path style="fill:#C1C1C1;" d="M196.464,197.328h-51.481v0.001l0,0c22.824,38.711,64.384,63.267,110.459,63.463
	C230.724,246.188,210.09,220.435,196.464,197.328l0.001,0.001v-0.001H196.464z"/>
<circle style="fill:#9586EA;" cx="196.462" cy="131.999" r="28.248"/>
<path style="fill:#806CD4;" d="M196.463,132c-5.226-9.052-4.865-19.791,0.002-28.242c-4.801-0.005-9.667,1.207-14.125,3.781
	c-13.509,7.8-18.138,25.073-10.338,38.583c7.8,13.509,25.073,18.138,38.583,10.338c4.457-2.574,7.94-6.181,10.336-10.342
	C211.17,146.109,201.689,141.052,196.463,132z"/>
<path style="fill:#7D93AA;" d="M44.254,378.178v16.917c3.465,5.495,7.131,10.852,11.002,16.047h46.777v-90.743l0,0
	C70.122,320.4,44.254,346.268,44.254,378.178z"/>
<path style="fill:#647892;" d="M73.143,407.01v-23.79c0-24.92,11.229-47.207,28.889-62.113V320.4l0,0
	c-31.91,0-57.778,25.868-57.778,57.778v16.917c3.465,5.495,7.131,10.852,11.002,16.047h20.548
	C74.912,409.768,74.018,408.396,73.143,407.01z"/>
<path style="fill:#EFEFEF;" d="M102.033,459.016v-17.732H81.718C88.166,447.547,94.943,453.472,102.033,459.016z"/>
<path style="fill:#DDDDDD;" d="M81.718,441.284h20.315v-35.358H51.478C60.452,418.639,70.586,430.471,81.718,441.284z"/>
<path style="fill:#CECCCA;" d="M73.143,405.925H51.478c6.611,9.367,13.859,18.252,21.665,26.607V405.925z"/>
<path style="fill:#7D93AA;" d="M467.746,395.095v-16.917c0-31.91-25.868-57.778-57.778-57.778l0,0v90.743h46.777
	C460.615,405.946,464.279,400.589,467.746,395.095z"/>
<path style="fill:#647892;" d="M437.856,391.691c0-18.548,6.832-35.49,18.095-48.485c-10.554-13.857-27.221-22.805-45.983-22.805
	v90.743h27.888V391.691z"/>
<path style="fill:#EFEFEF;" d="M430.282,441.284h-20.315v17.732C417.057,453.472,423.834,447.547,430.282,441.284z"/>
<path style="fill:#DDDDDD;" d="M409.967,405.925v35.358h20.315c11.132-10.813,21.266-22.645,30.24-35.358H409.967z"/>
<path style="fill:#CECCCA;" d="M438.857,405.925h-28.889v35.358h20.315c2.93-2.846,5.786-5.767,8.574-8.751L438.857,405.925
	L438.857,405.925z"/>
<circle style="fill:#9586EA;" cx="315.538" cy="131.999" r="28.248"/>
<path style="fill:#806CD4;" d="M315.537,132c-5.226-9.052-4.865-19.791,0.002-28.242c-4.801-0.005-9.667,1.207-14.125,3.781
	c-13.509,7.8-18.138,25.073-10.338,38.583c7.8,13.509,25.074,18.138,38.583,10.338c4.457-2.574,7.94-6.181,10.336-10.342
	C330.245,146.109,320.763,141.052,315.537,132z"/>
<path style="fill:#CECCCA;" d="M196.463,160.244h73.592c-15.518-0.098-28.068-12.703-28.068-28.245l0,0
	c0-15.54,12.549-28.145,28.065-28.245h-73.589c15.599,0,28.245,12.646,28.245,28.245
	C224.707,147.599,212.062,160.244,196.463,160.244z"/>
<g>
</g>
<g>
</g>
<g>
</g>
<g>
</g>
<g>
</g>
<g>
</g>
<g>
</g>
<g>
</g>
<g>
</g>
<g>
</g>
<g>
</g>
<g>
</g>
<g>
</g>
<g>
</g>
<g>
</g>
</svg>
