<?xml version="1.0" encoding="iso-8859-1"?>
<!-- Generator: Adobe Illustrator 19.0.0, SVG Export Plug-In . SVG Version: 6.00 Build 0)  -->
<svg version="1.1" id="Capa_1" xmlns="http://www.w3.org/2000/svg" xmlns:xlink="http://www.w3.org/1999/xlink" x="0px" y="0px"
	 viewBox="0 0 512 512" style="enable-background:new 0 0 512 512;" xml:space="preserve">
<circle style="fill:#42D1CA;" cx="256" cy="267.681" r="244.319"/>
<path style="fill:#7D93AA;" d="M309.618,325.269H202.576c-9.383,0-18.358-1.742-26.626-4.911v11.7
	c0,10.225,8.289,18.514,18.514,18.514h0.598h20.915h40.027l0,0h40.027h20.915h0.598c10.225,0,18.514-8.289,18.514-18.514v-11.642
	C327.843,323.548,318.932,325.269,309.618,325.269z"/>
<path style="fill:#647892;" d="M226.109,332.058v-6.79h-23.533c-9.383,0-18.358-1.742-26.626-4.911v11.7
	c0,10.225,8.289,18.514,18.514,18.514h0.597h20.915h28.647C234.398,350.572,226.109,342.283,226.109,332.058z"/>
<path style="fill:#DDDDDD;" d="M256.006,0c-6.26,0-11.334,5.074-11.334,11.334v35.391h22.668V11.334
	C267.34,5.074,262.266,0,256.006,0z"/>
<path style="fill:#EFEFEF;" d="M290.693,45.678c-10.023,0-59.995,0-69.97,0c-10.225,0-18.514,8.289-18.514,18.514
	c0,2.403,0.477,4.692,1.326,6.79c13.769,0,95.407,0,105.124,0c0.729-1.928,1.146-4.009,1.146-6.193
	C309.805,54.234,301.248,45.678,290.693,45.678z"/>
<path style="fill:#DDDDDD;" d="M251.846,45.678c-13.641,0-26.563,0-31.123,0c-10.225,0-18.514,8.289-18.514,18.514
	c0,2.403,0.478,4.692,1.326,6.79c4.595,0,16.756,0,31.276,0c-0.841-2.099-1.314-4.387-1.314-6.79
	C233.496,53.967,241.712,45.678,251.846,45.678z"/>
<g>
	<path style="fill:#7D93AA;" d="M103.898,242.296c0-10.023,0-59.995,0-69.97c0-10.225,8.289-18.514,18.514-18.514
		c2.403,0,4.692,0.477,6.79,1.326c0,13.769,0,95.407,0,105.124c-1.928,0.729-4.009,1.146-6.193,1.146
		C112.455,261.407,103.898,252.851,103.898,242.296z"/>
	<path style="fill:#7D93AA;" d="M408.108,242.296c0-10.023,0-59.995,0-69.97c0-10.225-8.289-18.514-18.514-18.514
		c-2.403,0-4.692,0.477-6.79,1.326c0,13.769,0,95.407,0,105.124c1.928,0.729,4.009,1.146,6.193,1.146
		C399.551,261.407,408.108,252.851,408.108,242.296z"/>
</g>
<g>
	<path style="fill:#647892;" d="M103.898,209.149c0,14.358,0,28.342,0,33.146c0,10.554,8.556,19.112,19.112,19.112
		c2.183,0,4.265-0.417,6.193-1.146c0-3.587,0-16.985,0-33.146c-1.928,0.729-4.01,1.146-6.193,1.146
		C112.455,228.261,103.898,219.705,103.898,209.149z"/>
	<path style="fill:#647892;" d="M388.997,228.261c-2.183,0-4.265-0.417-6.193-1.146c0,16.162,0,29.558,0,33.146
		c1.928,0.729,4.01,1.146,6.193,1.146c10.554,0,19.112-8.556,19.112-19.112c0-4.805,0-18.788,0-33.146
		C408.108,219.705,399.551,228.261,388.997,228.261z"/>
</g>
<path style="fill:#EFEFEF;" d="M354.668,69.936H157.338c-16.117,0-29.182,13.065-29.182,29.181v152.778
	c0,41.101,33.319,74.42,74.42,74.42h107.043c40.997,0,74.231-33.234,74.231-74.231V99.117
	C383.85,83.001,370.785,69.936,354.668,69.936z"/>
<path style="fill:#DDDDDD;" d="M164.116,251.895V99.117c0-16.117,13.065-29.181,29.182-29.181h-35.96
	c-16.117,0-29.182,13.065-29.182,29.181v152.778c0,41.1,33.319,74.42,74.42,74.42h35.96
	C197.435,326.315,164.116,292.996,164.116,251.895z"/>
<path style="fill:#647892;" d="M227.016,293.601h-22.003c-3.86,0-6.991-3.124-7.001-6.984l-0.085-27.391
	c-0.01-4.115,3.323-7.456,7.438-7.456h21.531L227.016,293.601z"/>
<polygon style="fill:#7D93AA;" points="256.003,293.601 227.016,293.601 226.896,251.77 255.883,251.77 "/>
<polygon style="fill:#647892;" points="284.936,293.601 255.949,293.601 255.829,251.77 284.816,251.77 "/>
<path style="fill:#7D93AA;" d="M306.906,293.601h-21.969l-0.12-41.831h21.888c3.924,0,7.107,3.176,7.116,7.1l0.086,27.713
	C313.917,290.456,310.779,293.601,306.906,293.601z"/>
<path style="fill:#DDDDDD;" d="M336.056,314.614v6.848c27.941-10.654,47.794-37.696,47.794-69.38v-24.66l0,0
	C354.078,246.421,336.056,279.297,336.056,314.614z"/>
<path style="fill:#CECCCA;" d="M175.95,321.404v-6.79c0-35.318-18.021-68.194-47.794-87.192l0,0v24.473
	C128.156,283.613,148.002,310.691,175.95,321.404z"/>
<path style="fill:#DDDDDD;" d="M194.934,69.936c13.766,8.139,23.137,24.184,23.137,42.655l0,0c0,0.014,0,0.027,0,0.041
	c-0.002,2.188,1.562,3.981,3.54,3.981h68.783c1.979,0,3.542-1.793,3.54-3.981c0-0.014,0-0.027,0-0.041l0,0
	c0-18.471,9.37-34.516,23.137-42.655H194.934z"/>
<path style="fill:#CECCCA;" d="M249.339,112.01c0-0.016,0-0.031,0-0.047l0,0c0-16.769-5.796-31.786-14.947-42.027h-39.459
	c13.766,8.139,23.137,24.184,23.137,42.655l0,0c0,0.013,0,0.027,0,0.041c-0.002,2.188,1.562,3.981,3.54,3.981h31.269
	C250.901,116.613,249.337,114.54,249.339,112.01z"/>
<path style="fill:#DDDDDD;" d="M255.829,225.884c-4.334,0-7.848-3.512-7.848-7.848v-18.287c0-4.334,3.513-7.848,7.848-7.848
	c4.334,0,7.848,3.512,7.848,7.848v18.287C263.675,222.37,260.162,225.884,255.829,225.884z"/>
<path style="fill:#CECCCA;" d="M152.053,141.368h-23.896c-4.334,0-7.848-3.512-7.848-7.848c0-4.334,3.513-7.848,7.848-7.848h23.896
	c4.334,0,7.848,3.512,7.848,7.848C159.9,137.855,156.387,141.368,152.053,141.368z"/>
<path style="fill:#DDDDDD;" d="M383.85,141.368h-23.896c-4.334,0-7.848-3.512-7.848-7.848c0-4.334,3.513-7.848,7.848-7.848h23.896
	c4.334,0,7.848,3.512,7.848,7.848C391.698,137.855,388.184,141.368,383.85,141.368z"/>
<g>
	<path style="fill:#7D93AA;" d="M324.787,203.761L324.787,203.761c-16.181,9.342-36.872,3.798-46.214-12.383l0,0
		c-9.342-16.181-3.798-36.872,12.383-46.214l0,0c16.181-9.342,36.872-3.798,46.214,12.383l0,0
		C346.512,173.729,340.969,194.419,324.787,203.761z"/>
</g>
<path style="fill:#647892;" d="M297.389,180.515L297.389,180.515c-7.441-12.889-5.429-28.633,3.872-39.23
	c-3.531,0.704-7.012,1.979-10.304,3.879l0,0c-16.181,9.342-21.725,30.033-12.383,46.214l0,0
	c9.342,16.181,30.033,21.725,46.214,12.383l0,0c3.292-1.901,6.136-4.277,8.511-6.984
	C319.471,199.534,304.831,193.404,297.389,180.515z"/>
<path style="fill:#9586EA;" d="M312.2,182.241h-8.654c-4.295,0-7.778-3.481-7.778-7.778s3.482-7.778,7.778-7.778h8.654
	c4.295,0,7.778,3.481,7.778,7.778S316.495,182.241,312.2,182.241z"/>
<path style="fill:#7D93AA;" d="M386.554,349.535L386.554,349.535v76.943h48.993v-27.951
	C435.546,371.47,413.612,349.535,386.554,349.535z"/>
<path style="fill:#647892;" d="M423.156,365.975c-8.974-10.083-22.043-16.44-36.602-16.44l0,0v76.943h24.212v-27.951
	C410.765,386.03,415.453,374.631,423.156,365.975z"/>
<path style="fill:#ABBFFF;" d="M416.323,452.037h-29.768v22.179C397.044,467.572,406.995,460.155,416.323,452.037z"/>
<g>
	<path style="fill:#9586EA;" d="M411.05,452.037h-24.496v22.179c8.54-5.41,16.716-11.339,24.496-17.734V452.037z"/>
	<path style="fill:#9586EA;" d="M435.546,422.056h-48.993v29.981h29.768c6.746-5.872,13.16-12.113,19.224-18.682v-11.299H435.546z"
		/>
</g>
<rect x="386.557" y="422.052" style="fill:#806CD4;" width="24.496" height="29.981"/>
<path style="fill:#7D93AA;" d="M125.446,349.535L125.446,349.535v76.943H76.454v-27.951
	C76.454,371.47,98.388,349.535,125.446,349.535z"/>
<path style="fill:#647892;" d="M100.95,403.501c0-21.473,9.39-40.743,24.276-53.961c-26.955,0.119-48.772,22.003-48.772,48.987
	v27.951h24.496V403.501z"/>
<path style="fill:#ABBFFF;" d="M125.446,474.216v-22.179H95.677C105.005,460.155,114.956,467.572,125.446,474.216z"/>
<g>
	<path style="fill:#9586EA;" d="M100.839,452.037h-5.162c1.698,1.477,3.423,2.924,5.162,4.354V452.037z"/>
	<path style="fill:#9586EA;" d="M76.454,433.355c6.065,6.569,12.478,12.811,19.224,18.682h29.768v-29.981H76.454V433.355z"/>
</g>
<path style="fill:#806CD4;" d="M100.839,422.056H76.454v11.299c6.065,6.569,12.478,12.811,19.224,18.682h5.162V422.056z"/>
<path style="fill:#EFEFEF;" d="M386.554,349.535H125.446v124.681C163.213,498.139,207.986,512,256,512
	c48.015,0,92.787-13.861,130.554-37.784V349.535z"/>
<g>
	<path style="fill:#DDDDDD;" d="M163.427,349.535h-37.98v124.681c11.993,7.596,24.695,14.175,37.98,19.62V349.535z"/>
	<path style="fill:#DDDDDD;" d="M252.3,407.976c-4.295,0-7.778-3.481-7.778-7.778v-13.868c0-4.296,3.482-7.778,7.778-7.778
		s7.778,3.481,7.778,7.778v13.868C260.078,404.494,256.596,407.976,252.3,407.976z"/>
	<path style="fill:#DDDDDD;" d="M225.369,407.976c-4.295,0-7.778-3.481-7.778-7.778v-13.868c0-4.296,3.482-7.778,7.778-7.778
		s7.778,3.481,7.778,7.778v13.868C233.147,404.494,229.664,407.976,225.369,407.976z"/>
	<path style="fill:#DDDDDD;" d="M198.438,407.976c-4.295,0-7.778-3.481-7.778-7.778v-14.598c0-4.296,3.482-7.778,7.778-7.778
		c4.295,0,7.778,3.481,7.778,7.778v14.598C206.215,404.494,202.733,407.976,198.438,407.976z"/>
	<path style="fill:#DDDDDD;" d="M306.163,407.976c-4.295,0-7.778-3.481-7.778-7.778v-13.868c0-4.296,3.482-7.778,7.778-7.778
		s7.778,3.481,7.778,7.778v13.868C313.941,404.494,310.458,407.976,306.163,407.976z"/>
	<path style="fill:#DDDDDD;" d="M279.232,407.976c-4.295,0-7.778-3.481-7.778-7.778v-13.868c0-4.296,3.482-7.778,7.778-7.778
		c4.295,0,7.778,3.481,7.778,7.778v13.868C287.009,404.494,283.527,407.976,279.232,407.976z"/>
</g>
<circle style="fill:#9586EA;" cx="253.157" cy="452.372" r="25.792"/>
<path style="fill:#806CD4;" d="M253.161,452.373c-4.773-8.266-4.442-18.073,0.002-25.789c-4.384-0.005-8.829,1.102-12.899,3.452
	c-12.336,7.122-16.563,22.897-9.44,35.233c7.123,12.336,22.897,16.563,35.233,9.44c4.07-2.35,7.251-5.645,9.439-9.444
	C266.591,465.256,257.934,460.639,253.161,452.373z"/>
<g>
	<path style="fill:#7D93AA;" d="M220.698,203.761L220.698,203.761c-16.181,9.342-36.872,3.798-46.214-12.383l0,0
		c-9.342-16.181-3.798-36.872,12.383-46.214l0,0c16.181-9.342,36.872-3.798,46.214,12.383l0,0
		C242.423,173.729,236.878,194.419,220.698,203.761z"/>
</g>
<path style="fill:#647892;" d="M193.299,180.515L193.299,180.515c-7.441-12.889-5.429-28.633,3.872-39.23
	c-3.531,0.704-7.012,1.979-10.304,3.879l0,0c-16.181,9.342-21.725,30.033-12.383,46.214l0,0
	c9.342,16.181,30.033,21.725,46.214,12.383l0,0c3.292-1.901,6.136-4.277,8.511-6.984
	C215.381,199.534,200.74,193.404,193.299,180.515z"/>
<path style="fill:#9586EA;" d="M208.109,182.241h-8.654c-4.295,0-7.778-3.481-7.778-7.778s3.482-7.778,7.778-7.778h8.654
	c4.295,0,7.778,3.481,7.778,7.778S212.404,182.241,208.109,182.241z"/>
<g>
</g>
<g>
</g>
<g>
</g>
<g>
</g>
<g>
</g>
<g>
</g>
<g>
</g>
<g>
</g>
<g>
</g>
<g>
</g>
<g>
</g>
<g>
</g>
<g>
</g>
<g>
</g>
<g>
</g>
</svg>
