<svg id="Layer_1" enable-background="new 0 0 512 512" height="512" viewBox="0 0 512 512" width="512" xmlns="http://www.w3.org/2000/svg"><g><path d="m512 186.54c0 83.86-65.48 139.77-164.61 224.39-16.58 14.15-35.33 30.16-54.79 47.21-3.94 3.46-9 5.36-14.25 5.36s-10.31-1.9-14.25-5.36c-2.09-1.83-4.18-3.66-6.25-5.46-17.25-15.04-33.77-29.14-48.53-41.74-99.13-84.63-164.62-140.54-164.62-224.4 0-78.69 54.87-138.04 127.64-138.04 26.25 0 50.3 8.32 71.47 24.73 15.29 11.84 26.63 26.11 34.54 38.39 7.91-12.28 19.25-26.55 34.54-38.39 15.66-12.14 32.9-19.85 51.45-23.04 6.52-1.13 13.19-1.69 20.02-1.69 72.77 0 127.64 59.35 127.64 138.04z" fill="#ff6e6e"/><path d="m512 186.54c0 83.86-65.48 139.77-164.61 224.39-16.58 14.15-35.33 30.16-54.79 47.21-3.94 3.46-9 5.36-14.25 5.36s-10.31-1.9-14.25-5.36c-2.09-1.83-4.18-3.66-6.25-5.46 17.22-15.01 33.74-29.12 48.54-41.75 99.13-84.62 164.61-140.53 164.61-224.39 0-70.93-44.58-126.14-106.66-136.35 6.52-1.13 13.19-1.69 20.02-1.69 72.77 0 127.64 59.35 127.64 138.04z" fill="#f44e92"/><g><path d="m200.497 305.926c-2.703 0-5.196-1.454-6.527-3.807l-41.489-73.326-17.481 30.895c-1.331 2.353-3.825 3.807-6.527 3.807h-120.973c-4.142 0-7.5-3.358-7.5-7.5s3.358-7.5 7.5-7.5h116.598l21.855-38.625c1.331-2.353 3.825-3.807 6.527-3.807s5.197 1.454 6.527 3.807l41.489 73.326 48.748-86.154c1.331-2.353 3.825-3.807 6.527-3.807s5.197 1.454 6.527 3.807l29.113 51.453h44.188c4.142 0 7.5 3.358 7.5 7.5s-3.358 7.5-7.5 7.5h-48.559c-2.703 0-5.197-1.454-6.527-3.807l-24.74-43.723-48.748 86.154c-1.331 2.353-3.825 3.807-6.528 3.807z" fill="#cdeaf7"/></g><g><path d="m413.57 255.99c0 23.57-19.17 42.74-42.73 42.74-4.35 0-8.55-.65-12.5-1.86-17.49-5.36-30.24-21.66-30.24-40.88 0-19.21 12.75-35.51 30.24-40.87 3.95-1.21 8.15-1.86 12.5-1.86 23.56 0 42.73 19.17 42.73 42.73z" fill="#e9f5ff"/></g><g><path d="m413.57 255.99c0 23.57-19.17 42.74-42.73 42.74-4.35 0-8.55-.65-12.5-1.86 17.48-5.37 30.23-21.66 30.23-40.88 0-19.21-12.75-35.5-30.23-40.87 3.95-1.21 8.15-1.86 12.5-1.86 23.56 0 42.73 19.17 42.73 42.73z" fill="#cdeaf7"/></g></g></svg>