<svg id="Capa_1" enable-background="new 0 0 512 512" height="512" viewBox="0 0 512 512" width="512" xmlns="http://www.w3.org/2000/svg"><g><path d="m512 256c0 49.18-13.87 95.13-37.92 134.14-16.18 26.24-101.883 37.035-110.753 40.835-7.67 3.3-172.187 73.055-184.237 69.265h-.01c-3.16-1-6.3-2.05-9.41-3.16-21.94-7.86-140.83-120.98-149.26-140.75-13.14-30.81-20.41-64.72-20.41-100.33 0-141.38 114.62-256 256-256s256 114.62 256 256z" fill="#ffd064"/><g><path d="m356.295 185.428c-17.013 0-30.805 13.792-30.805 30.805s13.792 30.805 30.805 30.805" fill="#2b4d66"/><path d="m492.286 213.275h-168.168c-10.887 0-19.713-8.826-19.713-19.714 0-10.887 8.826-19.714 19.713-19.714h168.168c10.887 0 19.714 8.826 19.714 19.714 0 10.888-8.826 19.714-19.714 19.714z" fill="#9d6b6b"/><path d="m324.118 201.984c-4.644 0-8.422-3.778-8.422-8.422s3.778-8.422 8.422-8.422h168.168c4.644 0 8.422 3.778 8.422 8.422s-3.778 8.422-8.422 8.422z" fill="#8b5e5e"/><path d="m492.761 108.992h-23.671v78.68c0 6.537 5.299 11.835 11.835 11.835 6.537 0 11.835-5.299 11.835-11.835v-78.68z" fill="#365e7d"/><path d="m474.08 375.74v14.4c-16.176 26.242-36.958 49.345-61.218 68.183-4.593 3.566-9.31-7.189-14.144-3.936-5.185 3.489-10.505 20.96-15.95 24.07-19.54 11.16-40.691 19.82-63.018 25.543v-128.26c0-30.89 25.05-55.94 55.94-55.94h42.45c30.9 0 55.94 25.05 55.94 55.94z" fill="#f9f6f6"/><path d="m397.815 341.518c-9.248 0-16.744 7.497-16.744 16.744v.938c0 9.248 7.497 16.744 16.744 16.744 9.248 0 16.744-7.497 16.744-16.744v-.938c.001-9.247-7.496-16.744-16.744-16.744z" fill="#8993da"/><path d="m412.9 319.8c-30.88 0-55.93 25.04-55.93 55.94v115.57c-7.67 3.3-15.53 6.23-23.56 8.77-4.5 1.44-9.05 2.74-13.66 3.92v-128.26c0-30.9 25.04-55.94 55.94-55.94z" fill="#dddaec"/><g fill="#ededed"><path d="m353.576 363.104c8.542 8.542 22.391 8.542 30.934 0l40.61-40.61-30.934-30.934-40.61 40.61c-8.542 8.543-8.542 22.392 0 30.934z"/><path d="m440.251 363.104c-8.542 8.542-22.391 8.542-30.934 0l-40.61-40.61 30.934-30.934 40.61 40.61c8.542 8.543 8.542 22.392 0 30.934z"/></g><path d="m421.976 257.357v66.27c0 6.991-2.835 13.318-7.416 17.892-4.574 4.581-10.901 7.416-17.892 7.416-4.924 0-9.52-1.403-13.4-3.842-7.148-4.469-11.908-12.415-11.908-21.466v-66.27z" fill="#aa8080"/><path d="m421.976 257.357v63.159c-3.447.485-6.961.731-10.543.731-14.706 0-28.442-4.178-40.074-11.416v-52.474z" fill="#9d6b6b"/><path d="m383.268 283.082v62.01c-7.148-4.469-11.908-12.415-11.908-21.466v-40.544z" fill="#9d6b6b"/><path d="m411.433 309.831c-41.995 0-76.038-34.043-76.038-76.038v-46.122c0-41.994 34.043-114.762 76.038-114.762 41.994 0 76.038 34.043 76.038 76.038v84.846c0 41.995-34.043 76.038-76.038 76.038z" fill="#aa8080"/><path d="m433.443 306.591c-6.965 2.107-14.349 3.239-22.002 3.239h-.009c-41.993 0-76.036-34.044-76.036-76.036v-46.122c0-41.993 34.044-114.762 76.036-114.762h.009c7.653 0 15.037 1.132 22.002 3.239-31.266 9.429-54.034 38.458-54.034 72.798v84.848c-.001 34.338 22.768 63.367 54.034 72.796z" fill="#9d6b6b"/><path d="m391.739 193.964c-5.333 0-9.656-4.323-9.656-9.656v-20.116c0-5.333 4.323-9.656 9.656-9.656 5.333 0 9.656 4.323 9.656 9.656v20.116c0 5.333-4.323 9.656-9.656 9.656z" fill="#2b4d66"/><path d="m451.282 193.964c-5.333 0-9.656-4.323-9.656-9.656v-20.116c0-5.333 4.323-9.656 9.656-9.656 5.333 0 9.656 4.323 9.656 9.656v20.116c-.001 5.333-4.324 9.656-9.656 9.656z" fill="#2b4d66"/><path d="m431.166 213.678h-19.311v-100.177c0-5.333 4.323-9.656 9.656-9.656 5.333 0 9.656 4.323 9.656 9.656v100.177z" fill="#9d6b6b"/><path d="m417.682 257.328c-18.128 0-32.876-14.748-32.876-32.876 0-3.126 2.534-5.659 5.659-5.659 3.126 0 5.659 2.534 5.659 5.659 0 11.887 9.671 21.557 21.557 21.557 3.126 0 5.659 2.534 5.659 5.659.001 3.126-2.532 5.66-5.658 5.66z" fill="#8b5e5e"/><path d="m359.066 108.992h-23.671v78.68c0 6.537 5.299 11.835 11.835 11.835 6.537 0 11.835-5.299 11.835-11.835v-78.68z" fill="#2b4d66"/><path d="m433.076 199.507h-15.556c-5.975 0-10.818 4.843-10.818 10.818 0 5.975 4.843 10.818 10.818 10.818h15.556c5.975 0 10.818-4.843 10.818-10.818 0-5.974-4.844-10.818-10.818-10.818z" fill="#9d6b6b"/><path d="m412.86 389.11v69.21c-9.51 7.39-19.57 14.13-30.09 20.14v-89.35c0-8.31 6.74-15.05 15.05-15.05 4.16 0 7.92 1.68 10.64 4.41 2.72 2.72 4.4 6.49 4.4 10.64z" fill="#8993da"/><path d="m472.817 51.089h-117.477c-11.015 0-19.945 8.93-19.945 19.945l44.013 64.239h113.353v-64.239c0-11.015-8.929-19.945-19.944-19.945z" fill="#365e7d"/><path d="m399.356 51.087c-11.014 0-19.947 8.933-19.947 19.947v64.239h-44.013v-64.239c0-11.014 8.933-19.947 19.947-19.947z" fill="#2b4d66"/></g><g><path d="m43.183 125.035c-17.013 0-30.805 13.792-30.805 30.805s13.792 30.805 30.805 30.805" fill="#2b4d66"/><path d="m51.891 189.312c-17.013 0-30.805 13.792-30.805 30.805s13.792 30.805 30.805 30.805" fill="#2b4d66"/><path d="m187.882 217.159h-168.169c-10.887 0-19.713-8.826-19.713-19.714 0-10.887 8.826-19.713 19.713-19.713h168.168c10.887 0 19.714 8.826 19.714 19.713 0 10.888-8.826 19.714-19.713 19.714z" fill="#ffcbbe"/><path d="m19.714 205.867c-4.644 0-8.422-3.778-8.422-8.422s3.778-8.422 8.422-8.422h168.168c4.644 0 8.422 3.778 8.422 8.422s-3.778 8.422-8.422 8.422z" fill="#eaac9d"/><path d="m188.357 112.875h-23.671v78.68c0 6.537 5.299 11.835 11.835 11.835 6.537 0 11.835-5.299 11.835-11.835v-78.68z" fill="#365e7d"/><path d="m169.67 379.63v117.45c-21.942-7.859-42.5-18.629-61.206-31.845-5.334-3.768-10.517-35.957-15.539-40.112s-9.883 19.725-14.572 15.205c-24.542-23.659-44.372-52.173-57.943-83.998 8.84-19.26 28.3-32.64 50.88-32.64h42.45c30.89 0 55.93 25.05 55.93 55.94z" fill="#8993da"/><path d="m93.411 345.402c-9.248 0-16.744 7.497-16.744 16.744v.938c0 9.248 7.497 16.744 16.744 16.744 9.248 0 16.744-7.497 16.744-16.744v-.938c0-9.248-7.497-16.744-16.744-16.744z" fill="#dd636e"/><path d="m108.5 323.69c-30.88 0-55.93 25.04-55.93 55.94v31.8c-12.88-16.84-23.73-35.33-32.16-55.1 8.84-19.27 28.3-32.64 50.88-32.64z" fill="#707dd3"/><g fill="#bec3ea"><path d="m49.171 366.988c8.542 8.542 22.391 8.542 30.934 0l40.61-40.61-30.934-30.934-40.61 40.61c-8.542 8.542-8.542 22.392 0 30.934z"/><path d="m135.846 366.988c-8.542 8.542-22.391 8.542-30.934 0l-40.61-40.61 30.934-30.934 40.61 40.61c8.542 8.542 8.542 22.392 0 30.934z"/></g><path d="m117.571 261.24v66.27c0 6.991-2.835 13.318-7.416 17.892-4.574 4.581-10.901 7.416-17.892 7.416-4.924 0-9.52-1.403-13.4-3.842-7.148-4.469-11.908-12.415-11.908-21.466v-66.27z" fill="#ffddce"/><path d="m117.571 261.24v63.159c-3.447.485-6.961.731-10.543.731-14.706 0-28.442-4.178-40.074-11.416v-52.474z" fill="#ffcbbe"/><path d="m78.863 286.966v62.01c-7.148-4.469-11.908-12.415-11.908-21.466v-40.544z" fill="#ffcbbe"/><path d="m107.029 313.715c-41.995 0-76.038-34.043-76.038-76.038v-46.122c0-41.994 34.043-114.762 76.038-114.762 41.994 0 76.038 34.043 76.038 76.038v84.846c-.001 41.995-34.044 76.038-76.038 76.038z" fill="#ffddce"/><path d="m129.038 310.475c-6.965 2.107-14.349 3.239-22.002 3.239h-.009c-41.993 0-76.036-34.044-76.036-76.036v-46.122c0-41.993 34.044-114.762 76.036-114.762h.009c7.653 0 15.037 1.132 22.002 3.239-31.266 9.429-54.034 38.458-54.034 72.798v84.848c0 34.338 22.768 63.366 54.034 72.796z" fill="#ffcbbe"/><path d="m87.334 197.848c-5.333 0-9.656-4.323-9.656-9.656v-20.116c0-5.333 4.323-9.656 9.656-9.656 5.333 0 9.656 4.323 9.656 9.656v20.116c0 5.333-4.323 9.656-9.656 9.656z" fill="#2b4d66"/><path d="m146.877 197.848c-5.333 0-9.656-4.323-9.656-9.656v-20.116c0-5.333 4.323-9.656 9.656-9.656 5.333 0 9.656 4.323 9.656 9.656v20.116c0 5.333-4.323 9.656-9.656 9.656z" fill="#2b4d66"/><path d="m126.761 217.561h-19.311v-100.177c0-5.333 4.323-9.656 9.656-9.656 5.333 0 9.656 4.323 9.656 9.656v100.177z" fill="#ffcbbe"/><path d="m113.277 261.212c-18.128 0-32.876-14.748-32.876-32.876 0-3.126 2.534-5.659 5.659-5.659s5.659 2.534 5.659 5.659c0 11.887 9.671 21.557 21.557 21.557 3.126 0 5.659 2.534 5.659 5.659.002 3.126-2.532 5.66-5.658 5.66z" fill="#eaac9d"/><path d="m54.662 112.875h-23.671v78.68c0 6.537 5.299 11.835 11.835 11.835 6.537 0 11.835-5.299 11.835-11.835v-78.68z" fill="#2b4d66"/><path d="m128.671 203.391h-15.556c-5.975 0-10.818 4.843-10.818 10.818 0 5.975 4.843 10.818 10.818 10.818h15.556c5.975 0 10.818-4.843 10.818-10.818 0-5.975-4.843-10.818-10.818-10.818z" fill="#ffcbbe"/><circle cx="54.586" cy="92.608" fill="#365e7d" r="42.129"/><path d="m69.687 131.945c-4.684 1.811-9.778 2.795-15.098 2.795-23.265 0-42.132-18.868-42.132-42.132 0-23.265 18.868-42.132 42.132-42.132 5.32 0 10.413.984 15.098 2.795-15.812 6.06-27.043 21.393-27.043 39.337s11.232 33.277 27.043 39.337z" fill="#2b4d66"/><path d="m231.505 48.333h-98.114c-23.333 0-42.248 18.915-42.248 42.248 0 23.333 18.915 42.248 42.248 42.248h28.116c38.659 0 69.998-31.339 69.998-69.998z" fill="#365e7d"/><path d="m129.384 120.454c7.645 7.653 18.206 12.381 29.873 12.381h-25.868c-11.667 0-22.228-4.728-29.873-12.381-7.645-7.645-12.372-18.206-12.372-29.873 0-23.334 18.911-42.245 42.245-42.245h25.868c-23.334 0-42.254 18.911-42.254 42.245 0 11.667 4.727 22.228 12.381 29.873z" fill="#2b4d66"/><path d="m108.46 392.99v72.25c-10.66-7.54-20.72-15.87-30.1-24.92v-47.33c0-8.31 6.74-15.05 15.05-15.05 4.15 0 7.92 1.68 10.64 4.41 2.73 2.72 4.41 6.49 4.41 10.64z" fill="#dd636e"/></g><g><path d="m333.41 417.09v82.99c-4.5 1.44-9.05 2.74-13.66 3.92-20.38 5.22-41.74 8-63.75 8-26.8 0-52.64-4.12-76.92-11.76v-83.15c0-27.2 19.43-49.88 45.16-54.9 3.49-.69 7.09 4.406 10.78 4.406h42.46c3.69 0 7.29-5.096 10.79-4.406 25.72 5.02 45.14 27.7 45.14 54.9z" fill="#aad880"/><path d="m256.251 424.768c-12.08 0-21.873-9.793-21.873-21.873v-57.431h43.747v57.431c-.001 12.08-9.794 21.873-21.874 21.873z" fill="#ededed"/><path d="m272.24 361.15c-30.88 0-55.93 25.04-55.93 55.94v91.84c-12.74-1.97-25.17-4.9-37.22-8.69v-83.15c0-27.037 19.171-49.588 44.665-54.804 3.642-.745 7.413 4.31 11.275 4.31z" fill="#80bc93"/><path d="m305.993 388.981c0 5.598-2.133 11.197-6.408 15.463-8.541 8.541-22.385 8.541-30.926 0l-12.407-12.398-12.407 12.398c-4.275 4.266-9.865 6.408-15.463 6.408-5.599 0-11.188-2.142-15.463-6.408-8.55-8.541-8.55-22.385 0-30.935l11.319-11.319c3.491-.688 7.096-1.045 10.788-1.045h42.454c3.692 0 7.296.357 10.788 1.045l11.319 11.319c4.273 4.275 6.406 9.873 6.406 15.472z" fill="#ededed"/><path d="m261.384 81.952c-56.302 0-101.943 45.641-101.943 101.943v87.25c0 35.677 28.922 64.599 64.599 64.599h74.688c35.677 0 64.599-28.922 64.599-64.599v-87.25c0-56.302-45.641-101.943-101.943-101.943z" fill="#aa8080"/><path d="m283.091 335.74h-59.048c-35.682 0-64.601-28.919-64.601-64.601v-87.244c0-56.299 45.642-101.94 101.94-101.94 10.276 0 20.196 1.513 29.537 4.342-41.905 12.657-72.416 51.562-72.416 97.598v87.244c0 35.682 28.919 64.601 64.588 64.601z" fill="#9d6b6b"/><path d="m282.947 301.359v66.146c0 6.978-2.83 13.293-7.402 17.858-4.565 4.573-10.88 7.402-17.858 7.402-4.915 0-9.503-1.4-13.375-3.835-7.134-4.461-11.886-12.392-11.886-21.426v-66.146h50.521z" fill="#ffddce"/><g fill="#ffcbbe"><path d="m282.947 301.359v63.04c-3.441.484-6.948.73-10.523.73-14.678 0-28.389-4.17-39.999-11.394v-52.376z"/><path d="m244.311 327.037v61.893c-7.134-4.461-11.886-12.392-11.886-21.426v-40.468h11.886z"/><path d="m353.125 257.361h-167.853c-10.867 0-19.677-8.81-19.677-19.677 0-10.867 8.81-19.677 19.677-19.677h167.854c10.867 0 19.677 8.81 19.677 19.677-.001 10.867-8.81 19.677-19.678 19.677z"/></g><path d="m185.272 246.09c-4.635 0-8.406-3.771-8.406-8.406s3.771-8.406 8.406-8.406h167.853c4.635 0 8.406 3.771 8.406 8.406s-3.771 8.406-8.406 8.406z" fill="#eaac9d"/><path d="m348.319 204.213v73.628c0 41.912-33.976 75.897-75.897 75.897-41.912 0-75.897-33.985-75.897-75.897v-73.628c0-4.02.315-7.971.92-11.825h62.767c4.388 0 8.628-.639 12.63-1.839 7.436-2.207 14.058-6.324 19.279-11.781 3.907-4.064 7.042-8.873 9.171-14.19 6.534 16.292 22.458 27.81 41.088 27.81h5.019c.605 3.854.92 7.804.92 11.825z" fill="#ffddce"/><path d="m291.649 351.276c-6.14 1.612-12.587 2.461-19.226 2.461-41.912 0-75.897-33.985-75.897-75.897v-73.628c0-4.02.315-7.971.92-11.825h38.443c-.604 3.854-.92 7.804-.92 11.825v73.628c0 35.273 24.07 64.931 56.68 73.436z" fill="#ffcbbe"/><path d="m292.122 178.768v78.997h-19.279v-67.216c7.437-2.208 14.058-6.324 19.279-11.781z" fill="#ffcbbe"/><path d="m294.026 243.618h-15.527c-5.963 0-10.798 4.834-10.798 10.798 0 5.963 4.834 10.798 10.798 10.798h15.527c5.963 0 10.798-4.834 10.798-10.798-.001-5.963-4.835-10.798-10.798-10.798z" fill="#ffcbbe"/><path d="m240.5 216.002c-5.151 0-10.3-1.96-14.221-5.881-2.395-2.394-2.395-6.276 0-8.671 2.394-2.395 6.277-2.395 8.671 0 3.061 3.061 8.04 3.061 11.101 0 2.395-2.394 6.277-2.394 8.671 0 2.395 2.394 2.394 6.277 0 8.671-3.921 3.92-9.072 5.881-14.222 5.881z" fill="#634086"/><path d="m324.175 216.002c-5.15 0-10.301-1.96-14.222-5.881-2.394-2.394-2.395-6.276 0-8.671 2.394-2.395 6.276-2.395 8.671 0 3.061 3.061 8.041 3.061 11.101 0 2.394-2.395 6.277-2.395 8.671 0 2.395 2.394 2.395 6.277 0 8.671-3.92 3.92-9.07 5.881-14.221 5.881z" fill="#634086"/><path d="m270.193 307.598c-18.236 0-33.073-14.836-33.073-33.073 0-3.144 2.549-5.693 5.693-5.693s5.693 2.549 5.693 5.693c0 11.958 9.729 21.686 21.686 21.686 3.144 0 5.693 2.549 5.693 5.693s-2.548 5.694-5.692 5.694z" fill="#dd636e"/><path d="m252.766 238.086c-5.323 0-9.638-4.315-9.638-9.638v-20.078c0-5.323 4.315-9.638 9.638-9.638 5.323 0 9.638 4.315 9.638 9.638v20.078c0 5.323-4.315 9.638-9.638 9.638z" fill="#2b4d66"/><path d="m312.198 238.086c-5.323 0-9.638-4.315-9.638-9.638v-20.078c0-5.323 4.315-9.638 9.638-9.638 5.323 0 9.638 4.315 9.638 9.638v20.078c-.001 5.323-4.316 9.638-9.638 9.638z" fill="#2b4d66"/></g></g></svg>