<?xml version="1.0" encoding="UTF-8"?>
<svg width="500px" height="600px" viewBox="0 0 500 600" version="1.1" xmlns="http://www.w3.org/2000/svg" xmlns:xlink="http://www.w3.org/1999/xlink">
    <title>box-open-lucky</title>
    <g id="box-open-lucky" stroke="none" stroke-width="1" fill="none" fill-rule="evenodd">
        <g transform="translate(26.000000, 10.000000)" fill-rule="nonzero">
            <g id="box-2" transform="translate(0.000000, 189.000000)">
                <polygon id="Path" fill="#D9AC80" points="299.2 263.4 224.4 219.4 299.2 175.8 374 131.8 448.8 175.8 374 219.4"></polygon>
                <polygon id="Path" fill="#A67E4F" points="223.6 219 223.6 390.6 372 304.6 372 220.6 299.2 263.4 224.4 219.4"></polygon>
                <polygon id="Path" fill="#D9AC80" points="149.6 263.4 224.4 219.4 149.6 175.8 74.8 131.8 0 175.8 74.8 219.4"></polygon>
                <polygon id="Path" fill="#643513" points="224.4 43.8 299.2 87.8 374 131.8 299.2 175.8 224.4 219.4 149.6 175.8 74.8 131.8 149.6 87.8"></polygon>
                <g id="Group" fill="#D9AC80">
                    <polygon id="Path" points="149.6 0.2 224.4 43.8 149.6 87.8 74.8 131.8 0 87.8 74.8 43.8"></polygon>
                    <polygon id="Path" points="299.2 0.2 224.4 43.8 299.2 87.8 374 131.8 448.8 87.8 374 43.8"></polygon>
                </g>
                <polygon id="Path" fill="#926E43" points="223.6 220.2 223.6 390.6 74.8 304.6 74.8 219.4 149.6 263.4"></polygon>
                <polygon id="Path" fill="#8D5122" points="149.6 87.8 74.8 131.8 149.6 175.8 173.6 189.8 224.4 160.2 224.4 43.8"></polygon>
                <polygon id="Path" fill="#77411B" points="224.4 43.8 224.4 160.2 275.2 189.8 299.2 175.8 374 131.8 299.2 87.8"></polygon>
            </g>
            <g id="rocket" transform="translate(55.238202, 0.000000)">
                <path d="M79.3113411,378 C77.9183324,378 76.5253244,377.483931 75.4461093,376.448891 C73.2466217,374.338224 73.1938344,370.864901 75.3317358,368.69045 L82.2293277,361.665523 C84.3642966,359.491072 87.8776105,359.438886 90.0770981,361.549553 C92.276585,363.66022 92.329373,367.133543 90.1944041,369.307994 L83.293879,376.332921 C82.2058665,377.443341 80.7600697,378 79.3113411,378 Z" id="Path" fill="#FF4E61"></path>
                <path d="M155.309582,102 C153.919309,102 152.52317,101.48393 151.446736,100.448891 C149.246938,98.3382242 149.194142,94.8649014 151.329413,92.693349 L158.230913,85.6655232 C160.366184,83.4910725 163.877062,83.4388853 166.07686,85.5495525 C168.276658,87.6602196 168.329453,91.1335432 166.194182,93.3079939 L159.292682,100.33582 C158.204515,101.443341 156.758515,102 155.309582,102 Z" id="Path" fill="#FF4E61"></path>
                <path d="M317.31161,76 C315.918632,76 314.525653,75.4867568 313.446461,74.4515712 C311.247021,72.340604 311.194235,68.8667868 313.329158,66.6920264 L320.229533,59.6632017 C322.364456,57.4913415 325.877695,57.4391476 328.077134,59.5501147 C330.276574,61.6581816 330.32936,65.1348983 328.194438,67.3067593 L321.294062,74.335584 C320.206073,75.4432614 318.760308,76 317.31161,76 Z" id="Path" fill="#5C73BC"></path>
                <path d="M317.31161,354 C315.918632,354 314.525653,353.483899 313.446461,352.451699 C311.247021,350.340907 311.194235,346.867378 313.329158,344.692798 L320.229533,337.664556 C322.364456,335.492876 325.877695,335.437787 328.077134,337.548579 C330.276574,339.659371 330.32936,343.132899 328.194438,345.307479 L321.294062,352.335721 C320.206073,353.443308 318.760308,354 317.31161,354 Z" id="Path" fill="#FFAA00"></path>
                <path d="M49.3094744,86 C47.919229,86 46.5231173,85.4867568 45.4467032,84.4515712 C43.2469477,82.340604 43.1941531,78.8667868 45.3293829,76.6920271 L52.2307509,69.6632024 C54.3659807,67.4913414 57.8797237,67.4391475 60.0794792,69.5501146 C62.2763027,71.6610818 62.3290965,75.134899 60.1938667,77.3067593 L53.2924994,84.335584 C52.2043533,85.4432614 50.7583806,86 49.3094744,86 Z" id="Path" fill="#FFAA00"></path>
                <path d="M10.3095815,212 C8.91930872,212 7.52317021,211.486829 6.4467355,210.45179 C4.24693779,208.341123 4.19414226,204.8678 6.32941293,202.693349 L13.2279797,195.665523 C15.3632504,193.491072 18.8770616,193.438885 21.07686,195.549552 C23.2766577,197.66022 23.3294532,201.133543 21.1941826,203.307994 L14.2926822,210.33582 C13.2074488,211.443341 11.7585148,212 10.3095815,212 Z" id="Path" fill="#2DC471"></path>
                <path d="M166.274405,212.243751 L148.104936,222.21484 C143.393237,224.80127 137.885903,220.623422 138.78506,215.144867 L142.254502,194.027854 C142.612391,191.852016 141.923234,189.634221 140.408865,188.093752 L125.708839,173.135617 C121.896298,169.257472 123.999259,162.499189 129.269972,161.698984 L149.580854,158.618046 C151.674942,158.300362 153.482129,156.930723 154.416777,154.949691 L163.502991,135.735788 C165.860319,130.754737 172.666106,130.754737 175.023434,135.735788 L184.10669,154.949691 C185.044297,156.930723 186.851483,158.300362 188.942614,158.618046 L209.256453,161.698984 C214.524209,162.499189 216.62717,169.257472 212.814628,173.135617 L198.11756,188.093752 C196.603191,189.634221 195.911077,191.852016 196.268965,194.027854 L199.738408,215.144867 C200.640522,220.623422 195.133188,224.80127 190.42149,222.21484 L172.252021,212.243751 C170.379764,211.215772 168.143704,211.215772 166.274405,212.243751 L166.274405,212.243751 Z" id="Path" fill="#FFD02F"></path>
                <path d="M169.261798,391 C166.224007,391 163.761798,388.487701 163.761798,385.388112 L163.761798,297.614854 C163.761798,294.515265 166.224007,292 169.261798,292 C172.299588,292 174.761798,294.515265 174.761798,297.614854 L174.761798,385.388112 C174.761798,388.487701 172.299588,391 169.261798,391 Z" id="Path" fill="#5C73BC"></path>
                <path d="M169.30506,273 L169.221421,273 C166.207524,273 163.761798,270.535535 163.761798,267.498547 C163.761798,264.461558 166.20464,262 169.221421,262 L169.30506,262 C172.318955,262 174.761798,264.461558 174.761798,267.498547 C174.761798,270.535535 172.318955,273 169.30506,273 Z" id="Path" fill="#5C73BC"></path>
                <path d="M169.305059,254 C169.296407,254 169.287755,254 169.281987,254 L169.195464,254 C166.18159,253.988372 163.750303,251.514535 163.761757,248.476744 C163.77626,245.444767 166.216199,243 169.218537,243 L169.244494,243 L169.328132,243 C172.342005,243.011628 174.773293,245.485465 174.761839,248.523256 C174.750221,251.552325 172.307396,254 169.305059,254 Z" id="Path" fill="#FFAA00"></path>
                <path d="M67.1071237,177 C65.6310537,177 64.1579708,176.424977 63.0494246,175.280922 L2.36022337,112.612409 C0.184961772,110.366227 0.235757525,106.778324 2.47675543,104.601023 C4.71775258,102.420728 8.29737224,102.474636 10.4726338,104.717825 L71.1648228,167.386336 C73.3400844,169.629524 73.2863009,173.220423 71.045303,175.397723 C69.9457202,176.466906 68.5264223,177 67.1071237,177 Z" id="Path" fill="#FF4E61"></path>
                <path d="M88.2316372,197 C86.8528933,197 85.4741487,196.482644 84.4104636,195.44215 C82.2484088,193.332258 82.2079421,189.869726 84.3179693,187.707809 L84.3786693,187.647114 C86.4886964,185.488089 89.9514543,185.444735 92.1135099,187.557517 C94.2755655,189.667407 94.3160314,193.129941 92.2031133,195.291855 L92.145305,195.352551 C91.0729484,196.44796 89.6537379,197 88.2316372,197 L88.2316372,197 Z" id="Path" fill="#FFAA00"></path>
                <path d="M101.230169,211 C99.8569913,211 98.4838141,210.485542 97.4199632,209.453736 C95.2546799,207.349662 95.2026434,203.887188 97.3072179,201.722419 L97.3650367,201.658834 C99.4725019,199.491175 102.935799,199.442041 105.101082,201.546116 C107.269257,203.65019 107.321293,207.112664 105.216718,209.280324 L105.156009,209.341018 C104.083485,210.445079 102.658272,211 101.230169,211 L101.230169,211 Z" id="Path" fill="#5C73BC"></path>
                <path d="M270.413598,174 C268.994271,174 267.574944,173.469898 266.478327,172.40071 C264.237285,170.220405 264.183499,166.632484 266.358805,164.38629 L327.049228,101.720475 C329.224534,99.4742807 332.804226,99.4203724 335.045269,101.600678 C337.286311,103.780984 337.340096,107.368904 335.164791,109.615098 L274.471379,172.280913 C273.36281,173.424974 271.889698,174 270.413598,174 Z" id="Path" fill="#FFAA00"></path>
                <path d="M250.291429,195 C248.874926,195 247.461315,194.453732 246.39171,193.364086 L246.331003,193.30339 C244.212031,191.14722 244.24383,187.684632 246.397492,185.568927 C248.554045,183.450331 252.017249,183.482124 254.133331,185.635403 L254.194038,185.6961 C256.310119,187.852269 256.281211,191.314858 254.124658,193.430563 C253.060836,194.476854 251.676132,195 250.291429,195 Z" id="Path" fill="#FF4E61"></path>
                <path d="M237.292152,209 C235.864091,209 234.438922,208.445026 233.366432,207.340858 L233.305725,207.280157 C231.204106,205.112289 231.25325,201.64948 233.421357,199.545202 C235.589465,197.440924 239.052654,197.492954 241.157164,199.657932 L241.21787,199.718632 C243.319489,201.886501 243.270346,205.349309 241.102238,207.453587 C240.03842,208.485492 238.665286,209 237.292152,209 Z" id="Path" fill="#FFAA00"></path>
                <path d="M231.326277,89 C230.390073,89 229.442094,88.7624178 228.573604,88.2605255 C225.90042,86.7221802 224.970105,83.2891177 226.495115,80.595529 L269.351437,4.83352578 C270.876447,2.13993707 274.276808,1.20148726 276.949992,2.73983258 C279.623176,4.27817713 280.553491,7.71124034 279.02848,10.404829 L236.172159,86.1668323 C235.144691,87.981366 233.263452,89 231.326277,89 Z" id="Path" fill="#62D38F"></path>
                <path d="M216.292809,115 C215.337205,115 214.37294,114.751024 213.492398,114.224122 L213.420223,114.180695 C210.833452,112.628938 209.987555,109.264869 211.537885,106.667992 C213.085328,104.06822 216.440047,103.225755 219.029705,104.777512 L219.101881,104.820938 C221.691539,106.372695 222.53455,109.736764 220.987106,112.333642 C219.962213,114.050417 218.152051,115 216.292809,115 Z" id="Path" fill="#FFAA00"></path>
                <path d="M206.292525,132 C205.3311,132 204.358127,131.745256 203.477542,131.21261 L203.405363,131.169188 C200.821353,129.605988 199.98985,126.239318 201.546031,123.648459 C203.105098,121.057601 206.462868,120.226789 209.046878,121.787094 L209.119057,121.830516 C211.703067,123.393715 212.53457,126.760385 210.975502,129.351244 C209.95056,131.05629 208.143196,132 206.292525,132 L206.292525,132 Z" id="Path" fill="#2DC471"></path>
                <path d="M107.197238,89 C105.260069,89 103.378839,87.9813735 102.351374,86.1638835 L59.4952142,10.4054059 C57.9702101,7.70886742 58.900521,4.27879898 61.5707511,2.74046572 C64.243925,1.20213169 67.6472169,2.13760504 69.1722218,4.83414355 L112.028381,80.5926204 C113.553386,83.2891597 112.623074,86.7221969 109.952844,88.2605309 C109.081413,88.7624195 108.133437,89 107.197238,89 Z" id="Path" fill="#5C73BC"></path>
                <path d="M122.230514,115 C120.377177,115 118.567141,114.053322 117.542321,112.34525 C115.989213,109.751296 116.82639,106.384366 119.410092,104.826835 L119.485149,104.78341 C122.071738,103.22588 125.426221,104.062545 126.979329,106.6565 C128.535324,109.250454 127.698147,112.614489 125.111558,114.174914 L125.039387,114.21834 C124.158908,114.748131 123.188937,115 122.230514,115 Z" id="Path" fill="#FF4E61"></path>
                <path d="M132.230741,132 C130.383121,132 128.581691,131.062083 127.553954,129.359939 C125.98925,126.771983 126.814906,123.405327 129.392913,121.836342 L129.465085,121.79292 C132.048866,120.226831 135.406338,121.05185 136.971041,123.639806 C138.532857,126.22776 137.710089,129.594418 135.129195,131.163402 L135.057022,131.206823 C134.170742,131.745257 133.194968,132 132.230741,132 Z" id="Path" fill="#FFAA00"></path>
                <path d="M307.93131,273.23903 L296.142396,282.090819 C293.086889,284.388708 288.812147,282.058035 288.910042,278.15073 L289.292722,263.081825 C289.331287,261.529037 288.63119,260.056718 287.417887,259.141736 L275.640839,250.275045 C272.585332,247.974175 273.40409,243.047574 277.0262,241.935884 L290.992533,237.656029 C292.428324,237.214929 293.567464,236.067475 294.03024,234.592177 L298.539337,220.259432 C299.708141,216.539892 304.490157,215.824596 306.629012,219.046408 L314.878878,231.471698 C315.730267,232.75029 317.133427,233.516253 318.631515,233.516253 L333.197083,233.525194 C336.976418,233.528174 339.112306,238.013677 336.810293,241.116274 L327.943392,253.07364 C327.029707,254.307526 326.759754,255.925884 327.22253,257.401182 L331.716794,271.742868 C332.879667,275.462408 329.417748,278.949477 325.857935,277.644062 L312.128923,272.610165 C310.716864,272.091576 309.147579,272.327028 307.93131,273.23903 L307.93131,273.23903 Z" id="Path" fill="#FFD02F"></path>
                <path d="M200.428583,391 C197.298672,391 194.761798,388.466951 194.761798,385.341761 C194.761798,341.526299 212.268332,311.904283 226.953453,294.768074 C242.923486,276.139549 258.860572,267.954243 259.531481,267.613313 C262.322942,266.198753 265.734396,267.314251 267.148097,270.104493 C268.561798,272.888753 267.450605,276.28908 264.662139,277.70663 C264.422528,277.829245 249.71045,285.488204 235.243973,302.507778 C215.901424,325.260358 206.095369,353.129875 206.095369,385.341761 C206.095369,388.466951 203.558494,391 200.428583,391 L200.428583,391 Z" id="Path" fill="#FF4E61"></path>
                <path d="M80.1971727,303.158982 L89.2106702,315.160232 C91.5508276,318.272446 96.3239116,317.260075 97.2904987,313.447914 L101.016197,298.749012 C101.399241,297.237966 102.479544,296.01531 103.903987,295.483591 L117.723487,290.325606 C121.308536,288.988797 121.853177,283.981016 118.648178,281.854137 L106.283048,273.647024 C105.011224,272.799878 104.221196,271.360929 104.170323,269.798814 L103.697503,254.610249 C103.577802,250.671917 99.1398812,248.587094 96.1922403,251.083475 L84.8236223,260.708506 C83.6505509,261.699848 82.0824657,262.0333 80.6310893,261.59771 L66.5183223,257.367984 C62.8584591,256.271498 59.5696702,259.990534 60.9552106,263.661505 L66.2938824,277.819674 C66.8445077,279.276647 66.664956,280.922876 65.8150778,282.217629 L57.5646754,294.789651 C55.4250169,298.052068 57.8280179,302.431998 61.6345149,302.206693 L76.3008995,301.329505 C77.8121273,301.239384 79.2694884,301.924311 80.1971727,303.158982 L80.1971727,303.158982 Z" id="Path" fill="#FFD02F"></path>
                <path d="M137.14625,391 C134.044638,391 131.5307,388.486835 131.5307,385.386177 C131.5307,362.554056 126.455337,341.665411 116.447075,323.301799 C114.963051,320.577967 115.969219,317.168727 118.693888,315.685158 C121.418558,314.201589 124.828846,315.207449 126.31287,317.928314 C137.226386,337.962424 142.761798,360.658056 142.761798,385.386177 C142.761798,388.486835 140.247861,391 137.14625,391 Z" id="Path" fill="#FFAA00"></path>
                <path d="M205.761798,42.9984709 C205.761798,34.1627636 199.044587,27 190.761798,27 C182.476055,27 175.761798,34.1627636 175.761798,42.9984709 C175.761798,51.8341774 182.476055,59 190.761798,59 C199.044587,59 205.761798,51.8341774 205.761798,42.9984709 Z" id="Path" fill="#FFD02F"></path>
                <path d="M285.761798,341 C285.761798,332.163449 279.046879,325 270.763275,325 C262.476716,325 255.761798,332.163449 255.761798,341 C255.761798,349.836551 262.476716,357 270.763275,357 C279.046879,357 285.761798,349.836551 285.761798,341 Z" id="Path" fill="#5C73BC"></path>
                <path d="M35.7617978,344.49851 C35.7617978,337.595281 30.1663402,332 23.2602632,332 C16.3572553,332 10.7617978,337.595281 10.7617978,344.49851 C10.7617978,351.404719 16.3572553,357 23.2602632,357 C30.1663402,357 35.7617978,351.404719 35.7617978,344.49851 L35.7617978,344.49851 Z" id="Path" fill="#62D38F"></path>
                <path d="M68.7617978,220.49851 C68.7617978,213.59528 63.1663402,208 56.2602632,208 C49.3572545,208 43.7617978,213.59528 43.7617978,220.49851 C43.7617978,227.40174 49.3572545,233 56.2602632,233 C63.1663402,233 68.7617978,227.40174 68.7617978,220.49851 Z" id="Path" fill="#5C73BC"></path>
                <g id="Group" transform="translate(101.761798, 0.000000)" fill="#FF4E61">
                    <path d="M59.972189,12.5340074 C59.972189,5.60983494 54.5552885,0 47.872563,0 C41.1868655,0 35.7699657,5.60983494 35.7699657,12.5340074 C35.7699657,19.4551928 41.1868655,25.0650278 47.872563,25.0650278 C54.5552885,25.0650278 59.972189,19.4551928 59.972189,12.5340074 Z" id="Path"></path>
                    <path d="M177.411658,116.910386 C177.411658,109.9892 171.991786,104.376379 165.309061,104.376379 C158.626335,104.376379 153.206464,109.9892 153.206464,116.910386 C153.206464,123.831572 158.626335,129.441406 165.309061,129.441406 C171.991786,129.441406 177.411658,123.831572 177.411658,116.910386 L177.411658,116.910386 Z" id="Path"></path>
                    <path d="M6.05278426,25.0411307 C4.64135913,25.0411307 3.22993475,24.5124085 2.13645185,23.4430147 C-0.0921142393,21.2683824 -0.145599436,17.6927851 2.01759501,15.4524355 L9.00934829,8.21162665 C11.1725427,5.97127776 14.7323054,5.917509 16.9578995,8.09214135 C19.1864648,10.2667737 19.2399508,13.8453586 17.0767563,16.0857075 L10.0879743,23.3265164 C8.98557692,24.4676013 7.5176946,25.0411307 6.05278426,25.0411307 Z" id="Path"></path>
                </g>
            </g>
        </g>
    </g>
</svg>