<?xml version="1.0" encoding="UTF-8"?>
<svg width="500px" height="600px" viewBox="0 0 500 600" version="1.1" xmlns="http://www.w3.org/2000/svg" xmlns:xlink="http://www.w3.org/1999/xlink">
    <title>box-open-empty</title>
    <g id="box-open-empty" stroke="none" stroke-width="1" fill="none" fill-rule="evenodd">
        <g transform="translate(26.000000, 10.000000)" fill-rule="nonzero">
            <g id="box-2" transform="translate(0.000000, 189.000000)">
                <polygon id="Path" fill="#D9AC80" points="299.2 263.4 224.4 219.4 299.2 175.8 374 131.8 448.8 175.8 374 219.4"></polygon>
                <polygon id="Path" fill="#A67E4F" points="223.6 219 223.6 390.6 372 304.6 372 220.6 299.2 263.4 224.4 219.4"></polygon>
                <polygon id="Path" fill="#D9AC80" points="149.6 263.4 224.4 219.4 149.6 175.8 74.8 131.8 0 175.8 74.8 219.4"></polygon>
                <polygon id="Path" fill="#643513" points="224.4 43.8 299.2 87.8 374 131.8 299.2 175.8 224.4 219.4 149.6 175.8 74.8 131.8 149.6 87.8"></polygon>
                <g id="Group" fill="#D9AC80">
                    <polygon id="Path" points="149.6 0.2 224.4 43.8 149.6 87.8 74.8 131.8 0 87.8 74.8 43.8"></polygon>
                    <polygon id="Path" points="299.2 0.2 224.4 43.8 299.2 87.8 374 131.8 448.8 87.8 374 43.8"></polygon>
                </g>
                <polygon id="Path" fill="#926E43" points="223.6 220.2 223.6 390.6 74.8 304.6 74.8 219.4 149.6 263.4"></polygon>
                <polygon id="Path" fill="#8D5122" points="149.6 87.8 74.8 131.8 149.6 175.8 173.6 189.8 224.4 160.2 224.4 43.8"></polygon>
                <polygon id="Path" fill="#77411B" points="224.4 43.8 224.4 160.2 275.2 189.8 299.2 175.8 374 131.8 299.2 87.8"></polygon>
            </g>
            <g id="sad" transform="translate(80.500000, 0.000000)">
                <circle id="Oval" fill="#FFD93B" cx="144" cy="143.5" r="143.5"></circle>
                <path d="M287.5,143.615709 C287.5,222.83553 223.290722,287 144.115709,287 C99.0392725,287 58.8020559,266.209278 32.5,233.634159 C57.0993674,253.52873 88.4198735,265.402741 122.51845,265.402741 C201.693463,265.402741 265.902741,201.238271 265.902741,122.01845 C265.902741,87.9198735 254.02873,56.5993674 234.134159,32 C266.66447,58.3020559 287.5,98.5392725 287.5,143.615709 Z" id="Path" fill="#F4C534"></path>
                <g id="Group" transform="translate(61.500000, 146.000000)" fill="#3E4347">
                    <path d="M125.6805,69.973913 C125.6805,74.1972174 122.3235,77.5071304 118.1835,77.5071304 L47.2005,77.5071304 C43.0605,77.5071304 39.7035,74.1881739 39.7035,69.973913 C39.7035,65.813913 43.0605,62.4406957 47.2005,62.4406957 L118.1835,62.4406957 C122.3145,62.4406957 125.6805,65.813913 125.6805,69.973913 Z" id="Path"></path>
                    <path d="M1.5795,0.384347826 C5.0985,-1.69565217 15.5115,9.51826087 31.8645,10.1332174 C48.7935,10.7662609 58.6305,-1.69565217 62.1495,0.384347826 C66.5325,1.8946087 60.5565,30.6528696 31.8645,30.7613913 C3.1815,30.6528696 -2.8035,1.8946087 1.5795,0.384347826 Z" id="Path"></path>
                </g>
                <path d="M56.5786848,134.114779 C53.2906167,133.598626 51.044223,130.555099 51.5786473,127.315789 C52.1130716,124.085379 55.1565727,121.869478 58.4989891,122.40343 C92.4485189,127.760749 102.765625,103.937587 102.865264,103.697309 C104.115273,100.662681 107.629792,99.2032123 110.736699,100.440201 C113.825491,101.67719 115.311009,105.13898 114.051942,108.173607 C107.240296,124.565936 85.8452085,138.733465 56.5786848,134.114779 Z" id="Path" fill="#E9B02C"></path>
                <path d="M224.212234,146.260001 C220.701735,144.155149 210.31389,155.503049 194.000394,156.125354 C177.112289,156.765961 167.299052,144.155149 163.788553,146.260001 C159.416141,147.788307 165.377705,176.890182 194.000394,177 C222.614104,176.890182 228.584646,147.788307 224.212234,146.260001 Z" id="Path" fill="#3E4347"></path>
                <path d="M172.948074,108.173098 C171.688963,105.13924 173.174533,101.678328 176.263431,100.441652 C179.34327,99.2049767 182.857911,100.655179 184.12608,103.671243 C184.578998,104.738877 194.950811,127.701894 228.502946,122.408211 C231.827362,121.874395 234.898143,124.089734 235.423527,127.319326 C235.948912,130.557814 233.711499,133.600569 230.423317,134.116592 C201.364124,138.707416 179.814305,124.71252 172.948074,108.173098 Z" id="Path" fill="#E9B02C"></path>
            </g>
        </g>
    </g>
</svg>